<?xml version="1.0" encoding="utf-8" standalone="no"?>
<!DOCTYPE svg PUBLIC "-//W3C//DTD SVG 1.1//EN"
  "http://www.w3.org/Graphics/SVG/1.1/DTD/svg11.dtd">
<svg xmlns:xlink="http://www.w3.org/1999/xlink" width="216pt" height="216pt" viewBox="0 0 216 216" xmlns="http://www.w3.org/2000/svg" version="1.1">
 <metadata>
  <rdf:RDF xmlns:dc="http://purl.org/dc/elements/1.1/" xmlns:cc="http://creativecommons.org/ns#" xmlns:rdf="http://www.w3.org/1999/02/22-rdf-syntax-ns#">
   <cc:Work>
    <dc:type rdf:resource="http://purl.org/dc/dcmitype/StillImage"/>
    <dc:date>2022-06-29T08:55:51.767570</dc:date>
    <dc:format>image/svg+xml</dc:format>
    <dc:creator>
     <cc:Agent>
      <dc:title>Matplotlib v3.5.2, https://matplotlib.org/</dc:title>
     </cc:Agent>
    </dc:creator>
   </cc:Work>
  </rdf:RDF>
 </metadata>
 <defs>
  <style type="text/css">*{stroke-linejoin: round; stroke-linecap: butt}</style>
 </defs>
 <g id="figure_1">
  <g id="patch_1">
   <path d="M 0 216 
L 216 216 
L 216 0 
L 0 0 
z
" style="fill: #ffffff"/>
  </g>
  <g id="axes_1">
   <g id="patch_2">
    <path d="M 74.738125 166.908125 
L 205.2 166.908125 
L 205.2 10.8 
L 74.738125 10.8 
z
" style="fill: #ffffff"/>
   </g>
   <g id="line2d_1">
    <path clip-path="url(#pe300634dc5)" style="fill: none; stroke: #000000; stroke-width: 2; stroke-linecap: square"/>
    <defs>
     <path id="mee89bcb08d" d="M 0 2 
C 0.530406 2 1.03916 1.789267 1.414214 1.414214 
C 1.789267 1.03916 2 0.530406 2 0 
C 2 -0.530406 1.789267 -1.03916 1.414214 -1.414214 
C 1.03916 -1.789267 0.530406 -2 0 -2 
C -0.530406 -2 -1.03916 -1.789267 -1.414214 -1.414214 
C -1.789267 -1.03916 -2 -0.530406 -2 0 
C -2 0.530406 -1.789267 1.03916 -1.414214 1.414214 
C -1.03916 1.789267 -0.530406 2 0 2 
z
" style="stroke: #000000"/>
    </defs>
    <g clip-path="url(#pe300634dc5)">
     <use xlink:href="#mee89bcb08d" x="80.66821" y="531.399762" style="fill-opacity: 0; stroke: #000000"/>
     <use xlink:href="#mee89bcb08d" x="106.188715" y="218.978359" style="fill-opacity: 0; stroke: #000000"/>
     <use xlink:href="#mee89bcb08d" x="131.709219" y="218.978359" style="fill-opacity: 0; stroke: #000000"/>
     <use xlink:href="#mee89bcb08d" x="142.011271" y="218.978359" style="fill-opacity: 0; stroke: #000000"/>
     <use xlink:href="#mee89bcb08d" x="148.577355" y="218.978359" style="fill-opacity: 0; stroke: #000000"/>
     <use xlink:href="#mee89bcb08d" x="148.577355" y="218.978359" style="fill-opacity: 0; stroke: #000000"/>
     <use xlink:href="#mee89bcb08d" x="153.407258" y="218.978359" style="fill-opacity: 0; stroke: #000000"/>
     <use xlink:href="#mee89bcb08d" x="157.229723" y="218.978359" style="fill-opacity: 0; stroke: #000000"/>
     <use xlink:href="#mee89bcb08d" x="160.393341" y="218.978359" style="fill-opacity: 0; stroke: #000000"/>
     <use xlink:href="#mee89bcb08d" x="163.092187" y="218.978359" style="fill-opacity: 0; stroke: #000000"/>
     <use xlink:href="#mee89bcb08d" x="165.445491" y="218.978359" style="fill-opacity: 0; stroke: #000000"/>
     <use xlink:href="#mee89bcb08d" x="167.531776" y="218.978359" style="fill-opacity: 0; stroke: #000000"/>
     <use xlink:href="#mee89bcb08d" x="169.405509" y="218.978359" style="fill-opacity: 0; stroke: #000000"/>
     <use xlink:href="#mee89bcb08d" x="171.106023" y="218.978359" style="fill-opacity: 0; stroke: #000000"/>
     <use xlink:href="#mee89bcb08d" x="172.662653" y="218.978359" style="fill-opacity: 0; stroke: #000000"/>
     <use xlink:href="#mee89bcb08d" x="174.097859" y="218.978359" style="fill-opacity: 0; stroke: #000000"/>
     <use xlink:href="#mee89bcb08d" x="175.429221" y="218.978359" style="fill-opacity: 0; stroke: #000000"/>
     <use xlink:href="#mee89bcb08d" x="176.670758" y="218.978359" style="fill-opacity: 0; stroke: #000000"/>
     <use xlink:href="#mee89bcb08d" x="177.833828" y="218.978359" style="fill-opacity: 0; stroke: #000000"/>
     <use xlink:href="#mee89bcb08d" x="178.927763" y="218.978359" style="fill-opacity: 0; stroke: #000000"/>
     <use xlink:href="#mee89bcb08d" x="179.960322" y="218.978359" style="fill-opacity: 0; stroke: #000000"/>
     <use xlink:href="#mee89bcb08d" x="180.938029" y="218.978359" style="fill-opacity: 0; stroke: #000000"/>
     <use xlink:href="#mee89bcb08d" x="181.866419" y="218.978359" style="fill-opacity: 0; stroke: #000000"/>
     <use xlink:href="#mee89bcb08d" x="182.750228" y="218.978359" style="fill-opacity: 0; stroke: #000000"/>
     <use xlink:href="#mee89bcb08d" x="183.593542" y="218.978359" style="fill-opacity: 0; stroke: #000000"/>
     <use xlink:href="#mee89bcb08d" x="184.399911" y="218.978359" style="fill-opacity: 0; stroke: #000000"/>
     <use xlink:href="#mee89bcb08d" x="185.172437" y="218.978359" style="fill-opacity: 0; stroke: #000000"/>
     <use xlink:href="#mee89bcb08d" x="185.913845" y="218.978359" style="fill-opacity: 0; stroke: #000000"/>
     <use xlink:href="#mee89bcb08d" x="186.626547" y="218.978359" style="fill-opacity: 0; stroke: #000000"/>
     <use xlink:href="#mee89bcb08d" x="187.312681" y="218.978359" style="fill-opacity: 0; stroke: #000000"/>
     <use xlink:href="#mee89bcb08d" x="187.974159" y="218.978359" style="fill-opacity: 0; stroke: #000000"/>
     <use xlink:href="#mee89bcb08d" x="188.612691" y="218.978359" style="fill-opacity: 0; stroke: #000000"/>
     <use xlink:href="#mee89bcb08d" x="189.229815" y="218.978359" style="fill-opacity: 0; stroke: #000000"/>
     <use xlink:href="#mee89bcb08d" x="189.826921" y="218.978359" style="fill-opacity: 0; stroke: #000000"/>
     <use xlink:href="#mee89bcb08d" x="190.405267" y="218.978359" style="fill-opacity: 0; stroke: #000000"/>
     <use xlink:href="#mee89bcb08d" x="190.965995" y="218.978359" style="fill-opacity: 0; stroke: #000000"/>
     <use xlink:href="#mee89bcb08d" x="191.510147" y="218.978359" style="fill-opacity: 0; stroke: #000000"/>
     <use xlink:href="#mee89bcb08d" x="192.038676" y="218.978359" style="fill-opacity: 0; stroke: #000000"/>
     <use xlink:href="#mee89bcb08d" x="192.552453" y="218.978359" style="fill-opacity: 0; stroke: #000000"/>
     <use xlink:href="#mee89bcb08d" x="193.05228" y="218.978359" style="fill-opacity: 0; stroke: #000000"/>
     <use xlink:href="#mee89bcb08d" x="193.538894" y="218.978359" style="fill-opacity: 0; stroke: #000000"/>
     <use xlink:href="#mee89bcb08d" x="194.012975" y="218.978359" style="fill-opacity: 0; stroke: #000000"/>
     <use xlink:href="#mee89bcb08d" x="194.475154" y="218.978359" style="fill-opacity: 0; stroke: #000000"/>
     <use xlink:href="#mee89bcb08d" x="194.926013" y="218.978359" style="fill-opacity: 0; stroke: #000000"/>
     <use xlink:href="#mee89bcb08d" x="195.366093" y="218.978359" style="fill-opacity: 0; stroke: #000000"/>
     <use xlink:href="#mee89bcb08d" x="195.795899" y="218.978359" style="fill-opacity: 0; stroke: #000000"/>
     <use xlink:href="#mee89bcb08d" x="196.215898" y="218.978359" style="fill-opacity: 0; stroke: #000000"/>
     <use xlink:href="#mee89bcb08d" x="196.626528" y="218.978359" style="fill-opacity: 0; stroke: #000000"/>
     <use xlink:href="#mee89bcb08d" x="197.028198" y="218.978359" style="fill-opacity: 0; stroke: #000000"/>
     <use xlink:href="#mee89bcb08d" x="197.421291" y="218.978359" style="fill-opacity: 0; stroke: #000000"/>
     <use xlink:href="#mee89bcb08d" x="197.806165" y="218.978359" style="fill-opacity: 0; stroke: #000000"/>
     <use xlink:href="#mee89bcb08d" x="198.183157" y="218.978359" style="fill-opacity: 0; stroke: #000000"/>
     <use xlink:href="#mee89bcb08d" x="198.552584" y="218.978359" style="fill-opacity: 0; stroke: #000000"/>
     <use xlink:href="#mee89bcb08d" x="198.914743" y="218.978359" style="fill-opacity: 0; stroke: #000000"/>
     <use xlink:href="#mee89bcb08d" x="199.269915" y="218.978359" style="fill-opacity: 0; stroke: #000000"/>
    </g>
   </g>
   <g id="matplotlib.axis_1">
    <g id="xtick_1">
     <g id="line2d_2">
      <defs>
       <path id="mc3734fb7b6" d="M 0 0 
L 0 3.5 
" style="stroke: #000000; stroke-width: 0.8"/>
      </defs>
      <g>
       <use xlink:href="#mc3734fb7b6" x="104.745747" y="166.908125" style="stroke: #000000; stroke-width: 0.8"/>
      </g>
     </g>
     <g id="text_1">
      <!-- 2 -->
      <g transform="translate(101.564497 181.506563)scale(0.1 -0.1)">
       <defs>
        <path id="DejaVuSans-32" d="M 1228 531 
L 3431 531 
L 3431 0 
L 469 0 
L 469 531 
Q 828 903 1448 1529 
Q 2069 2156 2228 2338 
Q 2531 2678 2651 2914 
Q 2772 3150 2772 3378 
Q 2772 3750 2511 3984 
Q 2250 4219 1831 4219 
Q 1534 4219 1204 4116 
Q 875 4013 500 3803 
L 500 4441 
Q 881 4594 1212 4672 
Q 1544 4750 1819 4750 
Q 2544 4750 2975 4387 
Q 3406 4025 3406 3419 
Q 3406 3131 3298 2873 
Q 3191 2616 2906 2266 
Q 2828 2175 2409 1742 
Q 1991 1309 1228 531 
z
" transform="scale(0.015625)"/>
       </defs>
       <use xlink:href="#DejaVuSans-32"/>
      </g>
     </g>
    </g>
    <g id="xtick_2">
     <g id="line2d_3">
      <g>
       <use xlink:href="#mc3734fb7b6" x="147.134387" y="166.908125" style="stroke: #000000; stroke-width: 0.8"/>
      </g>
     </g>
     <g id="text_2">
      <!-- 3 -->
      <g transform="translate(143.953137 181.506563)scale(0.1 -0.1)">
       <defs>
        <path id="DejaVuSans-33" d="M 2597 2516 
Q 3050 2419 3304 2112 
Q 3559 1806 3559 1356 
Q 3559 666 3084 287 
Q 2609 -91 1734 -91 
Q 1441 -91 1130 -33 
Q 819 25 488 141 
L 488 750 
Q 750 597 1062 519 
Q 1375 441 1716 441 
Q 2309 441 2620 675 
Q 2931 909 2931 1356 
Q 2931 1769 2642 2001 
Q 2353 2234 1838 2234 
L 1294 2234 
L 1294 2753 
L 1863 2753 
Q 2328 2753 2575 2939 
Q 2822 3125 2822 3475 
Q 2822 3834 2567 4026 
Q 2313 4219 1838 4219 
Q 1578 4219 1281 4162 
Q 984 4106 628 3988 
L 628 4550 
Q 988 4650 1302 4700 
Q 1616 4750 1894 4750 
Q 2613 4750 3031 4423 
Q 3450 4097 3450 3541 
Q 3450 3153 3228 2886 
Q 3006 2619 2597 2516 
z
" transform="scale(0.015625)"/>
       </defs>
       <use xlink:href="#DejaVuSans-33"/>
      </g>
     </g>
    </g>
    <g id="xtick_3">
     <g id="line2d_4">
      <g>
       <use xlink:href="#mc3734fb7b6" x="189.523028" y="166.908125" style="stroke: #000000; stroke-width: 0.8"/>
      </g>
     </g>
     <g id="text_3">
      <!-- 4 -->
      <g transform="translate(186.341778 181.506563)scale(0.1 -0.1)">
       <defs>
        <path id="DejaVuSans-34" d="M 2419 4116 
L 825 1625 
L 2419 1625 
L 2419 4116 
z
M 2253 4666 
L 3047 4666 
L 3047 1625 
L 3713 1625 
L 3713 1100 
L 3047 1100 
L 3047 0 
L 2419 0 
L 2419 1100 
L 313 1100 
L 313 1709 
L 2253 4666 
z
" transform="scale(0.015625)"/>
       </defs>
       <use xlink:href="#DejaVuSans-34"/>
      </g>
     </g>
    </g>
    <g id="text_4">
     <!-- m -->
     <g transform="translate(134.124687 202.704375)scale(0.12 -0.12)">
      <defs>
       <path id="DejaVuSans-6d" d="M 3328 2828 
Q 3544 3216 3844 3400 
Q 4144 3584 4550 3584 
Q 5097 3584 5394 3201 
Q 5691 2819 5691 2113 
L 5691 0 
L 5113 0 
L 5113 2094 
Q 5113 2597 4934 2840 
Q 4756 3084 4391 3084 
Q 3944 3084 3684 2787 
Q 3425 2491 3425 1978 
L 3425 0 
L 2847 0 
L 2847 2094 
Q 2847 2600 2669 2842 
Q 2491 3084 2119 3084 
Q 1678 3084 1418 2786 
Q 1159 2488 1159 1978 
L 1159 0 
L 581 0 
L 581 3500 
L 1159 3500 
L 1159 2956 
Q 1356 3278 1631 3431 
Q 1906 3584 2284 3584 
Q 2666 3584 2933 3390 
Q 3200 3197 3328 2828 
z
" transform="scale(0.015625)"/>
      </defs>
      <use xlink:href="#DejaVuSans-6d"/>
     </g>
    </g>
   </g>
   <g id="matplotlib.axis_2">
    <g id="ytick_1">
     <g id="line2d_5">
      <defs>
       <path id="mf00b47b473" d="M 0 0 
L -3.5 0 
" style="stroke: #000000; stroke-width: 0.8"/>
      </defs>
      <g>
       <use xlink:href="#mf00b47b473" x="74.738125" y="36.73254" style="stroke: #000000; stroke-width: 0.8"/>
      </g>
     </g>
     <g id="text_5">
      <!-- 0.00025 -->
      <g transform="translate(26.385 40.531759)scale(0.1 -0.1)">
       <defs>
        <path id="DejaVuSans-30" d="M 2034 4250 
Q 1547 4250 1301 3770 
Q 1056 3291 1056 2328 
Q 1056 1369 1301 889 
Q 1547 409 2034 409 
Q 2525 409 2770 889 
Q 3016 1369 3016 2328 
Q 3016 3291 2770 3770 
Q 2525 4250 2034 4250 
z
M 2034 4750 
Q 2819 4750 3233 4129 
Q 3647 3509 3647 2328 
Q 3647 1150 3233 529 
Q 2819 -91 2034 -91 
Q 1250 -91 836 529 
Q 422 1150 422 2328 
Q 422 3509 836 4129 
Q 1250 4750 2034 4750 
z
" transform="scale(0.015625)"/>
        <path id="DejaVuSans-2e" d="M 684 794 
L 1344 794 
L 1344 0 
L 684 0 
L 684 794 
z
" transform="scale(0.015625)"/>
        <path id="DejaVuSans-35" d="M 691 4666 
L 3169 4666 
L 3169 4134 
L 1269 4134 
L 1269 2991 
Q 1406 3038 1543 3061 
Q 1681 3084 1819 3084 
Q 2600 3084 3056 2656 
Q 3513 2228 3513 1497 
Q 3513 744 3044 326 
Q 2575 -91 1722 -91 
Q 1428 -91 1123 -41 
Q 819 9 494 109 
L 494 744 
Q 775 591 1075 516 
Q 1375 441 1709 441 
Q 2250 441 2565 725 
Q 2881 1009 2881 1497 
Q 2881 1984 2565 2268 
Q 2250 2553 1709 2553 
Q 1456 2553 1204 2497 
Q 953 2441 691 2322 
L 691 4666 
z
" transform="scale(0.015625)"/>
       </defs>
       <use xlink:href="#DejaVuSans-30"/>
       <use xlink:href="#DejaVuSans-2e" x="63.623047"/>
       <use xlink:href="#DejaVuSans-30" x="95.410156"/>
       <use xlink:href="#DejaVuSans-30" x="159.033203"/>
       <use xlink:href="#DejaVuSans-30" x="222.65625"/>
       <use xlink:href="#DejaVuSans-32" x="286.279297"/>
       <use xlink:href="#DejaVuSans-35" x="349.902344"/>
      </g>
     </g>
    </g>
    <g id="ytick_2">
     <g id="line2d_6">
      <g>
       <use xlink:href="#mf00b47b473" x="74.738125" y="62.767657" style="stroke: #000000; stroke-width: 0.8"/>
      </g>
     </g>
     <g id="text_6">
      <!-- 0.00050 -->
      <g transform="translate(26.385 66.566876)scale(0.1 -0.1)">
       <use xlink:href="#DejaVuSans-30"/>
       <use xlink:href="#DejaVuSans-2e" x="63.623047"/>
       <use xlink:href="#DejaVuSans-30" x="95.410156"/>
       <use xlink:href="#DejaVuSans-30" x="159.033203"/>
       <use xlink:href="#DejaVuSans-30" x="222.65625"/>
       <use xlink:href="#DejaVuSans-35" x="286.279297"/>
       <use xlink:href="#DejaVuSans-30" x="349.902344"/>
      </g>
     </g>
    </g>
    <g id="ytick_3">
     <g id="line2d_7">
      <g>
       <use xlink:href="#mf00b47b473" x="74.738125" y="88.802774" style="stroke: #000000; stroke-width: 0.8"/>
      </g>
     </g>
     <g id="text_7">
      <!-- 0.00075 -->
      <g transform="translate(26.385 92.601993)scale(0.1 -0.1)">
       <defs>
        <path id="DejaVuSans-37" d="M 525 4666 
L 3525 4666 
L 3525 4397 
L 1831 0 
L 1172 0 
L 2766 4134 
L 525 4134 
L 525 4666 
z
" transform="scale(0.015625)"/>
       </defs>
       <use xlink:href="#DejaVuSans-30"/>
       <use xlink:href="#DejaVuSans-2e" x="63.623047"/>
       <use xlink:href="#DejaVuSans-30" x="95.410156"/>
       <use xlink:href="#DejaVuSans-30" x="159.033203"/>
       <use xlink:href="#DejaVuSans-30" x="222.65625"/>
       <use xlink:href="#DejaVuSans-37" x="286.279297"/>
       <use xlink:href="#DejaVuSans-35" x="349.902344"/>
      </g>
     </g>
    </g>
    <g id="ytick_4">
     <g id="line2d_8">
      <g>
       <use xlink:href="#mf00b47b473" x="74.738125" y="114.837891" style="stroke: #000000; stroke-width: 0.8"/>
      </g>
     </g>
     <g id="text_8">
      <!-- 0.00100 -->
      <g transform="translate(26.385 118.63711)scale(0.1 -0.1)">
       <defs>
        <path id="DejaVuSans-31" d="M 794 531 
L 1825 531 
L 1825 4091 
L 703 3866 
L 703 4441 
L 1819 4666 
L 2450 4666 
L 2450 531 
L 3481 531 
L 3481 0 
L 794 0 
L 794 531 
z
" transform="scale(0.015625)"/>
       </defs>
       <use xlink:href="#DejaVuSans-30"/>
       <use xlink:href="#DejaVuSans-2e" x="63.623047"/>
       <use xlink:href="#DejaVuSans-30" x="95.410156"/>
       <use xlink:href="#DejaVuSans-30" x="159.033203"/>
       <use xlink:href="#DejaVuSans-31" x="222.65625"/>
       <use xlink:href="#DejaVuSans-30" x="286.279297"/>
       <use xlink:href="#DejaVuSans-30" x="349.902344"/>
      </g>
     </g>
    </g>
    <g id="ytick_5">
     <g id="line2d_9">
      <g>
       <use xlink:href="#mf00b47b473" x="74.738125" y="140.873008" style="stroke: #000000; stroke-width: 0.8"/>
      </g>
     </g>
     <g id="text_9">
      <!-- 0.00125 -->
      <g transform="translate(26.385 144.672227)scale(0.1 -0.1)">
       <use xlink:href="#DejaVuSans-30"/>
       <use xlink:href="#DejaVuSans-2e" x="63.623047"/>
       <use xlink:href="#DejaVuSans-30" x="95.410156"/>
       <use xlink:href="#DejaVuSans-30" x="159.033203"/>
       <use xlink:href="#DejaVuSans-31" x="222.65625"/>
       <use xlink:href="#DejaVuSans-32" x="286.279297"/>
       <use xlink:href="#DejaVuSans-35" x="349.902344"/>
      </g>
     </g>
    </g>
    <g id="ytick_6">
     <g id="line2d_10">
      <g>
       <use xlink:href="#mf00b47b473" x="74.738125" y="166.908125" style="stroke: #000000; stroke-width: 0.8"/>
      </g>
     </g>
     <g id="text_10">
      <!-- 0.00150 -->
      <g transform="translate(26.385 170.707344)scale(0.1 -0.1)">
       <use xlink:href="#DejaVuSans-30"/>
       <use xlink:href="#DejaVuSans-2e" x="63.623047"/>
       <use xlink:href="#DejaVuSans-30" x="95.410156"/>
       <use xlink:href="#DejaVuSans-30" x="159.033203"/>
       <use xlink:href="#DejaVuSans-31" x="222.65625"/>
       <use xlink:href="#DejaVuSans-35" x="286.279297"/>
       <use xlink:href="#DejaVuSans-30" x="349.902344"/>
      </g>
     </g>
    </g>
    <g id="text_11">
     <!-- chi_sq -->
     <g transform="translate(13.555625 107.557188)rotate(-90)scale(0.12 -0.12)">
      <defs>
       <path id="DejaVuSans-63" d="M 3122 3366 
L 3122 2828 
Q 2878 2963 2633 3030 
Q 2388 3097 2138 3097 
Q 1578 3097 1268 2742 
Q 959 2388 959 1747 
Q 959 1106 1268 751 
Q 1578 397 2138 397 
Q 2388 397 2633 464 
Q 2878 531 3122 666 
L 3122 134 
Q 2881 22 2623 -34 
Q 2366 -91 2075 -91 
Q 1284 -91 818 406 
Q 353 903 353 1747 
Q 353 2603 823 3093 
Q 1294 3584 2113 3584 
Q 2378 3584 2631 3529 
Q 2884 3475 3122 3366 
z
" transform="scale(0.015625)"/>
       <path id="DejaVuSans-68" d="M 3513 2113 
L 3513 0 
L 2938 0 
L 2938 2094 
Q 2938 2591 2744 2837 
Q 2550 3084 2163 3084 
Q 1697 3084 1428 2787 
Q 1159 2491 1159 1978 
L 1159 0 
L 581 0 
L 581 4863 
L 1159 4863 
L 1159 2956 
Q 1366 3272 1645 3428 
Q 1925 3584 2291 3584 
Q 2894 3584 3203 3211 
Q 3513 2838 3513 2113 
z
" transform="scale(0.015625)"/>
       <path id="DejaVuSans-69" d="M 603 3500 
L 1178 3500 
L 1178 0 
L 603 0 
L 603 3500 
z
M 603 4863 
L 1178 4863 
L 1178 4134 
L 603 4134 
L 603 4863 
z
" transform="scale(0.015625)"/>
       <path id="DejaVuSans-5f" d="M 3263 -1063 
L 3263 -1509 
L -63 -1509 
L -63 -1063 
L 3263 -1063 
z
" transform="scale(0.015625)"/>
       <path id="DejaVuSans-73" d="M 2834 3397 
L 2834 2853 
Q 2591 2978 2328 3040 
Q 2066 3103 1784 3103 
Q 1356 3103 1142 2972 
Q 928 2841 928 2578 
Q 928 2378 1081 2264 
Q 1234 2150 1697 2047 
L 1894 2003 
Q 2506 1872 2764 1633 
Q 3022 1394 3022 966 
Q 3022 478 2636 193 
Q 2250 -91 1575 -91 
Q 1294 -91 989 -36 
Q 684 19 347 128 
L 347 722 
Q 666 556 975 473 
Q 1284 391 1588 391 
Q 1994 391 2212 530 
Q 2431 669 2431 922 
Q 2431 1156 2273 1281 
Q 2116 1406 1581 1522 
L 1381 1569 
Q 847 1681 609 1914 
Q 372 2147 372 2553 
Q 372 3047 722 3315 
Q 1072 3584 1716 3584 
Q 2034 3584 2315 3537 
Q 2597 3491 2834 3397 
z
" transform="scale(0.015625)"/>
       <path id="DejaVuSans-71" d="M 947 1747 
Q 947 1113 1208 752 
Q 1469 391 1925 391 
Q 2381 391 2643 752 
Q 2906 1113 2906 1747 
Q 2906 2381 2643 2742 
Q 2381 3103 1925 3103 
Q 1469 3103 1208 2742 
Q 947 2381 947 1747 
z
M 2906 525 
Q 2725 213 2448 61 
Q 2172 -91 1784 -91 
Q 1150 -91 751 415 
Q 353 922 353 1747 
Q 353 2572 751 3078 
Q 1150 3584 1784 3584 
Q 2172 3584 2448 3432 
Q 2725 3281 2906 2969 
L 2906 3500 
L 3481 3500 
L 3481 -1331 
L 2906 -1331 
L 2906 525 
z
" transform="scale(0.015625)"/>
      </defs>
      <use xlink:href="#DejaVuSans-63"/>
      <use xlink:href="#DejaVuSans-68" x="54.980469"/>
      <use xlink:href="#DejaVuSans-69" x="118.359375"/>
      <use xlink:href="#DejaVuSans-5f" x="146.142578"/>
      <use xlink:href="#DejaVuSans-73" x="196.142578"/>
      <use xlink:href="#DejaVuSans-71" x="248.242188"/>
     </g>
    </g>
   </g>
   <g id="PathCollection_1">
    <defs>
     <path id="mf9e00bf4ee" d="M 0 2 
C 0.530406 2 1.03916 1.789267 1.414214 1.414214 
C 1.789267 1.03916 2 0.530406 2 0 
C 2 -0.530406 1.789267 -1.03916 1.414214 -1.414214 
C 1.03916 -1.789267 0.530406 -2 0 -2 
C -0.530406 -2 -1.03916 -1.789267 -1.414214 -1.414214 
C -1.789267 -1.03916 -2 -0.530406 -2 0 
C -2 0.530406 -1.789267 1.03916 -1.414214 1.414214 
C -1.03916 1.789267 -0.530406 2 0 2 
z
" style="stroke: #1e90ff"/>
    </defs>
    <g clip-path="url(#pe300634dc5)">
     <use xlink:href="#mf9e00bf4ee" x="148.577355" y="218.978359" style="fill: #1e90ff; stroke: #1e90ff"/>
    </g>
   </g>
   <g id="line2d_11">
    <path d="M 80.66821 10.782904 
L 199.269915 10.782904 
" clip-path="url(#pe300634dc5)" style="fill: none; stroke-dasharray: 2,3.3; stroke-dashoffset: 0; stroke: #696969; stroke-width: 2"/>
   </g>
   <g id="patch_3">
    <path d="M 74.738125 166.908125 
L 74.738125 10.8 
" style="fill: none; stroke: #000000; stroke-width: 0.8; stroke-linejoin: miter; stroke-linecap: square"/>
   </g>
   <g id="patch_4">
    <path d="M 74.738125 166.908125 
L 205.2 166.908125 
" style="fill: none; stroke: #000000; stroke-width: 0.8; stroke-linejoin: miter; stroke-linecap: square"/>
   </g>
  </g>
 </g>
 <defs>
  <clipPath id="pe300634dc5">
   <rect x="74.738125" y="10.8" width="130.461875" height="156.108125"/>
  </clipPath>
 </defs>
</svg>
