<?xml version="1.0" encoding="utf-8" standalone="no"?>
<!DOCTYPE svg PUBLIC "-//W3C//DTD SVG 1.1//EN"
  "http://www.w3.org/Graphics/SVG/1.1/DTD/svg11.dtd">
<!-- Created with matplotlib (https://matplotlib.org/) -->
<svg height="216pt" version="1.1" viewBox="0 0 432 216" width="432pt" xmlns="http://www.w3.org/2000/svg" xmlns:xlink="http://www.w3.org/1999/xlink">
 <defs>
  <style type="text/css">
*{stroke-linecap:butt;stroke-linejoin:round;}
  </style>
 </defs>
 <g id="figure_1">
  <g id="patch_1">
   <path d="M 0 216 
L 432 216 
L 432 0 
L 0 0 
z
" style="fill:#ffffff;"/>
  </g>
  <g id="axes_1">
   <g id="patch_2">
    <path d="M 57.127813 166.814375 
L 207.498996 166.814375 
L 207.498996 10.8 
L 57.127813 10.8 
z
" style="fill:#ffffff;"/>
   </g>
   <g id="matplotlib.axis_1">
    <g id="xtick_1">
     <g id="line2d_1">
      <defs>
       <path d="M 0 0 
L 0 3.5 
" id="mf7953f7d28" style="stroke:#000000;stroke-width:0.8;"/>
      </defs>
      <g>
       <use style="stroke:#000000;stroke-width:0.8;" x="63.962866" xlink:href="#mf7953f7d28" y="166.814375"/>
      </g>
     </g>
     <g id="text_1">
      <!-- $\mathdefault{0}$ -->
      <defs>
       <path d="M 46 36.53125 
Q 46 50.203125 43.4375 55.78125 
Q 40.875 61.375 34.8125 61.375 
Q 28.765625 61.375 26.171875 55.78125 
Q 23.578125 50.203125 23.578125 36.53125 
Q 23.578125 22.703125 26.171875 17.03125 
Q 28.765625 11.375 34.8125 11.375 
Q 40.828125 11.375 43.40625 17.03125 
Q 46 22.703125 46 36.53125 
z
M 64.796875 36.375 
Q 64.796875 18.265625 56.984375 8.421875 
Q 49.171875 -1.421875 34.8125 -1.421875 
Q 20.40625 -1.421875 12.59375 8.421875 
Q 4.78125 18.265625 4.78125 36.375 
Q 4.78125 54.546875 12.59375 64.375 
Q 20.40625 74.21875 34.8125 74.21875 
Q 49.171875 74.21875 56.984375 64.375 
Q 64.796875 54.546875 64.796875 36.375 
z
" id="DejaVuSans-Bold-48"/>
      </defs>
      <g transform="translate(60.462866 181.412813)scale(0.1 -0.1)">
       <use transform="translate(0 0.78125)" xlink:href="#DejaVuSans-Bold-48"/>
      </g>
     </g>
    </g>
    <g id="xtick_2">
     <g id="line2d_2">
      <g>
       <use style="stroke:#000000;stroke-width:0.8;" x="90.988792" xlink:href="#mf7953f7d28" y="166.814375"/>
      </g>
     </g>
     <g id="text_2">
      <!-- $\mathdefault{10^{0}}$ -->
      <defs>
       <path d="M 11.71875 12.984375 
L 28.328125 12.984375 
L 28.328125 60.109375 
L 11.28125 56.59375 
L 11.28125 69.390625 
L 28.21875 72.90625 
L 46.09375 72.90625 
L 46.09375 12.984375 
L 62.703125 12.984375 
L 62.703125 0 
L 11.71875 0 
z
" id="DejaVuSans-Bold-49"/>
      </defs>
      <g transform="translate(81.388792 181.412813)scale(0.1 -0.1)">
       <use transform="translate(0 0.765625)" xlink:href="#DejaVuSans-Bold-49"/>
       <use transform="translate(69.580078 0.765625)" xlink:href="#DejaVuSans-Bold-48"/>
       <use transform="translate(140.117188 39.046875)scale(0.7)" xlink:href="#DejaVuSans-Bold-48"/>
      </g>
     </g>
    </g>
    <g id="xtick_3">
     <g id="line2d_3">
      <g>
       <use style="stroke:#000000;stroke-width:0.8;" x="152.017277" xlink:href="#mf7953f7d28" y="166.814375"/>
      </g>
     </g>
     <g id="text_3">
      <!-- $\mathdefault{10^{1}}$ -->
      <g transform="translate(142.417277 181.412813)scale(0.1 -0.1)">
       <use transform="translate(0 0.684375)" xlink:href="#DejaVuSans-Bold-49"/>
       <use transform="translate(69.580078 0.684375)" xlink:href="#DejaVuSans-Bold-48"/>
       <use transform="translate(140.117188 38.965625)scale(0.7)" xlink:href="#DejaVuSans-Bold-49"/>
      </g>
     </g>
    </g>
    <g id="xtick_4">
     <g id="line2d_4">
      <g>
       <use style="stroke:#000000;stroke-width:0.8;" x="200.663942" xlink:href="#mf7953f7d28" y="166.814375"/>
      </g>
     </g>
     <g id="text_4">
      <!-- $\mathdefault{10^{2}}$ -->
      <defs>
       <path d="M 28.8125 13.8125 
L 60.890625 13.8125 
L 60.890625 0 
L 7.90625 0 
L 7.90625 13.8125 
L 34.515625 37.3125 
Q 38.09375 40.53125 39.796875 43.609375 
Q 41.5 46.6875 41.5 50 
Q 41.5 55.125 38.0625 58.25 
Q 34.625 61.375 28.90625 61.375 
Q 24.515625 61.375 19.28125 59.5 
Q 14.0625 57.625 8.109375 53.90625 
L 8.109375 69.921875 
Q 14.453125 72.015625 20.65625 73.109375 
Q 26.859375 74.21875 32.8125 74.21875 
Q 45.90625 74.21875 53.15625 68.453125 
Q 60.40625 62.703125 60.40625 52.390625 
Q 60.40625 46.4375 57.328125 41.28125 
Q 54.25 36.140625 44.390625 27.484375 
z
" id="DejaVuSans-Bold-50"/>
      </defs>
      <g transform="translate(191.063942 181.412813)scale(0.1 -0.1)">
       <use transform="translate(0 0.765625)" xlink:href="#DejaVuSans-Bold-49"/>
       <use transform="translate(69.580078 0.765625)" xlink:href="#DejaVuSans-Bold-48"/>
       <use transform="translate(140.117188 39.046875)scale(0.7)" xlink:href="#DejaVuSans-Bold-50"/>
      </g>
     </g>
    </g>
    <g id="text_5">
     <!-- Ligand (nM) -->
     <defs>
      <path d="M 9.1875 72.90625 
L 27.984375 72.90625 
L 27.984375 14.203125 
L 60.984375 14.203125 
L 60.984375 0 
L 9.1875 0 
z
" id="DejaVuSans-Bold-76"/>
      <path d="M 8.40625 54.6875 
L 25.875 54.6875 
L 25.875 0 
L 8.40625 0 
z
M 8.40625 75.984375 
L 25.875 75.984375 
L 25.875 61.71875 
L 8.40625 61.71875 
z
" id="DejaVuSans-Bold-105"/>
      <path d="M 45.609375 9.28125 
Q 42 4.5 37.640625 2.25 
Q 33.296875 0 27.59375 0 
Q 17.578125 0 11.03125 7.875 
Q 4.5 15.765625 4.5 27.984375 
Q 4.5 40.234375 11.03125 48.0625 
Q 17.578125 55.90625 27.59375 55.90625 
Q 33.296875 55.90625 37.640625 53.65625 
Q 42 51.421875 45.609375 46.578125 
L 45.609375 54.6875 
L 63.1875 54.6875 
L 63.1875 5.515625 
Q 63.1875 -7.671875 54.859375 -14.625 
Q 46.53125 -21.578125 30.71875 -21.578125 
Q 25.59375 -21.578125 20.796875 -20.796875 
Q 16.015625 -20.015625 11.1875 -18.40625 
L 11.1875 -4.78125 
Q 15.765625 -7.421875 20.15625 -8.71875 
Q 24.5625 -10.015625 29 -10.015625 
Q 37.59375 -10.015625 41.59375 -6.25 
Q 45.609375 -2.484375 45.609375 5.515625 
z
M 34.078125 43.3125 
Q 28.65625 43.3125 25.625 39.296875 
Q 22.609375 35.296875 22.609375 27.984375 
Q 22.609375 20.453125 25.53125 16.578125 
Q 28.46875 12.703125 34.078125 12.703125 
Q 39.546875 12.703125 42.578125 16.703125 
Q 45.609375 20.703125 45.609375 27.984375 
Q 45.609375 35.296875 42.578125 39.296875 
Q 39.546875 43.3125 34.078125 43.3125 
z
" id="DejaVuSans-Bold-103"/>
      <path d="M 32.90625 24.609375 
Q 27.4375 24.609375 24.671875 22.75 
Q 21.921875 20.90625 21.921875 17.28125 
Q 21.921875 13.96875 24.140625 12.078125 
Q 26.375 10.203125 30.328125 10.203125 
Q 35.25 10.203125 38.625 13.734375 
Q 42 17.28125 42 22.609375 
L 42 24.609375 
z
M 59.625 31.203125 
L 59.625 0 
L 42 0 
L 42 8.109375 
Q 38.484375 3.125 34.078125 0.84375 
Q 29.6875 -1.421875 23.390625 -1.421875 
Q 14.890625 -1.421875 9.59375 3.53125 
Q 4.296875 8.5 4.296875 16.40625 
Q 4.296875 26.03125 10.90625 30.515625 
Q 17.53125 35.015625 31.6875 35.015625 
L 42 35.015625 
L 42 36.375 
Q 42 40.53125 38.71875 42.453125 
Q 35.453125 44.390625 28.515625 44.390625 
Q 22.90625 44.390625 18.0625 43.265625 
Q 13.234375 42.140625 9.078125 39.890625 
L 9.078125 53.21875 
Q 14.703125 54.59375 20.359375 55.296875 
Q 26.03125 56 31.6875 56 
Q 46.484375 56 53.046875 50.171875 
Q 59.625 44.34375 59.625 31.203125 
z
" id="DejaVuSans-Bold-97"/>
      <path d="M 63.375 33.296875 
L 63.375 0 
L 45.796875 0 
L 45.796875 5.421875 
L 45.796875 25.484375 
Q 45.796875 32.5625 45.484375 35.25 
Q 45.171875 37.9375 44.390625 39.203125 
Q 43.359375 40.921875 41.59375 41.875 
Q 39.84375 42.828125 37.59375 42.828125 
Q 32.125 42.828125 29 38.59375 
Q 25.875 34.375 25.875 26.90625 
L 25.875 0 
L 8.40625 0 
L 8.40625 54.6875 
L 25.875 54.6875 
L 25.875 46.6875 
Q 29.828125 51.46875 34.265625 53.734375 
Q 38.71875 56 44.09375 56 
Q 53.5625 56 58.46875 50.1875 
Q 63.375 44.390625 63.375 33.296875 
z
" id="DejaVuSans-Bold-110"/>
      <path d="M 45.609375 46.6875 
L 45.609375 75.984375 
L 63.1875 75.984375 
L 63.1875 0 
L 45.609375 0 
L 45.609375 7.90625 
Q 42 3.078125 37.640625 0.828125 
Q 33.296875 -1.421875 27.59375 -1.421875 
Q 17.484375 -1.421875 10.984375 6.609375 
Q 4.5 14.65625 4.5 27.296875 
Q 4.5 39.9375 10.984375 47.96875 
Q 17.484375 56 27.59375 56 
Q 33.25 56 37.625 53.734375 
Q 42 51.46875 45.609375 46.6875 
z
M 34.078125 11.28125 
Q 39.703125 11.28125 42.65625 15.375 
Q 45.609375 19.484375 45.609375 27.296875 
Q 45.609375 35.109375 42.65625 39.203125 
Q 39.703125 43.3125 34.078125 43.3125 
Q 28.515625 43.3125 25.5625 39.203125 
Q 22.609375 35.109375 22.609375 27.296875 
Q 22.609375 19.484375 25.5625 15.375 
Q 28.515625 11.28125 34.078125 11.28125 
z
" id="DejaVuSans-Bold-100"/>
      <path id="DejaVuSans-Bold-32"/>
      <path d="M 37.703125 -13.1875 
L 23.1875 -13.1875 
Q 15.71875 -1.125 12.15625 9.734375 
Q 8.59375 20.609375 8.59375 31.296875 
Q 8.59375 42 12.171875 52.953125 
Q 15.765625 63.921875 23.1875 75.875 
L 37.703125 75.875 
Q 31.453125 64.3125 28.328125 53.25 
Q 25.203125 42.1875 25.203125 31.390625 
Q 25.203125 20.609375 28.296875 9.515625 
Q 31.390625 -1.5625 37.703125 -13.1875 
z
" id="DejaVuSans-Bold-40"/>
      <path d="M 9.1875 72.90625 
L 33.109375 72.90625 
L 49.703125 33.890625 
L 66.40625 72.90625 
L 90.28125 72.90625 
L 90.28125 0 
L 72.515625 0 
L 72.515625 53.328125 
L 55.71875 14.015625 
L 43.796875 14.015625 
L 27 53.328125 
L 27 0 
L 9.1875 0 
z
" id="DejaVuSans-Bold-77"/>
      <path d="M 8.015625 -13.1875 
Q 14.265625 -1.5625 17.390625 9.515625 
Q 20.515625 20.609375 20.515625 31.390625 
Q 20.515625 42.1875 17.390625 53.25 
Q 14.265625 64.3125 8.015625 75.875 
L 22.515625 75.875 
Q 29.9375 63.921875 33.515625 52.953125 
Q 37.109375 42 37.109375 31.296875 
Q 37.109375 20.609375 33.546875 9.734375 
Q 29.984375 -1.125 22.515625 -13.1875 
z
" id="DejaVuSans-Bold-41"/>
     </defs>
     <g transform="translate(91.708404 202.610625)scale(0.12 -0.12)">
      <use xlink:href="#DejaVuSans-Bold-76"/>
      <use x="63.720703" xlink:href="#DejaVuSans-Bold-105"/>
      <use x="97.998047" xlink:href="#DejaVuSans-Bold-103"/>
      <use x="169.580078" xlink:href="#DejaVuSans-Bold-97"/>
      <use x="237.060547" xlink:href="#DejaVuSans-Bold-110"/>
      <use x="308.251953" xlink:href="#DejaVuSans-Bold-100"/>
      <use x="379.833984" xlink:href="#DejaVuSans-Bold-32"/>
      <use x="414.648438" xlink:href="#DejaVuSans-Bold-40"/>
      <use x="460.351562" xlink:href="#DejaVuSans-Bold-110"/>
      <use x="531.542969" xlink:href="#DejaVuSans-Bold-77"/>
      <use x="631.054688" xlink:href="#DejaVuSans-Bold-41"/>
     </g>
    </g>
   </g>
   <g id="matplotlib.axis_2">
    <g id="ytick_1">
     <g id="line2d_5">
      <defs>
       <path d="M 0 0 
L -3.5 0 
" id="mc1c48dde61" style="stroke:#000000;stroke-width:0.8;"/>
      </defs>
      <g>
       <use style="stroke:#000000;stroke-width:0.8;" x="57.127813" xlink:href="#mc1c48dde61" y="154.42656"/>
      </g>
     </g>
     <g id="text_6">
      <!-- 0.0 -->
      <defs>
       <path d="M 10.203125 18.890625 
L 27.78125 18.890625 
L 27.78125 0 
L 10.203125 0 
z
" id="DejaVuSans-Bold-46"/>
      </defs>
      <g transform="translate(32.41375 158.225779)scale(0.1 -0.1)">
       <use xlink:href="#DejaVuSans-Bold-48"/>
       <use x="69.580078" xlink:href="#DejaVuSans-Bold-46"/>
       <use x="107.568359" xlink:href="#DejaVuSans-Bold-48"/>
      </g>
     </g>
    </g>
    <g id="ytick_2">
     <g id="line2d_6">
      <g>
       <use style="stroke:#000000;stroke-width:0.8;" x="57.127813" xlink:href="#mc1c48dde61" y="128.419894"/>
      </g>
     </g>
     <g id="text_7">
      <!-- 0.2 -->
      <g transform="translate(32.41375 132.219112)scale(0.1 -0.1)">
       <use xlink:href="#DejaVuSans-Bold-48"/>
       <use x="69.580078" xlink:href="#DejaVuSans-Bold-46"/>
       <use x="107.568359" xlink:href="#DejaVuSans-Bold-50"/>
      </g>
     </g>
    </g>
    <g id="ytick_3">
     <g id="line2d_7">
      <g>
       <use style="stroke:#000000;stroke-width:0.8;" x="57.127813" xlink:href="#mc1c48dde61" y="102.413228"/>
      </g>
     </g>
     <g id="text_8">
      <!-- 0.4 -->
      <defs>
       <path d="M 36.8125 57.421875 
L 16.21875 26.90625 
L 36.8125 26.90625 
z
M 33.6875 72.90625 
L 54.59375 72.90625 
L 54.59375 26.90625 
L 64.984375 26.90625 
L 64.984375 13.28125 
L 54.59375 13.28125 
L 54.59375 0 
L 36.8125 0 
L 36.8125 13.28125 
L 4.5 13.28125 
L 4.5 29.390625 
z
" id="DejaVuSans-Bold-52"/>
      </defs>
      <g transform="translate(32.41375 106.212446)scale(0.1 -0.1)">
       <use xlink:href="#DejaVuSans-Bold-48"/>
       <use x="69.580078" xlink:href="#DejaVuSans-Bold-46"/>
       <use x="107.568359" xlink:href="#DejaVuSans-Bold-52"/>
      </g>
     </g>
    </g>
    <g id="ytick_4">
     <g id="line2d_8">
      <g>
       <use style="stroke:#000000;stroke-width:0.8;" x="57.127813" xlink:href="#mc1c48dde61" y="76.406561"/>
      </g>
     </g>
     <g id="text_9">
      <!-- 0.6 -->
      <defs>
       <path d="M 36.1875 35.984375 
Q 31.25 35.984375 28.78125 32.78125 
Q 26.3125 29.59375 26.3125 23.1875 
Q 26.3125 16.796875 28.78125 13.59375 
Q 31.25 10.40625 36.1875 10.40625 
Q 41.15625 10.40625 43.625 13.59375 
Q 46.09375 16.796875 46.09375 23.1875 
Q 46.09375 29.59375 43.625 32.78125 
Q 41.15625 35.984375 36.1875 35.984375 
z
M 59.421875 71 
L 59.421875 57.515625 
Q 54.78125 59.71875 50.671875 60.765625 
Q 46.578125 61.8125 42.671875 61.8125 
Q 34.28125 61.8125 29.59375 57.140625 
Q 24.90625 52.484375 24.125 43.3125 
Q 27.34375 45.703125 31.09375 46.890625 
Q 34.859375 48.09375 39.3125 48.09375 
Q 50.484375 48.09375 57.34375 41.546875 
Q 64.203125 35.015625 64.203125 24.421875 
Q 64.203125 12.703125 56.53125 5.640625 
Q 48.875 -1.421875 35.984375 -1.421875 
Q 21.78125 -1.421875 13.984375 8.171875 
Q 6.203125 17.78125 6.203125 35.40625 
Q 6.203125 53.46875 15.3125 63.796875 
Q 24.421875 74.125 40.28125 74.125 
Q 45.3125 74.125 50.046875 73.34375 
Q 54.78125 72.5625 59.421875 71 
z
" id="DejaVuSans-Bold-54"/>
      </defs>
      <g transform="translate(32.41375 80.20578)scale(0.1 -0.1)">
       <use xlink:href="#DejaVuSans-Bold-48"/>
       <use x="69.580078" xlink:href="#DejaVuSans-Bold-46"/>
       <use x="107.568359" xlink:href="#DejaVuSans-Bold-54"/>
      </g>
     </g>
    </g>
    <g id="ytick_5">
     <g id="line2d_9">
      <g>
       <use style="stroke:#000000;stroke-width:0.8;" x="57.127813" xlink:href="#mc1c48dde61" y="50.399895"/>
      </g>
     </g>
     <g id="text_10">
      <!-- 0.8 -->
      <defs>
       <path d="M 34.8125 32.625 
Q 29.546875 32.625 26.703125 29.734375 
Q 23.875 26.859375 23.875 21.484375 
Q 23.875 16.109375 26.703125 13.25 
Q 29.546875 10.40625 34.8125 10.40625 
Q 40.046875 10.40625 42.828125 13.25 
Q 45.609375 16.109375 45.609375 21.484375 
Q 45.609375 26.90625 42.828125 29.765625 
Q 40.046875 32.625 34.8125 32.625 
z
M 21.09375 38.8125 
Q 14.453125 40.828125 11.078125 44.96875 
Q 7.71875 49.125 7.71875 55.328125 
Q 7.71875 64.546875 14.59375 69.375 
Q 21.484375 74.21875 34.8125 74.21875 
Q 48.046875 74.21875 54.921875 69.40625 
Q 61.8125 64.59375 61.8125 55.328125 
Q 61.8125 49.125 58.421875 44.96875 
Q 55.03125 40.828125 48.390625 38.8125 
Q 55.8125 36.765625 59.59375 32.15625 
Q 63.375 27.546875 63.375 20.515625 
Q 63.375 9.671875 56.171875 4.125 
Q 48.96875 -1.421875 34.8125 -1.421875 
Q 20.609375 -1.421875 13.359375 4.125 
Q 6.109375 9.671875 6.109375 20.515625 
Q 6.109375 27.546875 9.890625 32.15625 
Q 13.671875 36.765625 21.09375 38.8125 
z
M 25.484375 53.421875 
Q 25.484375 49.078125 27.90625 46.734375 
Q 30.328125 44.390625 34.8125 44.390625 
Q 39.203125 44.390625 41.59375 46.734375 
Q 44 49.078125 44 53.421875 
Q 44 57.765625 41.59375 60.078125 
Q 39.203125 62.40625 34.8125 62.40625 
Q 30.328125 62.40625 27.90625 60.0625 
Q 25.484375 57.71875 25.484375 53.421875 
z
" id="DejaVuSans-Bold-56"/>
      </defs>
      <g transform="translate(32.41375 54.199114)scale(0.1 -0.1)">
       <use xlink:href="#DejaVuSans-Bold-48"/>
       <use x="69.580078" xlink:href="#DejaVuSans-Bold-46"/>
       <use x="107.568359" xlink:href="#DejaVuSans-Bold-56"/>
      </g>
     </g>
    </g>
    <g id="ytick_6">
     <g id="line2d_10">
      <g>
       <use style="stroke:#000000;stroke-width:0.8;" x="57.127813" xlink:href="#mc1c48dde61" y="24.393229"/>
      </g>
     </g>
     <g id="text_11">
      <!-- 1.0 -->
      <g transform="translate(32.41375 28.192448)scale(0.1 -0.1)">
       <use xlink:href="#DejaVuSans-Bold-49"/>
       <use x="69.580078" xlink:href="#DejaVuSans-Bold-46"/>
       <use x="107.568359" xlink:href="#DejaVuSans-Bold-48"/>
      </g>
     </g>
    </g>
    <g id="text_12">
     <!-- Reporter expression -->
     <defs>
      <path d="M 35.890625 40.578125 
Q 41.796875 40.578125 44.359375 42.765625 
Q 46.921875 44.96875 46.921875 50 
Q 46.921875 54.984375 44.359375 57.125 
Q 41.796875 59.28125 35.890625 59.28125 
L 27.984375 59.28125 
L 27.984375 40.578125 
z
M 27.984375 27.59375 
L 27.984375 0 
L 9.1875 0 
L 9.1875 72.90625 
L 37.890625 72.90625 
Q 52.296875 72.90625 59 68.0625 
Q 65.71875 63.234375 65.71875 52.78125 
Q 65.71875 45.5625 62.21875 40.921875 
Q 58.734375 36.28125 51.703125 34.078125 
Q 55.5625 33.203125 58.609375 30.09375 
Q 61.671875 27 64.796875 20.703125 
L 75 0 
L 54.984375 0 
L 46.09375 18.109375 
Q 43.40625 23.578125 40.640625 25.578125 
Q 37.890625 27.59375 33.296875 27.59375 
z
" id="DejaVuSans-Bold-82"/>
      <path d="M 62.984375 27.484375 
L 62.984375 22.515625 
L 22.125 22.515625 
Q 22.75 16.359375 26.5625 13.28125 
Q 30.375 10.203125 37.203125 10.203125 
Q 42.71875 10.203125 48.5 11.84375 
Q 54.296875 13.484375 60.40625 16.796875 
L 60.40625 3.328125 
Q 54.203125 0.984375 48 -0.21875 
Q 41.796875 -1.421875 35.59375 -1.421875 
Q 20.75 -1.421875 12.515625 6.125 
Q 4.296875 13.671875 4.296875 27.296875 
Q 4.296875 40.671875 12.375 48.328125 
Q 20.453125 56 34.625 56 
Q 47.515625 56 55.25 48.234375 
Q 62.984375 40.484375 62.984375 27.484375 
z
M 45.015625 33.296875 
Q 45.015625 38.28125 42.109375 41.328125 
Q 39.203125 44.390625 34.515625 44.390625 
Q 29.4375 44.390625 26.265625 41.53125 
Q 23.09375 38.671875 22.3125 33.296875 
z
" id="DejaVuSans-Bold-101"/>
      <path d="M 25.875 7.90625 
L 25.875 -20.796875 
L 8.40625 -20.796875 
L 8.40625 54.6875 
L 25.875 54.6875 
L 25.875 46.6875 
Q 29.5 51.46875 33.890625 53.734375 
Q 38.28125 56 44 56 
Q 54.109375 56 60.59375 47.96875 
Q 67.09375 39.9375 67.09375 27.296875 
Q 67.09375 14.65625 60.59375 6.609375 
Q 54.109375 -1.421875 44 -1.421875 
Q 38.28125 -1.421875 33.890625 0.84375 
Q 29.5 3.125 25.875 7.90625 
z
M 37.5 43.3125 
Q 31.890625 43.3125 28.875 39.1875 
Q 25.875 35.0625 25.875 27.296875 
Q 25.875 19.53125 28.875 15.40625 
Q 31.890625 11.28125 37.5 11.28125 
Q 43.109375 11.28125 46.0625 15.375 
Q 49.03125 19.484375 49.03125 27.296875 
Q 49.03125 35.109375 46.0625 39.203125 
Q 43.109375 43.3125 37.5 43.3125 
z
" id="DejaVuSans-Bold-112"/>
      <path d="M 34.421875 43.5 
Q 28.609375 43.5 25.5625 39.328125 
Q 22.515625 35.15625 22.515625 27.296875 
Q 22.515625 19.4375 25.5625 15.25 
Q 28.609375 11.078125 34.421875 11.078125 
Q 40.140625 11.078125 43.15625 15.25 
Q 46.1875 19.4375 46.1875 27.296875 
Q 46.1875 35.15625 43.15625 39.328125 
Q 40.140625 43.5 34.421875 43.5 
z
M 34.421875 56 
Q 48.53125 56 56.46875 48.375 
Q 64.40625 40.765625 64.40625 27.296875 
Q 64.40625 13.8125 56.46875 6.1875 
Q 48.53125 -1.421875 34.421875 -1.421875 
Q 20.265625 -1.421875 12.28125 6.1875 
Q 4.296875 13.8125 4.296875 27.296875 
Q 4.296875 40.765625 12.28125 48.375 
Q 20.265625 56 34.421875 56 
z
" id="DejaVuSans-Bold-111"/>
      <path d="M 49.03125 39.796875 
Q 46.734375 40.875 44.453125 41.375 
Q 42.1875 41.890625 39.890625 41.890625 
Q 33.15625 41.890625 29.515625 37.5625 
Q 25.875 33.25 25.875 25.203125 
L 25.875 0 
L 8.40625 0 
L 8.40625 54.6875 
L 25.875 54.6875 
L 25.875 45.703125 
Q 29.25 51.078125 33.609375 53.53125 
Q 37.984375 56 44.09375 56 
Q 44.96875 56 45.984375 55.921875 
Q 47.015625 55.859375 48.96875 55.609375 
z
" id="DejaVuSans-Bold-114"/>
      <path d="M 27.484375 70.21875 
L 27.484375 54.6875 
L 45.515625 54.6875 
L 45.515625 42.1875 
L 27.484375 42.1875 
L 27.484375 19 
Q 27.484375 15.1875 29 13.84375 
Q 30.515625 12.5 35.015625 12.5 
L 44 12.5 
L 44 0 
L 29 0 
Q 18.65625 0 14.328125 4.3125 
Q 10.015625 8.640625 10.015625 19 
L 10.015625 42.1875 
L 1.3125 42.1875 
L 1.3125 54.6875 
L 10.015625 54.6875 
L 10.015625 70.21875 
z
" id="DejaVuSans-Bold-116"/>
      <path d="M 22.21875 27.984375 
L 2.484375 54.6875 
L 21 54.6875 
L 32.171875 38.484375 
L 43.5 54.6875 
L 62.015625 54.6875 
L 42.28125 28.078125 
L 62.984375 0 
L 44.484375 0 
L 32.171875 17.28125 
L 20.015625 0 
L 1.515625 0 
z
" id="DejaVuSans-Bold-120"/>
      <path d="M 51.125 52.984375 
L 51.125 39.703125 
Q 45.515625 42.046875 40.28125 43.21875 
Q 35.0625 44.390625 30.421875 44.390625 
Q 25.4375 44.390625 23.015625 43.140625 
Q 20.609375 41.890625 20.609375 39.3125 
Q 20.609375 37.203125 22.4375 36.078125 
Q 24.265625 34.96875 29 34.421875 
L 32.078125 33.984375 
Q 45.515625 32.28125 50.140625 28.375 
Q 54.78125 24.46875 54.78125 16.109375 
Q 54.78125 7.375 48.328125 2.96875 
Q 41.890625 -1.421875 29.109375 -1.421875 
Q 23.6875 -1.421875 17.890625 -0.5625 
Q 12.109375 0.296875 6 2 
L 6 15.28125 
Q 11.234375 12.75 16.71875 11.46875 
Q 22.21875 10.203125 27.875 10.203125 
Q 33.015625 10.203125 35.59375 11.609375 
Q 38.1875 13.03125 38.1875 15.828125 
Q 38.1875 18.171875 36.40625 19.3125 
Q 34.625 20.453125 29.296875 21.09375 
L 26.21875 21.484375 
Q 14.546875 22.953125 9.859375 26.90625 
Q 5.171875 30.859375 5.171875 38.921875 
Q 5.171875 47.609375 11.125 51.796875 
Q 17.09375 56 29.390625 56 
Q 34.234375 56 39.546875 55.265625 
Q 44.875 54.546875 51.125 52.984375 
z
" id="DejaVuSans-Bold-115"/>
     </defs>
     <g transform="translate(19.918125 157.7125)rotate(-90)scale(0.12 -0.12)">
      <use xlink:href="#DejaVuSans-Bold-82"/>
      <use x="77.001953" xlink:href="#DejaVuSans-Bold-101"/>
      <use x="144.824219" xlink:href="#DejaVuSans-Bold-112"/>
      <use x="216.40625" xlink:href="#DejaVuSans-Bold-111"/>
      <use x="285.107422" xlink:href="#DejaVuSans-Bold-114"/>
      <use x="334.423828" xlink:href="#DejaVuSans-Bold-116"/>
      <use x="382.226562" xlink:href="#DejaVuSans-Bold-101"/>
      <use x="450.048828" xlink:href="#DejaVuSans-Bold-114"/>
      <use x="499.365234" xlink:href="#DejaVuSans-Bold-32"/>
      <use x="534.179688" xlink:href="#DejaVuSans-Bold-101"/>
      <use x="602.001953" xlink:href="#DejaVuSans-Bold-120"/>
      <use x="666.503906" xlink:href="#DejaVuSans-Bold-112"/>
      <use x="738.085938" xlink:href="#DejaVuSans-Bold-114"/>
      <use x="787.402344" xlink:href="#DejaVuSans-Bold-101"/>
      <use x="855.224609" xlink:href="#DejaVuSans-Bold-115"/>
      <use x="914.746094" xlink:href="#DejaVuSans-Bold-115"/>
      <use x="974.267578" xlink:href="#DejaVuSans-Bold-105"/>
      <use x="1008.544922" xlink:href="#DejaVuSans-Bold-111"/>
      <use x="1077.246094" xlink:href="#DejaVuSans-Bold-110"/>
     </g>
    </g>
   </g>
   <g id="LineCollection_1">
    <path clip-path="url(#p6b7a13fe7a)" d="M 63.962866 159.722813 
L 63.962866 146.719479 
" style="fill:none;stroke:#000000;stroke-width:2;"/>
    <path clip-path="url(#p6b7a13fe7a)" d="M 90.988792 157.126484 
L 90.988792 144.123151 
" style="fill:none;stroke:#000000;stroke-width:2;"/>
    <path clip-path="url(#p6b7a13fe7a)" d="M 109.044827 157.363942 
L 109.044827 144.360609 
" style="fill:none;stroke:#000000;stroke-width:2;"/>
    <path clip-path="url(#p6b7a13fe7a)" d="M 124.991352 153.886194 
L 124.991352 140.882861 
" style="fill:none;stroke:#000000;stroke-width:2;"/>
    <path clip-path="url(#p6b7a13fe7a)" d="M 135.801722 147.072418 
L 135.801722 134.069085 
" style="fill:none;stroke:#000000;stroke-width:2;"/>
    <path clip-path="url(#p6b7a13fe7a)" d="M 146.612092 138.39641 
L 146.612092 125.393077 
" style="fill:none;stroke:#000000;stroke-width:2;"/>
    <path clip-path="url(#p6b7a13fe7a)" d="M 157.422462 121.07699 
L 157.422462 108.073657 
" style="fill:none;stroke:#000000;stroke-width:2;"/>
    <path clip-path="url(#p6b7a13fe7a)" d="M 168.232832 86.768375 
L 168.232832 73.765042 
" style="fill:none;stroke:#000000;stroke-width:2;"/>
    <path clip-path="url(#p6b7a13fe7a)" d="M 179.043202 32.940599 
L 179.043202 19.937266 
" style="fill:none;stroke:#000000;stroke-width:2;"/>
    <path clip-path="url(#p6b7a13fe7a)" d="M 189.853572 33.228204 
L 189.853572 20.224871 
" style="fill:none;stroke:#000000;stroke-width:2;"/>
    <path clip-path="url(#p6b7a13fe7a)" d="M 200.663942 30.894896 
L 200.663942 17.891562 
" style="fill:none;stroke:#000000;stroke-width:2;"/>
   </g>
   <g id="line2d_11">
    <path clip-path="url(#p6b7a13fe7a)" d="M 63.962866 153.489263 
L 90.988792 152.987959 
L 109.044827 152.06942 
L 124.991352 149.557724 
L 135.801722 143.880353 
L 146.612092 133.574348 
L 157.422462 115.092662 
L 168.232832 80.891476 
L 179.043202 28.766682 
L 189.853572 25.462141 
L 200.663942 24.393229 
" style="fill:none;stroke:#000000;stroke-dasharray:2,3.3;stroke-dashoffset:0;stroke-width:2;"/>
   </g>
   <g id="line2d_12">
    <defs>
     <path d="M 2 0 
L -2 -0 
" id="md1cd02b098" style="stroke:#000000;"/>
    </defs>
    <g clip-path="url(#p6b7a13fe7a)">
     <use style="stroke:#000000;" x="63.962866" xlink:href="#md1cd02b098" y="159.722813"/>
     <use style="stroke:#000000;" x="90.988792" xlink:href="#md1cd02b098" y="157.126484"/>
     <use style="stroke:#000000;" x="109.044827" xlink:href="#md1cd02b098" y="157.363942"/>
     <use style="stroke:#000000;" x="124.991352" xlink:href="#md1cd02b098" y="153.886194"/>
     <use style="stroke:#000000;" x="135.801722" xlink:href="#md1cd02b098" y="147.072418"/>
     <use style="stroke:#000000;" x="146.612092" xlink:href="#md1cd02b098" y="138.39641"/>
     <use style="stroke:#000000;" x="157.422462" xlink:href="#md1cd02b098" y="121.07699"/>
     <use style="stroke:#000000;" x="168.232832" xlink:href="#md1cd02b098" y="86.768375"/>
     <use style="stroke:#000000;" x="179.043202" xlink:href="#md1cd02b098" y="32.940599"/>
     <use style="stroke:#000000;" x="189.853572" xlink:href="#md1cd02b098" y="33.228204"/>
     <use style="stroke:#000000;" x="200.663942" xlink:href="#md1cd02b098" y="30.894896"/>
    </g>
   </g>
   <g id="line2d_13">
    <g clip-path="url(#p6b7a13fe7a)">
     <use style="stroke:#000000;" x="63.962866" xlink:href="#md1cd02b098" y="146.719479"/>
     <use style="stroke:#000000;" x="90.988792" xlink:href="#md1cd02b098" y="144.123151"/>
     <use style="stroke:#000000;" x="109.044827" xlink:href="#md1cd02b098" y="144.360609"/>
     <use style="stroke:#000000;" x="124.991352" xlink:href="#md1cd02b098" y="140.882861"/>
     <use style="stroke:#000000;" x="135.801722" xlink:href="#md1cd02b098" y="134.069085"/>
     <use style="stroke:#000000;" x="146.612092" xlink:href="#md1cd02b098" y="125.393077"/>
     <use style="stroke:#000000;" x="157.422462" xlink:href="#md1cd02b098" y="108.073657"/>
     <use style="stroke:#000000;" x="168.232832" xlink:href="#md1cd02b098" y="73.765042"/>
     <use style="stroke:#000000;" x="179.043202" xlink:href="#md1cd02b098" y="19.937266"/>
     <use style="stroke:#000000;" x="189.853572" xlink:href="#md1cd02b098" y="20.224871"/>
     <use style="stroke:#000000;" x="200.663942" xlink:href="#md1cd02b098" y="17.891562"/>
    </g>
   </g>
   <g id="line2d_14">
    <defs>
     <path d="M 0 3 
C 0.795609 3 1.55874 2.683901 2.12132 2.12132 
C 2.683901 1.55874 3 0.795609 3 0 
C 3 -0.795609 2.683901 -1.55874 2.12132 -2.12132 
C 1.55874 -2.683901 0.795609 -3 0 -3 
C -0.795609 -3 -1.55874 -2.683901 -2.12132 -2.12132 
C -2.683901 -1.55874 -3 -0.795609 -3 0 
C -3 0.795609 -2.683901 1.55874 -2.12132 2.12132 
C -1.55874 2.683901 -0.795609 3 0 3 
z
" id="me92ad5e535" style="stroke:#000000;"/>
    </defs>
    <g clip-path="url(#p6b7a13fe7a)">
     <use style="fill-opacity:0;stroke:#000000;" x="63.962866" xlink:href="#me92ad5e535" y="153.221146"/>
     <use style="fill-opacity:0;stroke:#000000;" x="90.988792" xlink:href="#me92ad5e535" y="150.624817"/>
     <use style="fill-opacity:0;stroke:#000000;" x="109.044827" xlink:href="#me92ad5e535" y="150.862276"/>
     <use style="fill-opacity:0;stroke:#000000;" x="124.991352" xlink:href="#me92ad5e535" y="147.384527"/>
     <use style="fill-opacity:0;stroke:#000000;" x="135.801722" xlink:href="#me92ad5e535" y="140.570752"/>
     <use style="fill-opacity:0;stroke:#000000;" x="146.612092" xlink:href="#me92ad5e535" y="131.894743"/>
     <use style="fill-opacity:0;stroke:#000000;" x="157.422462" xlink:href="#me92ad5e535" y="114.575324"/>
     <use style="fill-opacity:0;stroke:#000000;" x="168.232832" xlink:href="#me92ad5e535" y="80.266709"/>
     <use style="fill-opacity:0;stroke:#000000;" x="179.043202" xlink:href="#me92ad5e535" y="26.438932"/>
     <use style="fill-opacity:0;stroke:#000000;" x="189.853572" xlink:href="#me92ad5e535" y="26.726537"/>
     <use style="fill-opacity:0;stroke:#000000;" x="200.663942" xlink:href="#me92ad5e535" y="24.393229"/>
    </g>
   </g>
   <g id="patch_3">
    <path d="M 57.127813 166.814375 
L 57.127813 10.8 
" style="fill:none;stroke:#000000;stroke-linecap:square;stroke-linejoin:miter;stroke-width:0.8;"/>
   </g>
   <g id="patch_4">
    <path d="M 57.127813 166.814375 
L 207.498996 166.814375 
" style="fill:none;stroke:#000000;stroke-linecap:square;stroke-linejoin:miter;stroke-width:0.8;"/>
   </g>
   <g id="legend_1">
    <g id="patch_5">
     <path d="M 64.127813 48.15625 
L 112.191875 48.15625 
Q 114.191875 48.15625 114.191875 46.15625 
L 114.191875 17.8 
Q 114.191875 15.8 112.191875 15.8 
L 64.127813 15.8 
Q 62.127813 15.8 62.127813 17.8 
L 62.127813 46.15625 
Q 62.127813 48.15625 64.127813 48.15625 
z
" style="fill:#ffffff;opacity:0.8;stroke:#cccccc;stroke-linejoin:miter;"/>
    </g>
    <g id="line2d_15">
     <path d="M 66.127813 23.898438 
L 86.127813 23.898438 
" style="fill:none;stroke:#000000;stroke-dasharray:2,3.3;stroke-dashoffset:0;stroke-width:2;"/>
    </g>
    <g id="line2d_16"/>
    <g id="text_13">
     <!-- ref -->
     <defs>
      <path d="M 44.390625 75.984375 
L 44.390625 64.5 
L 34.71875 64.5 
Q 31 64.5 29.53125 63.15625 
Q 28.078125 61.8125 28.078125 58.5 
L 28.078125 54.6875 
L 43.015625 54.6875 
L 43.015625 42.1875 
L 28.078125 42.1875 
L 28.078125 0 
L 10.59375 0 
L 10.59375 42.1875 
L 1.90625 42.1875 
L 1.90625 54.6875 
L 10.59375 54.6875 
L 10.59375 58.5 
Q 10.59375 67.4375 15.578125 71.703125 
Q 20.5625 75.984375 31 75.984375 
z
" id="DejaVuSans-Bold-102"/>
     </defs>
     <g transform="translate(94.127813 27.398438)scale(0.1 -0.1)">
      <use xlink:href="#DejaVuSans-Bold-114"/>
      <use x="49.316406" xlink:href="#DejaVuSans-Bold-101"/>
      <use x="117.138672" xlink:href="#DejaVuSans-Bold-102"/>
     </g>
    </g>
    <g id="LineCollection_2">
     <path d="M 76.127813 43.576563 
L 76.127813 33.576563 
" style="fill:none;stroke:#000000;stroke-width:2;"/>
    </g>
    <g id="line2d_17">
     <g>
      <use style="stroke:#000000;" x="76.127813" xlink:href="#md1cd02b098" y="43.576563"/>
     </g>
    </g>
    <g id="line2d_18">
     <g>
      <use style="stroke:#000000;" x="76.127813" xlink:href="#md1cd02b098" y="33.576563"/>
     </g>
    </g>
    <g id="line2d_19"/>
    <g id="line2d_20">
     <g>
      <use style="fill-opacity:0;stroke:#000000;" x="76.127813" xlink:href="#me92ad5e535" y="38.576563"/>
     </g>
    </g>
    <g id="text_14">
     <!-- td -->
     <g transform="translate(94.127813 42.076563)scale(0.1 -0.1)">
      <use xlink:href="#DejaVuSans-Bold-116"/>
      <use x="47.802734" xlink:href="#DejaVuSans-Bold-100"/>
     </g>
    </g>
   </g>
  </g>
  <g id="axes_2">
   <g id="patch_6">
    <path d="M 267.309453 166.814375 
L 417.680637 166.814375 
L 417.680637 10.8 
L 267.309453 10.8 
z
" style="fill:#ffffff;"/>
   </g>
   <g id="matplotlib.axis_3">
    <g id="xtick_5">
     <g id="line2d_21">
      <g>
       <use style="stroke:#000000;stroke-width:0.8;" x="274.144507" xlink:href="#mf7953f7d28" y="166.814375"/>
      </g>
     </g>
     <g id="text_15">
      <!-- 0 -->
      <g transform="translate(270.665601 181.412813)scale(0.1 -0.1)">
       <use xlink:href="#DejaVuSans-Bold-48"/>
      </g>
     </g>
    </g>
    <g id="xtick_6">
     <g id="line2d_22">
      <g>
       <use style="stroke:#000000;stroke-width:0.8;" x="308.319776" xlink:href="#mf7953f7d28" y="166.814375"/>
      </g>
     </g>
     <g id="text_16">
      <!-- 50 -->
      <defs>
       <path d="M 10.59375 72.90625 
L 57.328125 72.90625 
L 57.328125 59.078125 
L 25.59375 59.078125 
L 25.59375 47.796875 
Q 27.734375 48.390625 29.90625 48.703125 
Q 32.078125 49.03125 34.421875 49.03125 
Q 47.75 49.03125 55.171875 42.359375 
Q 62.59375 35.6875 62.59375 23.78125 
Q 62.59375 11.96875 54.515625 5.265625 
Q 46.4375 -1.421875 32.078125 -1.421875 
Q 25.875 -1.421875 19.796875 -0.21875 
Q 13.71875 0.984375 7.71875 3.421875 
L 7.71875 18.21875 
Q 13.671875 14.796875 19.015625 13.078125 
Q 24.359375 11.375 29.109375 11.375 
Q 35.9375 11.375 39.859375 14.71875 
Q 43.796875 18.0625 43.796875 23.78125 
Q 43.796875 29.546875 39.859375 32.859375 
Q 35.9375 36.1875 29.109375 36.1875 
Q 25.046875 36.1875 20.453125 35.125 
Q 15.875 34.078125 10.59375 31.890625 
z
" id="DejaVuSans-Bold-53"/>
      </defs>
      <g transform="translate(301.361963 181.412813)scale(0.1 -0.1)">
       <use xlink:href="#DejaVuSans-Bold-53"/>
       <use x="69.580078" xlink:href="#DejaVuSans-Bold-48"/>
      </g>
     </g>
    </g>
    <g id="xtick_7">
     <g id="line2d_23">
      <g>
       <use style="stroke:#000000;stroke-width:0.8;" x="342.495045" xlink:href="#mf7953f7d28" y="166.814375"/>
      </g>
     </g>
     <g id="text_17">
      <!-- 100 -->
      <g transform="translate(332.058326 181.412813)scale(0.1 -0.1)">
       <use xlink:href="#DejaVuSans-Bold-49"/>
       <use x="69.580078" xlink:href="#DejaVuSans-Bold-48"/>
       <use x="139.160156" xlink:href="#DejaVuSans-Bold-48"/>
      </g>
     </g>
    </g>
    <g id="xtick_8">
     <g id="line2d_24">
      <g>
       <use style="stroke:#000000;stroke-width:0.8;" x="376.670314" xlink:href="#mf7953f7d28" y="166.814375"/>
      </g>
     </g>
     <g id="text_18">
      <!-- 150 -->
      <g transform="translate(366.233595 181.412813)scale(0.1 -0.1)">
       <use xlink:href="#DejaVuSans-Bold-49"/>
       <use x="69.580078" xlink:href="#DejaVuSans-Bold-53"/>
       <use x="139.160156" xlink:href="#DejaVuSans-Bold-48"/>
      </g>
     </g>
    </g>
    <g id="xtick_9">
     <g id="line2d_25">
      <g>
       <use style="stroke:#000000;stroke-width:0.8;" x="410.845583" xlink:href="#mf7953f7d28" y="166.814375"/>
      </g>
     </g>
     <g id="text_19">
      <!-- 200 -->
      <g transform="translate(400.408864 181.412813)scale(0.1 -0.1)">
       <use xlink:href="#DejaVuSans-Bold-50"/>
       <use x="69.580078" xlink:href="#DejaVuSans-Bold-48"/>
       <use x="139.160156" xlink:href="#DejaVuSans-Bold-48"/>
      </g>
     </g>
    </g>
    <g id="text_20">
     <!-- DBD plasmid (ng) -->
     <defs>
      <path d="M 27.984375 58.6875 
L 27.984375 14.203125 
L 34.71875 14.203125 
Q 46.234375 14.203125 52.3125 19.921875 
Q 58.40625 25.640625 58.40625 36.53125 
Q 58.40625 47.359375 52.34375 53.015625 
Q 46.296875 58.6875 34.71875 58.6875 
z
M 9.1875 72.90625 
L 29 72.90625 
Q 45.609375 72.90625 53.734375 70.53125 
Q 61.859375 68.171875 67.671875 62.5 
Q 72.796875 57.5625 75.28125 51.109375 
Q 77.78125 44.671875 77.78125 36.53125 
Q 77.78125 28.265625 75.28125 21.796875 
Q 72.796875 15.328125 67.671875 10.40625 
Q 61.8125 4.734375 53.609375 2.359375 
Q 45.40625 0 29 0 
L 9.1875 0 
z
" id="DejaVuSans-Bold-68"/>
      <path d="M 38.375 44.671875 
Q 42.828125 44.671875 45.109375 46.625 
Q 47.40625 48.578125 47.40625 52.390625 
Q 47.40625 56.15625 45.109375 58.125 
Q 42.828125 60.109375 38.375 60.109375 
L 27.984375 60.109375 
L 27.984375 44.671875 
z
M 39.015625 12.796875 
Q 44.671875 12.796875 47.53125 15.1875 
Q 50.390625 17.578125 50.390625 22.40625 
Q 50.390625 27.15625 47.5625 29.515625 
Q 44.734375 31.890625 39.015625 31.890625 
L 27.984375 31.890625 
L 27.984375 12.796875 
z
M 56.5 39.015625 
Q 62.546875 37.25 65.859375 32.515625 
Q 69.1875 27.78125 69.1875 20.90625 
Q 69.1875 10.359375 62.0625 5.171875 
Q 54.9375 0 40.375 0 
L 9.1875 0 
L 9.1875 72.90625 
L 37.40625 72.90625 
Q 52.59375 72.90625 59.40625 68.3125 
Q 66.21875 63.71875 66.21875 53.609375 
Q 66.21875 48.296875 63.71875 44.5625 
Q 61.234375 40.828125 56.5 39.015625 
z
" id="DejaVuSans-Bold-66"/>
      <path d="M 8.40625 75.984375 
L 25.875 75.984375 
L 25.875 0 
L 8.40625 0 
z
" id="DejaVuSans-Bold-108"/>
      <path d="M 59.078125 45.609375 
Q 62.40625 50.6875 66.96875 53.34375 
Q 71.53125 56 77 56 
Q 86.421875 56 91.359375 50.1875 
Q 96.296875 44.390625 96.296875 33.296875 
L 96.296875 0 
L 78.71875 0 
L 78.71875 28.515625 
Q 78.765625 29.15625 78.78125 29.828125 
Q 78.8125 30.515625 78.8125 31.78125 
Q 78.8125 37.59375 77.09375 40.203125 
Q 75.390625 42.828125 71.578125 42.828125 
Q 66.609375 42.828125 63.890625 38.71875 
Q 61.1875 34.625 61.078125 26.859375 
L 61.078125 0 
L 43.5 0 
L 43.5 28.515625 
Q 43.5 37.59375 41.9375 40.203125 
Q 40.375 42.828125 36.375 42.828125 
Q 31.34375 42.828125 28.609375 38.703125 
Q 25.875 34.578125 25.875 26.90625 
L 25.875 0 
L 8.296875 0 
L 8.296875 54.6875 
L 25.875 54.6875 
L 25.875 46.6875 
Q 29.109375 51.3125 33.28125 53.65625 
Q 37.453125 56 42.484375 56 
Q 48.140625 56 52.484375 53.265625 
Q 56.84375 50.53125 59.078125 45.609375 
z
" id="DejaVuSans-Bold-109"/>
     </defs>
     <g transform="translate(283.15692 202.610625)scale(0.12 -0.12)">
      <use xlink:href="#DejaVuSans-Bold-68"/>
      <use x="83.007812" xlink:href="#DejaVuSans-Bold-66"/>
      <use x="159.228516" xlink:href="#DejaVuSans-Bold-68"/>
      <use x="242.236328" xlink:href="#DejaVuSans-Bold-32"/>
      <use x="277.050781" xlink:href="#DejaVuSans-Bold-112"/>
      <use x="348.632812" xlink:href="#DejaVuSans-Bold-108"/>
      <use x="382.910156" xlink:href="#DejaVuSans-Bold-97"/>
      <use x="450.390625" xlink:href="#DejaVuSans-Bold-115"/>
      <use x="509.912109" xlink:href="#DejaVuSans-Bold-109"/>
      <use x="614.111328" xlink:href="#DejaVuSans-Bold-105"/>
      <use x="648.388672" xlink:href="#DejaVuSans-Bold-100"/>
      <use x="719.970703" xlink:href="#DejaVuSans-Bold-32"/>
      <use x="754.785156" xlink:href="#DejaVuSans-Bold-40"/>
      <use x="800.488281" xlink:href="#DejaVuSans-Bold-110"/>
      <use x="871.679688" xlink:href="#DejaVuSans-Bold-103"/>
      <use x="943.261719" xlink:href="#DejaVuSans-Bold-41"/>
     </g>
    </g>
   </g>
   <g id="matplotlib.axis_4">
    <g id="ytick_7">
     <g id="line2d_26">
      <g>
       <use style="stroke:#000000;stroke-width:0.8;" x="267.309453" xlink:href="#mc1c48dde61" y="161.500393"/>
      </g>
     </g>
     <g id="text_21">
      <!-- 0.0 -->
      <g transform="translate(242.595391 165.299611)scale(0.1 -0.1)">
       <use xlink:href="#DejaVuSans-Bold-48"/>
       <use x="69.580078" xlink:href="#DejaVuSans-Bold-46"/>
       <use x="107.568359" xlink:href="#DejaVuSans-Bold-48"/>
      </g>
     </g>
    </g>
    <g id="ytick_8">
     <g id="line2d_27">
      <g>
       <use style="stroke:#000000;stroke-width:0.8;" x="267.309453" xlink:href="#mc1c48dde61" y="134.14633"/>
      </g>
     </g>
     <g id="text_22">
      <!-- 0.2 -->
      <g transform="translate(242.595391 137.945548)scale(0.1 -0.1)">
       <use xlink:href="#DejaVuSans-Bold-48"/>
       <use x="69.580078" xlink:href="#DejaVuSans-Bold-46"/>
       <use x="107.568359" xlink:href="#DejaVuSans-Bold-50"/>
      </g>
     </g>
    </g>
    <g id="ytick_9">
     <g id="line2d_28">
      <g>
       <use style="stroke:#000000;stroke-width:0.8;" x="267.309453" xlink:href="#mc1c48dde61" y="106.792267"/>
      </g>
     </g>
     <g id="text_23">
      <!-- 0.4 -->
      <g transform="translate(242.595391 110.591486)scale(0.1 -0.1)">
       <use xlink:href="#DejaVuSans-Bold-48"/>
       <use x="69.580078" xlink:href="#DejaVuSans-Bold-46"/>
       <use x="107.568359" xlink:href="#DejaVuSans-Bold-52"/>
      </g>
     </g>
    </g>
    <g id="ytick_10">
     <g id="line2d_29">
      <g>
       <use style="stroke:#000000;stroke-width:0.8;" x="267.309453" xlink:href="#mc1c48dde61" y="79.438204"/>
      </g>
     </g>
     <g id="text_24">
      <!-- 0.6 -->
      <g transform="translate(242.595391 83.237423)scale(0.1 -0.1)">
       <use xlink:href="#DejaVuSans-Bold-48"/>
       <use x="69.580078" xlink:href="#DejaVuSans-Bold-46"/>
       <use x="107.568359" xlink:href="#DejaVuSans-Bold-54"/>
      </g>
     </g>
    </g>
    <g id="ytick_11">
     <g id="line2d_30">
      <g>
       <use style="stroke:#000000;stroke-width:0.8;" x="267.309453" xlink:href="#mc1c48dde61" y="52.084141"/>
      </g>
     </g>
     <g id="text_25">
      <!-- 0.8 -->
      <g transform="translate(242.595391 55.88336)scale(0.1 -0.1)">
       <use xlink:href="#DejaVuSans-Bold-48"/>
       <use x="69.580078" xlink:href="#DejaVuSans-Bold-46"/>
       <use x="107.568359" xlink:href="#DejaVuSans-Bold-56"/>
      </g>
     </g>
    </g>
    <g id="ytick_12">
     <g id="line2d_31">
      <g>
       <use style="stroke:#000000;stroke-width:0.8;" x="267.309453" xlink:href="#mc1c48dde61" y="24.730078"/>
      </g>
     </g>
     <g id="text_26">
      <!-- 1.0 -->
      <g transform="translate(242.595391 28.529297)scale(0.1 -0.1)">
       <use xlink:href="#DejaVuSans-Bold-49"/>
       <use x="69.580078" xlink:href="#DejaVuSans-Bold-46"/>
       <use x="107.568359" xlink:href="#DejaVuSans-Bold-48"/>
      </g>
     </g>
    </g>
    <g id="text_27">
     <!-- Reporter expression -->
     <g transform="translate(230.099766 157.7125)rotate(-90)scale(0.12 -0.12)">
      <use xlink:href="#DejaVuSans-Bold-82"/>
      <use x="77.001953" xlink:href="#DejaVuSans-Bold-101"/>
      <use x="144.824219" xlink:href="#DejaVuSans-Bold-112"/>
      <use x="216.40625" xlink:href="#DejaVuSans-Bold-111"/>
      <use x="285.107422" xlink:href="#DejaVuSans-Bold-114"/>
      <use x="334.423828" xlink:href="#DejaVuSans-Bold-116"/>
      <use x="382.226562" xlink:href="#DejaVuSans-Bold-101"/>
      <use x="450.048828" xlink:href="#DejaVuSans-Bold-114"/>
      <use x="499.365234" xlink:href="#DejaVuSans-Bold-32"/>
      <use x="534.179688" xlink:href="#DejaVuSans-Bold-101"/>
      <use x="602.001953" xlink:href="#DejaVuSans-Bold-120"/>
      <use x="666.503906" xlink:href="#DejaVuSans-Bold-112"/>
      <use x="738.085938" xlink:href="#DejaVuSans-Bold-114"/>
      <use x="787.402344" xlink:href="#DejaVuSans-Bold-101"/>
      <use x="855.224609" xlink:href="#DejaVuSans-Bold-115"/>
      <use x="914.746094" xlink:href="#DejaVuSans-Bold-115"/>
      <use x="974.267578" xlink:href="#DejaVuSans-Bold-105"/>
      <use x="1008.544922" xlink:href="#DejaVuSans-Bold-111"/>
      <use x="1077.246094" xlink:href="#DejaVuSans-Bold-110"/>
     </g>
    </g>
   </g>
   <g id="LineCollection_3">
    <path clip-path="url(#pf01bb38142)" d="M 274.144507 159.605145 
L 274.144507 145.928113 
" style="fill:none;stroke:#000000;stroke-width:2;"/>
    <path clip-path="url(#pf01bb38142)" d="M 275.511518 159.079525 
L 275.511518 145.402493 
" style="fill:none;stroke:#000000;stroke-width:2;"/>
    <path clip-path="url(#pf01bb38142)" d="M 277.562034 152.189349 
L 277.562034 138.512317 
" style="fill:none;stroke:#000000;stroke-width:2;"/>
    <path clip-path="url(#pf01bb38142)" d="M 280.979561 126.296932 
L 280.979561 112.6199 
" style="fill:none;stroke:#000000;stroke-width:2;"/>
    <path clip-path="url(#pf01bb38142)" d="M 287.814615 31.568594 
L 287.814615 17.891563 
" style="fill:none;stroke:#000000;stroke-width:2;"/>
    <path clip-path="url(#pf01bb38142)" d="M 308.319776 40.086706 
L 308.319776 26.409674 
" style="fill:none;stroke:#000000;stroke-width:2;"/>
    <path clip-path="url(#pf01bb38142)" d="M 342.495045 83.3414 
L 342.495045 69.664368 
" style="fill:none;stroke:#000000;stroke-width:2;"/>
    <path clip-path="url(#pf01bb38142)" d="M 410.845583 136.936049 
L 410.845583 123.259017 
" style="fill:none;stroke:#000000;stroke-width:2;"/>
   </g>
   <g id="LineCollection_4">
    <path clip-path="url(#pf01bb38142)" d="M 274.144507 159.722813 
L 274.144507 146.045781 
" style="fill:none;stroke:#808080;stroke-width:2;"/>
    <path clip-path="url(#pf01bb38142)" d="M 275.511518 159.208209 
L 275.511518 145.531178 
" style="fill:none;stroke:#808080;stroke-width:2;"/>
    <path clip-path="url(#pf01bb38142)" d="M 277.562034 153.29201 
L 277.562034 139.614978 
" style="fill:none;stroke:#808080;stroke-width:2;"/>
    <path clip-path="url(#pf01bb38142)" d="M 280.979561 128.900262 
L 280.979561 115.223231 
" style="fill:none;stroke:#808080;stroke-width:2;"/>
    <path clip-path="url(#pf01bb38142)" d="M 287.814615 127.45961 
L 287.814615 113.782578 
" style="fill:none;stroke:#808080;stroke-width:2;"/>
    <path clip-path="url(#pf01bb38142)" d="M 308.319776 132.918609 
L 308.319776 119.241577 
" style="fill:none;stroke:#808080;stroke-width:2;"/>
    <path clip-path="url(#pf01bb38142)" d="M 342.495045 145.077616 
L 342.495045 131.400584 
" style="fill:none;stroke:#808080;stroke-width:2;"/>
    <path clip-path="url(#pf01bb38142)" d="M 410.845583 158.177751 
L 410.845583 144.50072 
" style="fill:none;stroke:#808080;stroke-width:2;"/>
   </g>
   <g id="line2d_32">
    <path clip-path="url(#pf01bb38142)" d="M 274.144507 155.308229 
L 275.511518 153.899818 
L 277.562034 146.527453 
L 280.979561 120.490255 
L 287.814615 24.730078 
L 308.319776 32.924145 
L 342.495045 77.811767 
L 410.845583 129.834173 
" style="fill:none;stroke:#000000;stroke-dasharray:2,3.3;stroke-dashoffset:0;stroke-width:2;"/>
   </g>
   <g id="line2d_33">
    <g clip-path="url(#pf01bb38142)">
     <use style="stroke:#000000;" x="274.144507" xlink:href="#md1cd02b098" y="159.605145"/>
     <use style="stroke:#000000;" x="275.511518" xlink:href="#md1cd02b098" y="159.079525"/>
     <use style="stroke:#000000;" x="277.562034" xlink:href="#md1cd02b098" y="152.189349"/>
     <use style="stroke:#000000;" x="280.979561" xlink:href="#md1cd02b098" y="126.296932"/>
     <use style="stroke:#000000;" x="287.814615" xlink:href="#md1cd02b098" y="31.568594"/>
     <use style="stroke:#000000;" x="308.319776" xlink:href="#md1cd02b098" y="40.086706"/>
     <use style="stroke:#000000;" x="342.495045" xlink:href="#md1cd02b098" y="83.3414"/>
     <use style="stroke:#000000;" x="410.845583" xlink:href="#md1cd02b098" y="136.936049"/>
    </g>
   </g>
   <g id="line2d_34">
    <g clip-path="url(#pf01bb38142)">
     <use style="stroke:#000000;" x="274.144507" xlink:href="#md1cd02b098" y="145.928113"/>
     <use style="stroke:#000000;" x="275.511518" xlink:href="#md1cd02b098" y="145.402493"/>
     <use style="stroke:#000000;" x="277.562034" xlink:href="#md1cd02b098" y="138.512317"/>
     <use style="stroke:#000000;" x="280.979561" xlink:href="#md1cd02b098" y="112.6199"/>
     <use style="stroke:#000000;" x="287.814615" xlink:href="#md1cd02b098" y="17.891563"/>
     <use style="stroke:#000000;" x="308.319776" xlink:href="#md1cd02b098" y="26.409674"/>
     <use style="stroke:#000000;" x="342.495045" xlink:href="#md1cd02b098" y="69.664368"/>
     <use style="stroke:#000000;" x="410.845583" xlink:href="#md1cd02b098" y="123.259017"/>
    </g>
   </g>
   <g id="line2d_35">
    <path clip-path="url(#pf01bb38142)" d="M 274.144507 155.308229 
L 275.511518 153.900926 
L 277.562034 146.540671 
L 280.979561 122.051761 
L 287.814615 120.965342 
L 308.319776 126.667284 
L 342.495045 139.795909 
L 410.845583 153.150419 
" style="fill:none;stroke:#808080;stroke-dasharray:2,3.3;stroke-dashoffset:0;stroke-width:2;"/>
   </g>
   <g id="line2d_36">
    <defs>
     <path d="M 2 0 
L -2 -0 
" id="m65174171dc" style="stroke:#808080;"/>
    </defs>
    <g clip-path="url(#pf01bb38142)">
     <use style="fill:#808080;stroke:#808080;" x="274.144507" xlink:href="#m65174171dc" y="159.722813"/>
     <use style="fill:#808080;stroke:#808080;" x="275.511518" xlink:href="#m65174171dc" y="159.208209"/>
     <use style="fill:#808080;stroke:#808080;" x="277.562034" xlink:href="#m65174171dc" y="153.29201"/>
     <use style="fill:#808080;stroke:#808080;" x="280.979561" xlink:href="#m65174171dc" y="128.900262"/>
     <use style="fill:#808080;stroke:#808080;" x="287.814615" xlink:href="#m65174171dc" y="127.45961"/>
     <use style="fill:#808080;stroke:#808080;" x="308.319776" xlink:href="#m65174171dc" y="132.918609"/>
     <use style="fill:#808080;stroke:#808080;" x="342.495045" xlink:href="#m65174171dc" y="145.077616"/>
     <use style="fill:#808080;stroke:#808080;" x="410.845583" xlink:href="#m65174171dc" y="158.177751"/>
    </g>
   </g>
   <g id="line2d_37">
    <g clip-path="url(#pf01bb38142)">
     <use style="fill:#808080;stroke:#808080;" x="274.144507" xlink:href="#m65174171dc" y="146.045781"/>
     <use style="fill:#808080;stroke:#808080;" x="275.511518" xlink:href="#m65174171dc" y="145.531178"/>
     <use style="fill:#808080;stroke:#808080;" x="277.562034" xlink:href="#m65174171dc" y="139.614978"/>
     <use style="fill:#808080;stroke:#808080;" x="280.979561" xlink:href="#m65174171dc" y="115.223231"/>
     <use style="fill:#808080;stroke:#808080;" x="287.814615" xlink:href="#m65174171dc" y="113.782578"/>
     <use style="fill:#808080;stroke:#808080;" x="308.319776" xlink:href="#m65174171dc" y="119.241577"/>
     <use style="fill:#808080;stroke:#808080;" x="342.495045" xlink:href="#m65174171dc" y="131.400584"/>
     <use style="fill:#808080;stroke:#808080;" x="410.845583" xlink:href="#m65174171dc" y="144.50072"/>
    </g>
   </g>
   <g id="line2d_38">
    <g clip-path="url(#pf01bb38142)">
     <use style="fill-opacity:0;stroke:#000000;" x="274.144507" xlink:href="#me92ad5e535" y="152.766629"/>
     <use style="fill-opacity:0;stroke:#000000;" x="275.511518" xlink:href="#me92ad5e535" y="152.241009"/>
     <use style="fill-opacity:0;stroke:#000000;" x="277.562034" xlink:href="#me92ad5e535" y="145.350833"/>
     <use style="fill-opacity:0;stroke:#000000;" x="280.979561" xlink:href="#me92ad5e535" y="119.458416"/>
     <use style="fill-opacity:0;stroke:#000000;" x="287.814615" xlink:href="#me92ad5e535" y="24.730078"/>
     <use style="fill-opacity:0;stroke:#000000;" x="308.319776" xlink:href="#me92ad5e535" y="33.24819"/>
     <use style="fill-opacity:0;stroke:#000000;" x="342.495045" xlink:href="#me92ad5e535" y="76.502884"/>
     <use style="fill-opacity:0;stroke:#000000;" x="410.845583" xlink:href="#me92ad5e535" y="130.097533"/>
    </g>
   </g>
   <g id="line2d_39">
    <defs>
     <path d="M 0 3 
C 0.795609 3 1.55874 2.683901 2.12132 2.12132 
C 2.683901 1.55874 3 0.795609 3 0 
C 3 -0.795609 2.683901 -1.55874 2.12132 -2.12132 
C 1.55874 -2.683901 0.795609 -3 0 -3 
C -0.795609 -3 -1.55874 -2.683901 -2.12132 -2.12132 
C -2.683901 -1.55874 -3 -0.795609 -3 0 
C -3 0.795609 -2.683901 1.55874 -2.12132 2.12132 
C -1.55874 2.683901 -0.795609 3 0 3 
z
" id="m8e1a6ce17d" style="stroke:#808080;"/>
    </defs>
    <g clip-path="url(#pf01bb38142)">
     <use style="fill-opacity:0;stroke:#808080;" x="274.144507" xlink:href="#m8e1a6ce17d" y="152.884297"/>
     <use style="fill-opacity:0;stroke:#808080;" x="275.511518" xlink:href="#m8e1a6ce17d" y="152.369694"/>
     <use style="fill-opacity:0;stroke:#808080;" x="277.562034" xlink:href="#m8e1a6ce17d" y="146.453494"/>
     <use style="fill-opacity:0;stroke:#808080;" x="280.979561" xlink:href="#m8e1a6ce17d" y="122.061746"/>
     <use style="fill-opacity:0;stroke:#808080;" x="287.814615" xlink:href="#m8e1a6ce17d" y="120.621094"/>
     <use style="fill-opacity:0;stroke:#808080;" x="308.319776" xlink:href="#m8e1a6ce17d" y="126.080093"/>
     <use style="fill-opacity:0;stroke:#808080;" x="342.495045" xlink:href="#m8e1a6ce17d" y="138.2391"/>
     <use style="fill-opacity:0;stroke:#808080;" x="410.845583" xlink:href="#m8e1a6ce17d" y="151.339236"/>
    </g>
   </g>
   <g id="patch_7">
    <path d="M 267.309453 166.814375 
L 267.309453 10.8 
" style="fill:none;stroke:#000000;stroke-linecap:square;stroke-linejoin:miter;stroke-width:0.8;"/>
   </g>
   <g id="patch_8">
    <path d="M 267.309453 166.814375 
L 417.680637 166.814375 
" style="fill:none;stroke:#000000;stroke-linecap:square;stroke-linejoin:miter;stroke-width:0.8;"/>
   </g>
   <g id="legend_2">
    <g id="patch_9">
     <path d="M 334.447824 48.3125 
L 410.680637 48.3125 
Q 412.680637 48.3125 412.680637 46.3125 
L 412.680637 17.8 
Q 412.680637 15.8 410.680637 15.8 
L 334.447824 15.8 
Q 332.447824 15.8 332.447824 17.8 
L 332.447824 46.3125 
Q 332.447824 48.3125 334.447824 48.3125 
z
" style="fill:#ffffff;opacity:0.8;stroke:#cccccc;stroke-linejoin:miter;"/>
    </g>
    <g id="line2d_40">
     <path d="M 336.447824 23.898438 
L 356.447824 23.898438 
" style="fill:none;stroke:#000000;stroke-dasharray:2,3.3;stroke-dashoffset:0;stroke-width:2;"/>
    </g>
    <g id="line2d_41"/>
    <g id="text_28">
     <!-- 20ngAD -->
     <defs>
      <path d="M 53.421875 13.28125 
L 24.03125 13.28125 
L 19.390625 0 
L 0.484375 0 
L 27.484375 72.90625 
L 49.90625 72.90625 
L 76.90625 0 
L 58.015625 0 
z
M 28.71875 26.8125 
L 48.6875 26.8125 
L 38.71875 55.8125 
z
" id="DejaVuSans-Bold-65"/>
     </defs>
     <g transform="translate(364.447824 27.398438)scale(0.1 -0.1)">
      <use xlink:href="#DejaVuSans-Bold-50"/>
      <use x="69.580078" xlink:href="#DejaVuSans-Bold-48"/>
      <use x="139.160156" xlink:href="#DejaVuSans-Bold-110"/>
      <use x="210.351562" xlink:href="#DejaVuSans-Bold-103"/>
      <use x="281.933594" xlink:href="#DejaVuSans-Bold-65"/>
      <use x="359.326172" xlink:href="#DejaVuSans-Bold-68"/>
     </g>
    </g>
    <g id="line2d_42">
     <path d="M 336.447824 38.654688 
L 356.447824 38.654688 
" style="fill:none;stroke:#808080;stroke-dasharray:2,3.3;stroke-dashoffset:0;stroke-width:2;"/>
    </g>
    <g id="line2d_43"/>
    <g id="text_29">
     <!-- 10ngAD -->
     <g transform="translate(364.447824 42.154688)scale(0.1 -0.1)">
      <use xlink:href="#DejaVuSans-Bold-49"/>
      <use x="69.580078" xlink:href="#DejaVuSans-Bold-48"/>
      <use x="139.160156" xlink:href="#DejaVuSans-Bold-110"/>
      <use x="210.351562" xlink:href="#DejaVuSans-Bold-103"/>
      <use x="281.933594" xlink:href="#DejaVuSans-Bold-65"/>
      <use x="359.326172" xlink:href="#DejaVuSans-Bold-68"/>
     </g>
    </g>
   </g>
  </g>
 </g>
 <defs>
  <clipPath id="p6b7a13fe7a">
   <rect height="156.014375" width="150.371183" x="57.127813" y="10.8"/>
  </clipPath>
  <clipPath id="pf01bb38142">
   <rect height="156.014375" width="150.371183" x="267.309453" y="10.8"/>
  </clipPath>
 </defs>
</svg>
