<?xml version="1.0" encoding="utf-8" standalone="no"?>
<!DOCTYPE svg PUBLIC "-//W3C//DTD SVG 1.1//EN"
  "http://www.w3.org/Graphics/SVG/1.1/DTD/svg11.dtd">
<svg xmlns:xlink="http://www.w3.org/1999/xlink" width="396pt" height="288pt" viewBox="0 0 396 288" xmlns="http://www.w3.org/2000/svg" version="1.1">
 <metadata>
  <rdf:RDF xmlns:dc="http://purl.org/dc/elements/1.1/" xmlns:cc="http://creativecommons.org/ns#" xmlns:rdf="http://www.w3.org/1999/02/22-rdf-syntax-ns#">
   <cc:Work>
    <dc:type rdf:resource="http://purl.org/dc/dcmitype/StillImage"/>
    <dc:date>2023-09-29T17:57:00.550533</dc:date>
    <dc:format>image/svg+xml</dc:format>
    <dc:creator>
     <cc:Agent>
      <dc:title>Matplotlib v3.5.2, https://matplotlib.org/</dc:title>
     </cc:Agent>
    </dc:creator>
   </cc:Work>
  </rdf:RDF>
 </metadata>
 <defs>
  <style type="text/css">*{stroke-linejoin: round; stroke-linecap: butt}</style>
 </defs>
 <g id="figure_1">
  <g id="patch_1">
   <path d="M 0 288 
L 396 288 
L 396 0 
L 0 0 
z
" style="fill: #ffffff"/>
  </g>
  <g id="axes_1">
   <g id="patch_2">
    <path d="M 49.5 256.32 
L 356.4 256.32 
L 356.4 34.56 
L 49.5 34.56 
z
" style="fill: #ffffff"/>
   </g>
   <g id="patch_3">
    <path d="M 52.569 79.626475 
L 77.121 79.626475 
L 77.121 76.498389 
L 52.569 76.498389 
L 52.569 79.626475 
z
" clip-path="url(#p8130aab292)" style="fill: #808080; stroke: #4d4d4d; stroke-width: 1.5; stroke-linejoin: miter"/>
   </g>
   <g id="patch_4">
    <path d="M 83.259 70.866756 
L 107.811 70.866756 
L 107.811 47.109706 
L 83.259 47.109706 
L 83.259 70.866756 
z
" clip-path="url(#p8130aab292)" style="fill: #808080; stroke: #4d4d4d; stroke-width: 1.5; stroke-linejoin: miter"/>
   </g>
   <g id="patch_5">
    <path d="M 113.949 121.426373 
L 138.501 121.426373 
L 138.501 117.300289 
L 113.949 117.300289 
L 113.949 121.426373 
z
" clip-path="url(#p8130aab292)" style="fill: #808080; stroke: #4d4d4d; stroke-width: 1.5; stroke-linejoin: miter"/>
   </g>
   <g id="patch_6">
    <path d="M 144.639 132.674005 
L 169.191 132.674005 
L 169.191 107.285185 
L 144.639 107.285185 
L 144.639 132.674005 
z
" clip-path="url(#p8130aab292)" style="fill: #808080; stroke: #4d4d4d; stroke-width: 1.5; stroke-linejoin: miter"/>
   </g>
   <g id="patch_7">
    <path d="M 175.329 146.856151 
L 199.881 146.856151 
L 199.881 146.050249 
L 175.329 146.050249 
L 175.329 146.856151 
z
" clip-path="url(#p8130aab292)" style="fill: #808080; stroke: #4d4d4d; stroke-width: 1.5; stroke-linejoin: miter"/>
   </g>
   <g id="patch_8">
    <path d="M 206.019 129.097487 
L 230.571 129.097487 
L 230.571 78.247364 
L 206.019 78.247364 
L 206.019 129.097487 
z
" clip-path="url(#p8130aab292)" style="fill: #808080; stroke: #4d4d4d; stroke-width: 1.5; stroke-linejoin: miter"/>
   </g>
   <g id="patch_9">
    <path d="M 236.709 230.040695 
L 261.261 230.040695 
L 261.261 158.170436 
L 236.709 158.170436 
L 236.709 230.040695 
z
" clip-path="url(#p8130aab292)" style="fill: #808080; stroke: #4d4d4d; stroke-width: 1.5; stroke-linejoin: miter"/>
   </g>
   <g id="patch_10">
    <path d="M 267.399 162.675416 
L 291.951 162.675416 
L 291.951 143.259259 
L 267.399 143.259259 
L 267.399 162.675416 
z
" clip-path="url(#p8130aab292)" style="fill: #808080; stroke: #4d4d4d; stroke-width: 1.5; stroke-linejoin: miter"/>
   </g>
   <g id="patch_11">
    <path d="M 298.089 111.08867 
L 322.641 111.08867 
L 322.641 102.832425 
L 298.089 102.832425 
L 298.089 111.08867 
z
" clip-path="url(#p8130aab292)" style="fill: #808080; stroke: #4d4d4d; stroke-width: 1.5; stroke-linejoin: miter"/>
   </g>
   <g id="patch_12">
    <path d="M 328.779 82.251327 
L 353.331 82.251327 
L 353.331 74.940712 
L 328.779 74.940712 
L 328.779 82.251327 
z
" clip-path="url(#p8130aab292)" style="fill: #808080; stroke: #4d4d4d; stroke-width: 1.5; stroke-linejoin: miter"/>
   </g>
   <g id="matplotlib.axis_1">
    <g id="xtick_1">
     <g id="line2d_1">
      <defs>
       <path id="ma584afb540" d="M 0 0 
L 0 3.5 
" style="stroke: #000000; stroke-width: 0.8"/>
      </defs>
      <g>
       <use xlink:href="#ma584afb540" x="64.845" y="256.32" style="stroke: #000000; stroke-width: 0.8"/>
      </g>
     </g>
     <g id="text_1">
      <!-- t_HAF* -->
      <g transform="translate(47.828594 270.741875)scale(0.1 -0.1)">
       <defs>
        <path id="DejaVuSans-74" d="M 1172 4494 
L 1172 3500 
L 2356 3500 
L 2356 3053 
L 1172 3053 
L 1172 1153 
Q 1172 725 1289 603 
Q 1406 481 1766 481 
L 2356 481 
L 2356 0 
L 1766 0 
Q 1100 0 847 248 
Q 594 497 594 1153 
L 594 3053 
L 172 3053 
L 172 3500 
L 594 3500 
L 594 4494 
L 1172 4494 
z
" transform="scale(0.015625)"/>
        <path id="DejaVuSans-5f" d="M 3263 -1063 
L 3263 -1509 
L -63 -1509 
L -63 -1063 
L 3263 -1063 
z
" transform="scale(0.015625)"/>
        <path id="DejaVuSans-48" d="M 628 4666 
L 1259 4666 
L 1259 2753 
L 3553 2753 
L 3553 4666 
L 4184 4666 
L 4184 0 
L 3553 0 
L 3553 2222 
L 1259 2222 
L 1259 0 
L 628 0 
L 628 4666 
z
" transform="scale(0.015625)"/>
        <path id="DejaVuSans-41" d="M 2188 4044 
L 1331 1722 
L 3047 1722 
L 2188 4044 
z
M 1831 4666 
L 2547 4666 
L 4325 0 
L 3669 0 
L 3244 1197 
L 1141 1197 
L 716 0 
L 50 0 
L 1831 4666 
z
" transform="scale(0.015625)"/>
        <path id="DejaVuSans-46" d="M 628 4666 
L 3309 4666 
L 3309 4134 
L 1259 4134 
L 1259 2759 
L 3109 2759 
L 3109 2228 
L 1259 2228 
L 1259 0 
L 628 0 
L 628 4666 
z
" transform="scale(0.015625)"/>
        <path id="DejaVuSans-2a" d="M 3009 3897 
L 1888 3291 
L 3009 2681 
L 2828 2375 
L 1778 3009 
L 1778 1831 
L 1422 1831 
L 1422 3009 
L 372 2375 
L 191 2681 
L 1313 3291 
L 191 3897 
L 372 4206 
L 1422 3572 
L 1422 4750 
L 1778 4750 
L 1778 3572 
L 2828 4206 
L 3009 3897 
z
" transform="scale(0.015625)"/>
       </defs>
       <use xlink:href="#DejaVuSans-74"/>
       <use xlink:href="#DejaVuSans-5f" x="39.208984"/>
       <use xlink:href="#DejaVuSans-48" x="89.208984"/>
       <use xlink:href="#DejaVuSans-41" x="164.404297"/>
       <use xlink:href="#DejaVuSans-46" x="232.8125"/>
       <use xlink:href="#DejaVuSans-2a" x="290.332031"/>
      </g>
     </g>
    </g>
    <g id="xtick_2">
     <g id="line2d_2">
      <g>
       <use xlink:href="#ma584afb540" x="95.535" y="256.32" style="stroke: #000000; stroke-width: 0.8"/>
      </g>
     </g>
     <g id="text_2">
      <!-- k_txn2* -->
      <g transform="translate(76.370156 270.918437)scale(0.1 -0.1)">
       <defs>
        <path id="DejaVuSans-6b" d="M 581 4863 
L 1159 4863 
L 1159 1991 
L 2875 3500 
L 3609 3500 
L 1753 1863 
L 3688 0 
L 2938 0 
L 1159 1709 
L 1159 0 
L 581 0 
L 581 4863 
z
" transform="scale(0.015625)"/>
        <path id="DejaVuSans-78" d="M 3513 3500 
L 2247 1797 
L 3578 0 
L 2900 0 
L 1881 1375 
L 863 0 
L 184 0 
L 1544 1831 
L 300 3500 
L 978 3500 
L 1906 2253 
L 2834 3500 
L 3513 3500 
z
" transform="scale(0.015625)"/>
        <path id="DejaVuSans-6e" d="M 3513 2113 
L 3513 0 
L 2938 0 
L 2938 2094 
Q 2938 2591 2744 2837 
Q 2550 3084 2163 3084 
Q 1697 3084 1428 2787 
Q 1159 2491 1159 1978 
L 1159 0 
L 581 0 
L 581 3500 
L 1159 3500 
L 1159 2956 
Q 1366 3272 1645 3428 
Q 1925 3584 2291 3584 
Q 2894 3584 3203 3211 
Q 3513 2838 3513 2113 
z
" transform="scale(0.015625)"/>
        <path id="DejaVuSans-32" d="M 1228 531 
L 3431 531 
L 3431 0 
L 469 0 
L 469 531 
Q 828 903 1448 1529 
Q 2069 2156 2228 2338 
Q 2531 2678 2651 2914 
Q 2772 3150 2772 3378 
Q 2772 3750 2511 3984 
Q 2250 4219 1831 4219 
Q 1534 4219 1204 4116 
Q 875 4013 500 3803 
L 500 4441 
Q 881 4594 1212 4672 
Q 1544 4750 1819 4750 
Q 2544 4750 2975 4387 
Q 3406 4025 3406 3419 
Q 3406 3131 3298 2873 
Q 3191 2616 2906 2266 
Q 2828 2175 2409 1742 
Q 1991 1309 1228 531 
z
" transform="scale(0.015625)"/>
       </defs>
       <use xlink:href="#DejaVuSans-6b"/>
       <use xlink:href="#DejaVuSans-5f" x="57.910156"/>
       <use xlink:href="#DejaVuSans-74" x="107.910156"/>
       <use xlink:href="#DejaVuSans-78" x="147.119141"/>
       <use xlink:href="#DejaVuSans-6e" x="206.298828"/>
       <use xlink:href="#DejaVuSans-32" x="269.677734"/>
       <use xlink:href="#DejaVuSans-2a" x="333.300781"/>
      </g>
     </g>
    </g>
    <g id="xtick_3">
     <g id="line2d_3">
      <g>
       <use xlink:href="#ma584afb540" x="126.225" y="256.32" style="stroke: #000000; stroke-width: 0.8"/>
      </g>
     </g>
     <g id="text_3">
      <!-- k_dHAF* -->
      <g transform="translate(105.099219 270.918437)scale(0.1 -0.1)">
       <defs>
        <path id="DejaVuSans-64" d="M 2906 2969 
L 2906 4863 
L 3481 4863 
L 3481 0 
L 2906 0 
L 2906 525 
Q 2725 213 2448 61 
Q 2172 -91 1784 -91 
Q 1150 -91 751 415 
Q 353 922 353 1747 
Q 353 2572 751 3078 
Q 1150 3584 1784 3584 
Q 2172 3584 2448 3432 
Q 2725 3281 2906 2969 
z
M 947 1747 
Q 947 1113 1208 752 
Q 1469 391 1925 391 
Q 2381 391 2643 752 
Q 2906 1113 2906 1747 
Q 2906 2381 2643 2742 
Q 2381 3103 1925 3103 
Q 1469 3103 1208 2742 
Q 947 2381 947 1747 
z
" transform="scale(0.015625)"/>
       </defs>
       <use xlink:href="#DejaVuSans-6b"/>
       <use xlink:href="#DejaVuSans-5f" x="57.910156"/>
       <use xlink:href="#DejaVuSans-64" x="107.910156"/>
       <use xlink:href="#DejaVuSans-48" x="171.386719"/>
       <use xlink:href="#DejaVuSans-41" x="246.582031"/>
       <use xlink:href="#DejaVuSans-46" x="314.990234"/>
       <use xlink:href="#DejaVuSans-2a" x="372.509766"/>
      </g>
     </g>
    </g>
    <g id="xtick_4">
     <g id="line2d_4">
      <g>
       <use xlink:href="#ma584afb540" x="156.915" y="256.32" style="stroke: #000000; stroke-width: 0.8"/>
      </g>
     </g>
     <g id="text_4">
      <!-- k_bHS* -->
      <g transform="translate(138.911094 270.918437)scale(0.1 -0.1)">
       <defs>
        <path id="DejaVuSans-62" d="M 3116 1747 
Q 3116 2381 2855 2742 
Q 2594 3103 2138 3103 
Q 1681 3103 1420 2742 
Q 1159 2381 1159 1747 
Q 1159 1113 1420 752 
Q 1681 391 2138 391 
Q 2594 391 2855 752 
Q 3116 1113 3116 1747 
z
M 1159 2969 
Q 1341 3281 1617 3432 
Q 1894 3584 2278 3584 
Q 2916 3584 3314 3078 
Q 3713 2572 3713 1747 
Q 3713 922 3314 415 
Q 2916 -91 2278 -91 
Q 1894 -91 1617 61 
Q 1341 213 1159 525 
L 1159 0 
L 581 0 
L 581 4863 
L 1159 4863 
L 1159 2969 
z
" transform="scale(0.015625)"/>
        <path id="DejaVuSans-53" d="M 3425 4513 
L 3425 3897 
Q 3066 4069 2747 4153 
Q 2428 4238 2131 4238 
Q 1616 4238 1336 4038 
Q 1056 3838 1056 3469 
Q 1056 3159 1242 3001 
Q 1428 2844 1947 2747 
L 2328 2669 
Q 3034 2534 3370 2195 
Q 3706 1856 3706 1288 
Q 3706 609 3251 259 
Q 2797 -91 1919 -91 
Q 1588 -91 1214 -16 
Q 841 59 441 206 
L 441 856 
Q 825 641 1194 531 
Q 1563 422 1919 422 
Q 2459 422 2753 634 
Q 3047 847 3047 1241 
Q 3047 1584 2836 1778 
Q 2625 1972 2144 2069 
L 1759 2144 
Q 1053 2284 737 2584 
Q 422 2884 422 3419 
Q 422 4038 858 4394 
Q 1294 4750 2059 4750 
Q 2388 4750 2728 4690 
Q 3069 4631 3425 4513 
z
" transform="scale(0.015625)"/>
       </defs>
       <use xlink:href="#DejaVuSans-6b"/>
       <use xlink:href="#DejaVuSans-5f" x="57.910156"/>
       <use xlink:href="#DejaVuSans-62" x="107.910156"/>
       <use xlink:href="#DejaVuSans-48" x="171.386719"/>
       <use xlink:href="#DejaVuSans-53" x="246.582031"/>
       <use xlink:href="#DejaVuSans-2a" x="310.058594"/>
      </g>
     </g>
    </g>
    <g id="xtick_5">
     <g id="line2d_5">
      <g>
       <use xlink:href="#ma584afb540" x="187.605" y="256.32" style="stroke: #000000; stroke-width: 0.8"/>
      </g>
     </g>
     <g id="text_5">
      <!-- k_bHH* -->
      <g transform="translate(169.015156 270.918437)scale(0.1 -0.1)">
       <use xlink:href="#DejaVuSans-6b"/>
       <use xlink:href="#DejaVuSans-5f" x="57.910156"/>
       <use xlink:href="#DejaVuSans-62" x="107.910156"/>
       <use xlink:href="#DejaVuSans-48" x="171.386719"/>
       <use xlink:href="#DejaVuSans-48" x="246.582031"/>
       <use xlink:href="#DejaVuSans-2a" x="321.777344"/>
      </g>
     </g>
    </g>
    <g id="xtick_6">
     <g id="line2d_6">
      <g>
       <use xlink:href="#ma584afb540" x="218.295" y="256.32" style="stroke: #000000; stroke-width: 0.8"/>
      </g>
     </g>
     <g id="text_6">
      <!-- k_txnH* -->
      <g transform="translate(198.55125 270.918437)scale(0.1 -0.1)">
       <use xlink:href="#DejaVuSans-6b"/>
       <use xlink:href="#DejaVuSans-5f" x="57.910156"/>
       <use xlink:href="#DejaVuSans-74" x="107.910156"/>
       <use xlink:href="#DejaVuSans-78" x="147.119141"/>
       <use xlink:href="#DejaVuSans-6e" x="206.298828"/>
       <use xlink:href="#DejaVuSans-48" x="269.677734"/>
       <use xlink:href="#DejaVuSans-2a" x="344.873047"/>
      </g>
     </g>
    </g>
    <g id="xtick_7">
     <g id="line2d_7">
      <g>
       <use xlink:href="#ma584afb540" x="248.985" y="256.32" style="stroke: #000000; stroke-width: 0.8"/>
      </g>
     </g>
     <g id="text_7">
      <!-- k_dH1R* -->
      <g transform="translate(227.499844 270.918437)scale(0.1 -0.1)">
       <defs>
        <path id="DejaVuSans-31" d="M 794 531 
L 1825 531 
L 1825 4091 
L 703 3866 
L 703 4441 
L 1819 4666 
L 2450 4666 
L 2450 531 
L 3481 531 
L 3481 0 
L 794 0 
L 794 531 
z
" transform="scale(0.015625)"/>
        <path id="DejaVuSans-52" d="M 2841 2188 
Q 3044 2119 3236 1894 
Q 3428 1669 3622 1275 
L 4263 0 
L 3584 0 
L 2988 1197 
Q 2756 1666 2539 1819 
Q 2322 1972 1947 1972 
L 1259 1972 
L 1259 0 
L 628 0 
L 628 4666 
L 2053 4666 
Q 2853 4666 3247 4331 
Q 3641 3997 3641 3322 
Q 3641 2881 3436 2590 
Q 3231 2300 2841 2188 
z
M 1259 4147 
L 1259 2491 
L 2053 2491 
Q 2509 2491 2742 2702 
Q 2975 2913 2975 3322 
Q 2975 3731 2742 3939 
Q 2509 4147 2053 4147 
L 1259 4147 
z
" transform="scale(0.015625)"/>
       </defs>
       <use xlink:href="#DejaVuSans-6b"/>
       <use xlink:href="#DejaVuSans-5f" x="57.910156"/>
       <use xlink:href="#DejaVuSans-64" x="107.910156"/>
       <use xlink:href="#DejaVuSans-48" x="171.386719"/>
       <use xlink:href="#DejaVuSans-31" x="246.582031"/>
       <use xlink:href="#DejaVuSans-52" x="310.205078"/>
       <use xlink:href="#DejaVuSans-2a" x="379.6875"/>
      </g>
     </g>
    </g>
    <g id="xtick_8">
     <g id="line2d_8">
      <g>
       <use xlink:href="#ma584afb540" x="279.675" y="256.32" style="stroke: #000000; stroke-width: 0.8"/>
      </g>
     </g>
     <g id="text_8">
      <!-- k_dH1P* -->
      <g transform="translate(258.649219 270.918437)scale(0.1 -0.1)">
       <defs>
        <path id="DejaVuSans-50" d="M 1259 4147 
L 1259 2394 
L 2053 2394 
Q 2494 2394 2734 2622 
Q 2975 2850 2975 3272 
Q 2975 3691 2734 3919 
Q 2494 4147 2053 4147 
L 1259 4147 
z
M 628 4666 
L 2053 4666 
Q 2838 4666 3239 4311 
Q 3641 3956 3641 3272 
Q 3641 2581 3239 2228 
Q 2838 1875 2053 1875 
L 1259 1875 
L 1259 0 
L 628 0 
L 628 4666 
z
" transform="scale(0.015625)"/>
       </defs>
       <use xlink:href="#DejaVuSans-6b"/>
       <use xlink:href="#DejaVuSans-5f" x="57.910156"/>
       <use xlink:href="#DejaVuSans-64" x="107.910156"/>
       <use xlink:href="#DejaVuSans-48" x="171.386719"/>
       <use xlink:href="#DejaVuSans-31" x="246.582031"/>
       <use xlink:href="#DejaVuSans-50" x="310.205078"/>
       <use xlink:href="#DejaVuSans-2a" x="370.507812"/>
      </g>
     </g>
    </g>
    <g id="xtick_9">
     <g id="line2d_9">
      <g>
       <use xlink:href="#ma584afb540" x="310.365" y="256.32" style="stroke: #000000; stroke-width: 0.8"/>
      </g>
     </g>
     <g id="text_9">
      <!-- k_dHP* -->
      <g transform="translate(292.520469 270.918437)scale(0.1 -0.1)">
       <use xlink:href="#DejaVuSans-6b"/>
       <use xlink:href="#DejaVuSans-5f" x="57.910156"/>
       <use xlink:href="#DejaVuSans-64" x="107.910156"/>
       <use xlink:href="#DejaVuSans-48" x="171.386719"/>
       <use xlink:href="#DejaVuSans-50" x="246.582031"/>
       <use xlink:href="#DejaVuSans-2a" x="306.884766"/>
      </g>
     </g>
    </g>
    <g id="xtick_10">
     <g id="line2d_10">
      <g>
       <use xlink:href="#ma584afb540" x="341.055" y="256.32" style="stroke: #000000; stroke-width: 0.8"/>
      </g>
     </g>
     <g id="text_10">
      <!-- k_txnBH* -->
      <g transform="translate(317.880781 270.918437)scale(0.1 -0.1)">
       <defs>
        <path id="DejaVuSans-42" d="M 1259 2228 
L 1259 519 
L 2272 519 
Q 2781 519 3026 730 
Q 3272 941 3272 1375 
Q 3272 1813 3026 2020 
Q 2781 2228 2272 2228 
L 1259 2228 
z
M 1259 4147 
L 1259 2741 
L 2194 2741 
Q 2656 2741 2882 2914 
Q 3109 3088 3109 3444 
Q 3109 3797 2882 3972 
Q 2656 4147 2194 4147 
L 1259 4147 
z
M 628 4666 
L 2241 4666 
Q 2963 4666 3353 4366 
Q 3744 4066 3744 3513 
Q 3744 3084 3544 2831 
Q 3344 2578 2956 2516 
Q 3422 2416 3680 2098 
Q 3938 1781 3938 1306 
Q 3938 681 3513 340 
Q 3088 0 2303 0 
L 628 0 
L 628 4666 
z
" transform="scale(0.015625)"/>
       </defs>
       <use xlink:href="#DejaVuSans-6b"/>
       <use xlink:href="#DejaVuSans-5f" x="57.910156"/>
       <use xlink:href="#DejaVuSans-74" x="107.910156"/>
       <use xlink:href="#DejaVuSans-78" x="147.119141"/>
       <use xlink:href="#DejaVuSans-6e" x="206.298828"/>
       <use xlink:href="#DejaVuSans-42" x="269.677734"/>
       <use xlink:href="#DejaVuSans-48" x="338.28125"/>
       <use xlink:href="#DejaVuSans-2a" x="413.476562"/>
      </g>
     </g>
    </g>
    <g id="text_11">
     <!-- Parameter -->
     <g transform="translate(176.9375 284.874687)scale(0.1 -0.1)">
      <defs>
       <path id="DejaVuSans-61" d="M 2194 1759 
Q 1497 1759 1228 1600 
Q 959 1441 959 1056 
Q 959 750 1161 570 
Q 1363 391 1709 391 
Q 2188 391 2477 730 
Q 2766 1069 2766 1631 
L 2766 1759 
L 2194 1759 
z
M 3341 1997 
L 3341 0 
L 2766 0 
L 2766 531 
Q 2569 213 2275 61 
Q 1981 -91 1556 -91 
Q 1019 -91 701 211 
Q 384 513 384 1019 
Q 384 1609 779 1909 
Q 1175 2209 1959 2209 
L 2766 2209 
L 2766 2266 
Q 2766 2663 2505 2880 
Q 2244 3097 1772 3097 
Q 1472 3097 1187 3025 
Q 903 2953 641 2809 
L 641 3341 
Q 956 3463 1253 3523 
Q 1550 3584 1831 3584 
Q 2591 3584 2966 3190 
Q 3341 2797 3341 1997 
z
" transform="scale(0.015625)"/>
       <path id="DejaVuSans-72" d="M 2631 2963 
Q 2534 3019 2420 3045 
Q 2306 3072 2169 3072 
Q 1681 3072 1420 2755 
Q 1159 2438 1159 1844 
L 1159 0 
L 581 0 
L 581 3500 
L 1159 3500 
L 1159 2956 
Q 1341 3275 1631 3429 
Q 1922 3584 2338 3584 
Q 2397 3584 2469 3576 
Q 2541 3569 2628 3553 
L 2631 2963 
z
" transform="scale(0.015625)"/>
       <path id="DejaVuSans-6d" d="M 3328 2828 
Q 3544 3216 3844 3400 
Q 4144 3584 4550 3584 
Q 5097 3584 5394 3201 
Q 5691 2819 5691 2113 
L 5691 0 
L 5113 0 
L 5113 2094 
Q 5113 2597 4934 2840 
Q 4756 3084 4391 3084 
Q 3944 3084 3684 2787 
Q 3425 2491 3425 1978 
L 3425 0 
L 2847 0 
L 2847 2094 
Q 2847 2600 2669 2842 
Q 2491 3084 2119 3084 
Q 1678 3084 1418 2786 
Q 1159 2488 1159 1978 
L 1159 0 
L 581 0 
L 581 3500 
L 1159 3500 
L 1159 2956 
Q 1356 3278 1631 3431 
Q 1906 3584 2284 3584 
Q 2666 3584 2933 3390 
Q 3200 3197 3328 2828 
z
" transform="scale(0.015625)"/>
       <path id="DejaVuSans-65" d="M 3597 1894 
L 3597 1613 
L 953 1613 
Q 991 1019 1311 708 
Q 1631 397 2203 397 
Q 2534 397 2845 478 
Q 3156 559 3463 722 
L 3463 178 
Q 3153 47 2828 -22 
Q 2503 -91 2169 -91 
Q 1331 -91 842 396 
Q 353 884 353 1716 
Q 353 2575 817 3079 
Q 1281 3584 2069 3584 
Q 2775 3584 3186 3129 
Q 3597 2675 3597 1894 
z
M 3022 2063 
Q 3016 2534 2758 2815 
Q 2500 3097 2075 3097 
Q 1594 3097 1305 2825 
Q 1016 2553 972 2059 
L 3022 2063 
z
" transform="scale(0.015625)"/>
      </defs>
      <use xlink:href="#DejaVuSans-50"/>
      <use xlink:href="#DejaVuSans-61" x="55.802734"/>
      <use xlink:href="#DejaVuSans-72" x="117.082031"/>
      <use xlink:href="#DejaVuSans-61" x="158.195312"/>
      <use xlink:href="#DejaVuSans-6d" x="219.474609"/>
      <use xlink:href="#DejaVuSans-65" x="316.886719"/>
      <use xlink:href="#DejaVuSans-74" x="378.410156"/>
      <use xlink:href="#DejaVuSans-65" x="417.619141"/>
      <use xlink:href="#DejaVuSans-72" x="479.142578"/>
     </g>
    </g>
   </g>
   <g id="matplotlib.axis_2">
    <g id="ytick_1">
     <g id="line2d_11">
      <defs>
       <path id="mf805621af8" d="M 0 0 
L -3.5 0 
" style="stroke: #000000; stroke-width: 0.8"/>
      </defs>
      <g>
       <use xlink:href="#mf805621af8" x="49.5" y="247.481364" style="stroke: #000000; stroke-width: 0.8"/>
      </g>
     </g>
     <g id="text_12">
      <!-- −4 -->
      <g transform="translate(27.757812 251.280583)scale(0.1 -0.1)">
       <defs>
        <path id="DejaVuSans-2212" d="M 678 2272 
L 4684 2272 
L 4684 1741 
L 678 1741 
L 678 2272 
z
" transform="scale(0.015625)"/>
        <path id="DejaVuSans-34" d="M 2419 4116 
L 825 1625 
L 2419 1625 
L 2419 4116 
z
M 2253 4666 
L 3047 4666 
L 3047 1625 
L 3713 1625 
L 3713 1100 
L 3047 1100 
L 3047 0 
L 2419 0 
L 2419 1100 
L 313 1100 
L 313 1709 
L 2253 4666 
z
" transform="scale(0.015625)"/>
       </defs>
       <use xlink:href="#DejaVuSans-2212"/>
       <use xlink:href="#DejaVuSans-34" x="83.789062"/>
      </g>
     </g>
    </g>
    <g id="ytick_2">
     <g id="line2d_12">
      <g>
       <use xlink:href="#mf805621af8" x="49.5" y="217.928035" style="stroke: #000000; stroke-width: 0.8"/>
      </g>
     </g>
     <g id="text_13">
      <!-- −3 -->
      <g transform="translate(27.757812 221.727253)scale(0.1 -0.1)">
       <defs>
        <path id="DejaVuSans-33" d="M 2597 2516 
Q 3050 2419 3304 2112 
Q 3559 1806 3559 1356 
Q 3559 666 3084 287 
Q 2609 -91 1734 -91 
Q 1441 -91 1130 -33 
Q 819 25 488 141 
L 488 750 
Q 750 597 1062 519 
Q 1375 441 1716 441 
Q 2309 441 2620 675 
Q 2931 909 2931 1356 
Q 2931 1769 2642 2001 
Q 2353 2234 1838 2234 
L 1294 2234 
L 1294 2753 
L 1863 2753 
Q 2328 2753 2575 2939 
Q 2822 3125 2822 3475 
Q 2822 3834 2567 4026 
Q 2313 4219 1838 4219 
Q 1578 4219 1281 4162 
Q 984 4106 628 3988 
L 628 4550 
Q 988 4650 1302 4700 
Q 1616 4750 1894 4750 
Q 2613 4750 3031 4423 
Q 3450 4097 3450 3541 
Q 3450 3153 3228 2886 
Q 3006 2619 2597 2516 
z
" transform="scale(0.015625)"/>
       </defs>
       <use xlink:href="#DejaVuSans-2212"/>
       <use xlink:href="#DejaVuSans-33" x="83.789062"/>
      </g>
     </g>
    </g>
    <g id="ytick_3">
     <g id="line2d_13">
      <g>
       <use xlink:href="#mf805621af8" x="49.5" y="188.374705" style="stroke: #000000; stroke-width: 0.8"/>
      </g>
     </g>
     <g id="text_14">
      <!-- −2 -->
      <g transform="translate(27.757812 192.173924)scale(0.1 -0.1)">
       <use xlink:href="#DejaVuSans-2212"/>
       <use xlink:href="#DejaVuSans-32" x="83.789062"/>
      </g>
     </g>
    </g>
    <g id="ytick_4">
     <g id="line2d_14">
      <g>
       <use xlink:href="#mf805621af8" x="49.5" y="158.821375" style="stroke: #000000; stroke-width: 0.8"/>
      </g>
     </g>
     <g id="text_15">
      <!-- −1 -->
      <g transform="translate(27.757812 162.620594)scale(0.1 -0.1)">
       <use xlink:href="#DejaVuSans-2212"/>
       <use xlink:href="#DejaVuSans-31" x="83.789062"/>
      </g>
     </g>
    </g>
    <g id="ytick_5">
     <g id="line2d_15">
      <g>
       <use xlink:href="#mf805621af8" x="49.5" y="129.268046" style="stroke: #000000; stroke-width: 0.8"/>
      </g>
     </g>
     <g id="text_16">
      <!-- 0 -->
      <g transform="translate(36.1375 133.067264)scale(0.1 -0.1)">
       <defs>
        <path id="DejaVuSans-30" d="M 2034 4250 
Q 1547 4250 1301 3770 
Q 1056 3291 1056 2328 
Q 1056 1369 1301 889 
Q 1547 409 2034 409 
Q 2525 409 2770 889 
Q 3016 1369 3016 2328 
Q 3016 3291 2770 3770 
Q 2525 4250 2034 4250 
z
M 2034 4750 
Q 2819 4750 3233 4129 
Q 3647 3509 3647 2328 
Q 3647 1150 3233 529 
Q 2819 -91 2034 -91 
Q 1250 -91 836 529 
Q 422 1150 422 2328 
Q 422 3509 836 4129 
Q 1250 4750 2034 4750 
z
" transform="scale(0.015625)"/>
       </defs>
       <use xlink:href="#DejaVuSans-30"/>
      </g>
     </g>
    </g>
    <g id="ytick_6">
     <g id="line2d_16">
      <g>
       <use xlink:href="#mf805621af8" x="49.5" y="99.714716" style="stroke: #000000; stroke-width: 0.8"/>
      </g>
     </g>
     <g id="text_17">
      <!-- 1 -->
      <g transform="translate(36.1375 103.513935)scale(0.1 -0.1)">
       <use xlink:href="#DejaVuSans-31"/>
      </g>
     </g>
    </g>
    <g id="ytick_7">
     <g id="line2d_17">
      <g>
       <use xlink:href="#mf805621af8" x="49.5" y="70.161386" style="stroke: #000000; stroke-width: 0.8"/>
      </g>
     </g>
     <g id="text_18">
      <!-- 2 -->
      <g transform="translate(36.1375 73.960605)scale(0.1 -0.1)">
       <use xlink:href="#DejaVuSans-32"/>
      </g>
     </g>
    </g>
    <g id="ytick_8">
     <g id="line2d_18">
      <g>
       <use xlink:href="#mf805621af8" x="49.5" y="40.608057" style="stroke: #000000; stroke-width: 0.8"/>
      </g>
     </g>
     <g id="text_19">
      <!-- 3 -->
      <g transform="translate(36.1375 44.407275)scale(0.1 -0.1)">
       <use xlink:href="#DejaVuSans-33"/>
      </g>
     </g>
    </g>
    <g id="text_20">
     <!-- log(value) -->
     <g transform="translate(21.678125 170.622031)rotate(-90)scale(0.1 -0.1)">
      <defs>
       <path id="DejaVuSans-6c" d="M 603 4863 
L 1178 4863 
L 1178 0 
L 603 0 
L 603 4863 
z
" transform="scale(0.015625)"/>
       <path id="DejaVuSans-6f" d="M 1959 3097 
Q 1497 3097 1228 2736 
Q 959 2375 959 1747 
Q 959 1119 1226 758 
Q 1494 397 1959 397 
Q 2419 397 2687 759 
Q 2956 1122 2956 1747 
Q 2956 2369 2687 2733 
Q 2419 3097 1959 3097 
z
M 1959 3584 
Q 2709 3584 3137 3096 
Q 3566 2609 3566 1747 
Q 3566 888 3137 398 
Q 2709 -91 1959 -91 
Q 1206 -91 779 398 
Q 353 888 353 1747 
Q 353 2609 779 3096 
Q 1206 3584 1959 3584 
z
" transform="scale(0.015625)"/>
       <path id="DejaVuSans-67" d="M 2906 1791 
Q 2906 2416 2648 2759 
Q 2391 3103 1925 3103 
Q 1463 3103 1205 2759 
Q 947 2416 947 1791 
Q 947 1169 1205 825 
Q 1463 481 1925 481 
Q 2391 481 2648 825 
Q 2906 1169 2906 1791 
z
M 3481 434 
Q 3481 -459 3084 -895 
Q 2688 -1331 1869 -1331 
Q 1566 -1331 1297 -1286 
Q 1028 -1241 775 -1147 
L 775 -588 
Q 1028 -725 1275 -790 
Q 1522 -856 1778 -856 
Q 2344 -856 2625 -561 
Q 2906 -266 2906 331 
L 2906 616 
Q 2728 306 2450 153 
Q 2172 0 1784 0 
Q 1141 0 747 490 
Q 353 981 353 1791 
Q 353 2603 747 3093 
Q 1141 3584 1784 3584 
Q 2172 3584 2450 3431 
Q 2728 3278 2906 2969 
L 2906 3500 
L 3481 3500 
L 3481 434 
z
" transform="scale(0.015625)"/>
       <path id="DejaVuSans-28" d="M 1984 4856 
Q 1566 4138 1362 3434 
Q 1159 2731 1159 2009 
Q 1159 1288 1364 580 
Q 1569 -128 1984 -844 
L 1484 -844 
Q 1016 -109 783 600 
Q 550 1309 550 2009 
Q 550 2706 781 3412 
Q 1013 4119 1484 4856 
L 1984 4856 
z
" transform="scale(0.015625)"/>
       <path id="DejaVuSans-76" d="M 191 3500 
L 800 3500 
L 1894 563 
L 2988 3500 
L 3597 3500 
L 2284 0 
L 1503 0 
L 191 3500 
z
" transform="scale(0.015625)"/>
       <path id="DejaVuSans-75" d="M 544 1381 
L 544 3500 
L 1119 3500 
L 1119 1403 
Q 1119 906 1312 657 
Q 1506 409 1894 409 
Q 2359 409 2629 706 
Q 2900 1003 2900 1516 
L 2900 3500 
L 3475 3500 
L 3475 0 
L 2900 0 
L 2900 538 
Q 2691 219 2414 64 
Q 2138 -91 1772 -91 
Q 1169 -91 856 284 
Q 544 659 544 1381 
z
M 1991 3584 
L 1991 3584 
z
" transform="scale(0.015625)"/>
       <path id="DejaVuSans-29" d="M 513 4856 
L 1013 4856 
Q 1481 4119 1714 3412 
Q 1947 2706 1947 2009 
Q 1947 1309 1714 600 
Q 1481 -109 1013 -844 
L 513 -844 
Q 928 -128 1133 580 
Q 1338 1288 1338 2009 
Q 1338 2731 1133 3434 
Q 928 4138 513 4856 
z
" transform="scale(0.015625)"/>
      </defs>
      <use xlink:href="#DejaVuSans-6c"/>
      <use xlink:href="#DejaVuSans-6f" x="27.783203"/>
      <use xlink:href="#DejaVuSans-67" x="88.964844"/>
      <use xlink:href="#DejaVuSans-28" x="152.441406"/>
      <use xlink:href="#DejaVuSans-76" x="191.455078"/>
      <use xlink:href="#DejaVuSans-61" x="250.634766"/>
      <use xlink:href="#DejaVuSans-6c" x="311.914062"/>
      <use xlink:href="#DejaVuSans-75" x="339.697266"/>
      <use xlink:href="#DejaVuSans-65" x="403.076172"/>
      <use xlink:href="#DejaVuSans-29" x="464.599609"/>
     </g>
    </g>
   </g>
   <g id="line2d_19">
    <path d="M 64.845 79.626475 
L 64.845 79.821593 
" clip-path="url(#p8130aab292)" style="fill: none; stroke: #4d4d4d; stroke-width: 1.5; stroke-linecap: square"/>
   </g>
   <g id="line2d_20">
    <path d="M 64.845 76.498389 
L 64.845 76.341772 
" clip-path="url(#p8130aab292)" style="fill: none; stroke: #4d4d4d; stroke-width: 1.5; stroke-linecap: square"/>
   </g>
   <g id="line2d_21">
    <path d="M 58.707 79.821593 
L 70.983 79.821593 
" clip-path="url(#p8130aab292)" style="fill: none; stroke: #4d4d4d; stroke-width: 1.5; stroke-linecap: square"/>
   </g>
   <g id="line2d_22">
    <path d="M 58.707 76.341772 
L 70.983 76.341772 
" clip-path="url(#p8130aab292)" style="fill: none; stroke: #4d4d4d; stroke-width: 1.5; stroke-linecap: square"/>
   </g>
   <g id="line2d_23"/>
   <g id="line2d_24">
    <path d="M 95.535 70.866756 
L 95.535 91.212614 
" clip-path="url(#p8130aab292)" style="fill: none; stroke: #4d4d4d; stroke-width: 1.5; stroke-linecap: square"/>
   </g>
   <g id="line2d_25">
    <path d="M 95.535 47.109706 
L 95.535 44.64 
" clip-path="url(#p8130aab292)" style="fill: none; stroke: #4d4d4d; stroke-width: 1.5; stroke-linecap: square"/>
   </g>
   <g id="line2d_26">
    <path d="M 89.397 91.212614 
L 101.673 91.212614 
" clip-path="url(#p8130aab292)" style="fill: none; stroke: #4d4d4d; stroke-width: 1.5; stroke-linecap: square"/>
   </g>
   <g id="line2d_27">
    <path d="M 89.397 44.64 
L 101.673 44.64 
" clip-path="url(#p8130aab292)" style="fill: none; stroke: #4d4d4d; stroke-width: 1.5; stroke-linecap: square"/>
   </g>
   <g id="line2d_28"/>
   <g id="line2d_29">
    <path d="M 126.225 121.426373 
L 126.225 126.869921 
" clip-path="url(#p8130aab292)" style="fill: none; stroke: #4d4d4d; stroke-width: 1.5; stroke-linecap: square"/>
   </g>
   <g id="line2d_30">
    <path d="M 126.225 117.300289 
L 126.225 116.897884 
" clip-path="url(#p8130aab292)" style="fill: none; stroke: #4d4d4d; stroke-width: 1.5; stroke-linecap: square"/>
   </g>
   <g id="line2d_31">
    <path d="M 120.087 126.869921 
L 132.363 126.869921 
" clip-path="url(#p8130aab292)" style="fill: none; stroke: #4d4d4d; stroke-width: 1.5; stroke-linecap: square"/>
   </g>
   <g id="line2d_32">
    <path d="M 120.087 116.897884 
L 132.363 116.897884 
" clip-path="url(#p8130aab292)" style="fill: none; stroke: #4d4d4d; stroke-width: 1.5; stroke-linecap: square"/>
   </g>
   <g id="line2d_33"/>
   <g id="line2d_34">
    <path d="M 156.915 132.674005 
L 156.915 136.021958 
" clip-path="url(#p8130aab292)" style="fill: none; stroke: #4d4d4d; stroke-width: 1.5; stroke-linecap: square"/>
   </g>
   <g id="line2d_35">
    <path d="M 156.915 107.285185 
L 156.915 98.596127 
" clip-path="url(#p8130aab292)" style="fill: none; stroke: #4d4d4d; stroke-width: 1.5; stroke-linecap: square"/>
   </g>
   <g id="line2d_36">
    <path d="M 150.777 136.021958 
L 163.053 136.021958 
" clip-path="url(#p8130aab292)" style="fill: none; stroke: #4d4d4d; stroke-width: 1.5; stroke-linecap: square"/>
   </g>
   <g id="line2d_37">
    <path d="M 150.777 98.596127 
L 163.053 98.596127 
" clip-path="url(#p8130aab292)" style="fill: none; stroke: #4d4d4d; stroke-width: 1.5; stroke-linecap: square"/>
   </g>
   <g id="line2d_38"/>
   <g id="line2d_39">
    <path d="M 187.605 146.856151 
L 187.605 146.856151 
" clip-path="url(#p8130aab292)" style="fill: none; stroke: #4d4d4d; stroke-width: 1.5; stroke-linecap: square"/>
   </g>
   <g id="line2d_40">
    <path d="M 187.605 146.050249 
L 187.605 145.895353 
" clip-path="url(#p8130aab292)" style="fill: none; stroke: #4d4d4d; stroke-width: 1.5; stroke-linecap: square"/>
   </g>
   <g id="line2d_41">
    <path d="M 181.467 146.856151 
L 193.743 146.856151 
" clip-path="url(#p8130aab292)" style="fill: none; stroke: #4d4d4d; stroke-width: 1.5; stroke-linecap: square"/>
   </g>
   <g id="line2d_42">
    <path d="M 181.467 145.895353 
L 193.743 145.895353 
" clip-path="url(#p8130aab292)" style="fill: none; stroke: #4d4d4d; stroke-width: 1.5; stroke-linecap: square"/>
   </g>
   <g id="line2d_43">
    <defs>
     <path id="ma9f9a30f07" d="M -0 3.535534 
L 2.12132 0 
L -0 -3.535534 
L -2.12132 -0 
z
" style="stroke: #4d4d4d; stroke-linejoin: miter"/>
    </defs>
    <g clip-path="url(#p8130aab292)">
     <use xlink:href="#ma9f9a30f07" x="187.605" y="150.293533" style="fill: #4d4d4d; stroke: #4d4d4d; stroke-linejoin: miter"/>
    </g>
   </g>
   <g id="line2d_44">
    <path d="M 218.295 129.097487 
L 218.295 160.268819 
" clip-path="url(#p8130aab292)" style="fill: none; stroke: #4d4d4d; stroke-width: 1.5; stroke-linecap: square"/>
   </g>
   <g id="line2d_45">
    <path d="M 218.295 78.247364 
L 218.295 64.086378 
" clip-path="url(#p8130aab292)" style="fill: none; stroke: #4d4d4d; stroke-width: 1.5; stroke-linecap: square"/>
   </g>
   <g id="line2d_46">
    <path d="M 212.157 160.268819 
L 224.433 160.268819 
" clip-path="url(#p8130aab292)" style="fill: none; stroke: #4d4d4d; stroke-width: 1.5; stroke-linecap: square"/>
   </g>
   <g id="line2d_47">
    <path d="M 212.157 64.086378 
L 224.433 64.086378 
" clip-path="url(#p8130aab292)" style="fill: none; stroke: #4d4d4d; stroke-width: 1.5; stroke-linecap: square"/>
   </g>
   <g id="line2d_48"/>
   <g id="line2d_49">
    <path d="M 248.985 230.040695 
L 248.985 246.24 
" clip-path="url(#p8130aab292)" style="fill: none; stroke: #4d4d4d; stroke-width: 1.5; stroke-linecap: square"/>
   </g>
   <g id="line2d_50">
    <path d="M 248.985 158.170436 
L 248.985 152.757435 
" clip-path="url(#p8130aab292)" style="fill: none; stroke: #4d4d4d; stroke-width: 1.5; stroke-linecap: square"/>
   </g>
   <g id="line2d_51">
    <path d="M 242.847 246.24 
L 255.123 246.24 
" clip-path="url(#p8130aab292)" style="fill: none; stroke: #4d4d4d; stroke-width: 1.5; stroke-linecap: square"/>
   </g>
   <g id="line2d_52">
    <path d="M 242.847 152.757435 
L 255.123 152.757435 
" clip-path="url(#p8130aab292)" style="fill: none; stroke: #4d4d4d; stroke-width: 1.5; stroke-linecap: square"/>
   </g>
   <g id="line2d_53"/>
   <g id="line2d_54">
    <path d="M 279.675 162.675416 
L 279.675 166.645978 
" clip-path="url(#p8130aab292)" style="fill: none; stroke: #4d4d4d; stroke-width: 1.5; stroke-linecap: square"/>
   </g>
   <g id="line2d_55">
    <path d="M 279.675 143.259259 
L 279.675 136.113031 
" clip-path="url(#p8130aab292)" style="fill: none; stroke: #4d4d4d; stroke-width: 1.5; stroke-linecap: square"/>
   </g>
   <g id="line2d_56">
    <path d="M 273.537 166.645978 
L 285.813 166.645978 
" clip-path="url(#p8130aab292)" style="fill: none; stroke: #4d4d4d; stroke-width: 1.5; stroke-linecap: square"/>
   </g>
   <g id="line2d_57">
    <path d="M 273.537 136.113031 
L 285.813 136.113031 
" clip-path="url(#p8130aab292)" style="fill: none; stroke: #4d4d4d; stroke-width: 1.5; stroke-linecap: square"/>
   </g>
   <g id="line2d_58"/>
   <g id="line2d_59">
    <path d="M 310.365 111.08867 
L 310.365 113.408194 
" clip-path="url(#p8130aab292)" style="fill: none; stroke: #4d4d4d; stroke-width: 1.5; stroke-linecap: square"/>
   </g>
   <g id="line2d_60">
    <path d="M 310.365 102.832425 
L 310.365 102.399868 
" clip-path="url(#p8130aab292)" style="fill: none; stroke: #4d4d4d; stroke-width: 1.5; stroke-linecap: square"/>
   </g>
   <g id="line2d_61">
    <path d="M 304.227 113.408194 
L 316.503 113.408194 
" clip-path="url(#p8130aab292)" style="fill: none; stroke: #4d4d4d; stroke-width: 1.5; stroke-linecap: square"/>
   </g>
   <g id="line2d_62">
    <path d="M 304.227 102.399868 
L 316.503 102.399868 
" clip-path="url(#p8130aab292)" style="fill: none; stroke: #4d4d4d; stroke-width: 1.5; stroke-linecap: square"/>
   </g>
   <g id="line2d_63">
    <g clip-path="url(#p8130aab292)">
     <use xlink:href="#ma9f9a30f07" x="310.365" y="138.820606" style="fill: #4d4d4d; stroke: #4d4d4d; stroke-linejoin: miter"/>
    </g>
   </g>
   <g id="line2d_64">
    <path d="M 341.055 82.251327 
L 341.055 84.548489 
" clip-path="url(#p8130aab292)" style="fill: none; stroke: #4d4d4d; stroke-width: 1.5; stroke-linecap: square"/>
   </g>
   <g id="line2d_65">
    <path d="M 341.055 74.940712 
L 341.055 74.801002 
" clip-path="url(#p8130aab292)" style="fill: none; stroke: #4d4d4d; stroke-width: 1.5; stroke-linecap: square"/>
   </g>
   <g id="line2d_66">
    <path d="M 334.917 84.548489 
L 347.193 84.548489 
" clip-path="url(#p8130aab292)" style="fill: none; stroke: #4d4d4d; stroke-width: 1.5; stroke-linecap: square"/>
   </g>
   <g id="line2d_67">
    <path d="M 334.917 74.801002 
L 347.193 74.801002 
" clip-path="url(#p8130aab292)" style="fill: none; stroke: #4d4d4d; stroke-width: 1.5; stroke-linecap: square"/>
   </g>
   <g id="line2d_68">
    <g clip-path="url(#p8130aab292)">
     <use xlink:href="#ma9f9a30f07" x="341.055" y="102.223692" style="fill: #4d4d4d; stroke: #4d4d4d; stroke-linejoin: miter"/>
    </g>
   </g>
   <g id="line2d_69">
    <path d="M 52.569 78.00468 
L 77.121 78.00468 
" clip-path="url(#p8130aab292)" style="fill: none; stroke: #4d4d4d; stroke-width: 1.5; stroke-linecap: square"/>
   </g>
   <g id="line2d_70">
    <path d="M 83.259 54.518823 
L 107.811 54.518823 
" clip-path="url(#p8130aab292)" style="fill: none; stroke: #4d4d4d; stroke-width: 1.5; stroke-linecap: square"/>
   </g>
   <g id="line2d_71">
    <path d="M 113.949 119.363331 
L 138.501 119.363331 
" clip-path="url(#p8130aab292)" style="fill: none; stroke: #4d4d4d; stroke-width: 1.5; stroke-linecap: square"/>
   </g>
   <g id="line2d_72">
    <path d="M 144.639 122.630147 
L 169.191 122.630147 
" clip-path="url(#p8130aab292)" style="fill: none; stroke: #4d4d4d; stroke-width: 1.5; stroke-linecap: square"/>
   </g>
   <g id="line2d_73">
    <path d="M 175.329 146.685545 
L 199.881 146.685545 
" clip-path="url(#p8130aab292)" style="fill: none; stroke: #4d4d4d; stroke-width: 1.5; stroke-linecap: square"/>
   </g>
   <g id="line2d_74">
    <path d="M 206.019 124.913904 
L 230.571 124.913904 
" clip-path="url(#p8130aab292)" style="fill: none; stroke: #4d4d4d; stroke-width: 1.5; stroke-linecap: square"/>
   </g>
   <g id="line2d_75">
    <path d="M 236.709 177.92611 
L 261.261 177.92611 
" clip-path="url(#p8130aab292)" style="fill: none; stroke: #4d4d4d; stroke-width: 1.5; stroke-linecap: square"/>
   </g>
   <g id="line2d_76">
    <path d="M 267.399 150.763731 
L 291.951 150.763731 
" clip-path="url(#p8130aab292)" style="fill: none; stroke: #4d4d4d; stroke-width: 1.5; stroke-linecap: square"/>
   </g>
   <g id="line2d_77">
    <path d="M 298.089 104.130097 
L 322.641 104.130097 
" clip-path="url(#p8130aab292)" style="fill: none; stroke: #4d4d4d; stroke-width: 1.5; stroke-linecap: square"/>
   </g>
   <g id="line2d_78">
    <path d="M 328.779 75.359844 
L 353.331 75.359844 
" clip-path="url(#p8130aab292)" style="fill: none; stroke: #4d4d4d; stroke-width: 1.5; stroke-linecap: square"/>
   </g>
   <g id="patch_13">
    <path d="M 49.5 256.32 
L 49.5 34.56 
" style="fill: none; stroke: #000000; stroke-width: 0.8; stroke-linejoin: miter; stroke-linecap: square"/>
   </g>
   <g id="patch_14">
    <path d="M 356.4 256.32 
L 356.4 34.56 
" style="fill: none; stroke: #000000; stroke-width: 0.8; stroke-linejoin: miter; stroke-linecap: square"/>
   </g>
   <g id="patch_15">
    <path d="M 49.5 256.32 
L 356.4 256.32 
" style="fill: none; stroke: #000000; stroke-width: 0.8; stroke-linejoin: miter; stroke-linecap: square"/>
   </g>
   <g id="patch_16">
    <path d="M 49.5 34.56 
L 356.4 34.56 
" style="fill: none; stroke: #000000; stroke-width: 0.8; stroke-linejoin: miter; stroke-linecap: square"/>
   </g>
   <g id="PathCollection_1">
    <defs>
     <path id="C0_0_8c8fb740dd" d="M 0 2.5 
C 0.663008 2.5 1.29895 2.236584 1.767767 1.767767 
C 2.236584 1.29895 2.5 0.663008 2.5 -0 
C 2.5 -0.663008 2.236584 -1.29895 1.767767 -1.767767 
C 1.29895 -2.236584 0.663008 -2.5 0 -2.5 
C -0.663008 -2.5 -1.29895 -2.236584 -1.767767 -1.767767 
C -2.236584 -1.29895 -2.5 -0.663008 -2.5 0 
C -2.5 0.663008 -2.236584 1.29895 -1.767767 1.767767 
C -1.29895 2.236584 -0.663008 2.5 0 2.5 
z
"/>
    </defs>
    <g clip-path="url(#p8130aab292)">
     <use xlink:href="#C0_0_8c8fb740dd" x="64.845" y="79.821593"/>
    </g>
    <g clip-path="url(#p8130aab292)">
     <use xlink:href="#C0_0_8c8fb740dd" x="59.595" y="79.821593"/>
    </g>
    <g clip-path="url(#p8130aab292)">
     <use xlink:href="#C0_0_8c8fb740dd" x="70.030646" y="79.041118"/>
    </g>
    <g clip-path="url(#p8130aab292)">
     <use xlink:href="#C0_0_8c8fb740dd" x="55.283808" y="76.968242"/>
    </g>
    <g clip-path="url(#p8130aab292)">
     <use xlink:href="#C0_0_8c8fb740dd" x="74.449827" y="76.341772"/>
    </g>
    <g clip-path="url(#p8130aab292)">
     <use xlink:href="#C0_0_8c8fb740dd" x="52.569" y="76.341772"/>
    </g>
   </g>
   <g id="PathCollection_2">
    <defs>
     <path id="C1_0_f3aa1f58e0" d="M 0 2.5 
C 0.663008 2.5 1.29895 2.236584 1.767767 1.767767 
C 2.236584 1.29895 2.5 0.663008 2.5 -0 
C 2.5 -0.663008 2.236584 -1.29895 1.767767 -1.767767 
C 1.29895 -2.236584 0.663008 -2.5 0 -2.5 
C -0.663008 -2.5 -1.29895 -2.236584 -1.767767 -1.767767 
C -2.236584 -1.29895 -2.5 -0.663008 -2.5 0 
C -2.5 0.663008 -2.236584 1.29895 -1.767767 1.767767 
C -1.29895 2.236584 -0.663008 2.5 0 2.5 
z
"/>
    </defs>
    <g clip-path="url(#p8130aab292)">
     <use xlink:href="#C1_0_f3aa1f58e0" x="95.535" y="91.212614"/>
    </g>
    <g clip-path="url(#p8130aab292)">
     <use xlink:href="#C1_0_f3aa1f58e0" x="95.535" y="76.316067"/>
    </g>
    <g clip-path="url(#p8130aab292)">
     <use xlink:href="#C1_0_f3aa1f58e0" x="95.535" y="54.518823"/>
    </g>
    <g clip-path="url(#p8130aab292)">
     <use xlink:href="#C1_0_f3aa1f58e0" x="100.785" y="54.518823"/>
    </g>
    <g clip-path="url(#p8130aab292)">
     <use xlink:href="#C1_0_f3aa1f58e0" x="95.535" y="44.64"/>
    </g>
    <g clip-path="url(#p8130aab292)">
     <use xlink:href="#C1_0_f3aa1f58e0" x="100.785" y="44.64"/>
    </g>
   </g>
   <g id="PathCollection_3">
    <defs>
     <path id="C2_0_26fec7bb5f" d="M 0 2.5 
C 0.663008 2.5 1.29895 2.236584 1.767767 1.767767 
C 2.236584 1.29895 2.5 0.663008 2.5 -0 
C 2.5 -0.663008 2.236584 -1.29895 1.767767 -1.767767 
C 1.29895 -2.236584 0.663008 -2.5 0 -2.5 
C -0.663008 -2.5 -1.29895 -2.236584 -1.767767 -1.767767 
C -2.236584 -1.29895 -2.5 -0.663008 -2.5 0 
C -2.5 0.663008 -2.236584 1.29895 -1.767767 1.767767 
C -1.29895 2.236584 -0.663008 2.5 0 2.5 
z
"/>
    </defs>
    <g clip-path="url(#p8130aab292)">
     <use xlink:href="#C2_0_26fec7bb5f" x="126.225" y="126.869921"/>
    </g>
    <g clip-path="url(#p8130aab292)">
     <use xlink:href="#C2_0_26fec7bb5f" x="126.225" y="121.426373"/>
    </g>
    <g clip-path="url(#p8130aab292)">
     <use xlink:href="#C2_0_26fec7bb5f" x="120.975" y="121.426373"/>
    </g>
    <g clip-path="url(#p8130aab292)">
     <use xlink:href="#C2_0_26fec7bb5f" x="129.190283" y="117.300289"/>
    </g>
    <g clip-path="url(#p8130aab292)">
     <use xlink:href="#C2_0_26fec7bb5f" x="118.009717" y="117.300289"/>
    </g>
    <g clip-path="url(#p8130aab292)">
     <use xlink:href="#C2_0_26fec7bb5f" x="123.999401" y="116.897884"/>
    </g>
   </g>
   <g id="PathCollection_4">
    <defs>
     <path id="C3_0_2670ea8718" d="M 0 2.5 
C 0.663008 2.5 1.29895 2.236584 1.767767 1.767767 
C 2.236584 1.29895 2.5 0.663008 2.5 -0 
C 2.5 -0.663008 2.236584 -1.29895 1.767767 -1.767767 
C 1.29895 -2.236584 0.663008 -2.5 0 -2.5 
C -0.663008 -2.5 -1.29895 -2.236584 -1.767767 -1.767767 
C -2.236584 -1.29895 -2.5 -0.663008 -2.5 0 
C -2.5 0.663008 -2.236584 1.29895 -1.767767 1.767767 
C -1.29895 2.236584 -0.663008 2.5 0 2.5 
z
"/>
    </defs>
    <g clip-path="url(#p8130aab292)">
     <use xlink:href="#C3_0_2670ea8718" x="156.915" y="136.021958"/>
    </g>
    <g clip-path="url(#p8130aab292)">
     <use xlink:href="#C3_0_2670ea8718" x="151.665" y="136.021958"/>
    </g>
    <g clip-path="url(#p8130aab292)">
     <use xlink:href="#C3_0_2670ea8718" x="156.915" y="122.630147"/>
    </g>
    <g clip-path="url(#p8130aab292)">
     <use xlink:href="#C3_0_2670ea8718" x="151.665" y="122.630147"/>
    </g>
    <g clip-path="url(#p8130aab292)">
     <use xlink:href="#C3_0_2670ea8718" x="156.915" y="102.170197"/>
    </g>
    <g clip-path="url(#p8130aab292)">
     <use xlink:href="#C3_0_2670ea8718" x="153.243599" y="98.596127"/>
    </g>
   </g>
   <g id="PathCollection_5">
    <defs>
     <path id="C4_0_ab71a06ee8" d="M 0 2.5 
C 0.663008 2.5 1.29895 2.236584 1.767767 1.767767 
C 2.236584 1.29895 2.5 0.663008 2.5 -0 
C 2.5 -0.663008 2.236584 -1.29895 1.767767 -1.767767 
C 1.29895 -2.236584 0.663008 -2.5 0 -2.5 
C -0.663008 -2.5 -1.29895 -2.236584 -1.767767 -1.767767 
C -2.236584 -1.29895 -2.5 -0.663008 -2.5 0 
C -2.5 0.663008 -2.236584 1.29895 -1.767767 1.767767 
C -1.29895 2.236584 -0.663008 2.5 0 2.5 
z
"/>
    </defs>
    <g clip-path="url(#p8130aab292)">
     <use xlink:href="#C4_0_ab71a06ee8" x="187.605" y="150.293533"/>
    </g>
    <g clip-path="url(#p8130aab292)">
     <use xlink:href="#C4_0_ab71a06ee8" x="191.417584" y="146.856151"/>
    </g>
    <g clip-path="url(#p8130aab292)">
     <use xlink:href="#C4_0_ab71a06ee8" x="183.792416" y="146.856151"/>
    </g>
    <g clip-path="url(#p8130aab292)">
     <use xlink:href="#C4_0_ab71a06ee8" x="196.655346" y="146.514939"/>
    </g>
    <g clip-path="url(#p8130aab292)">
     <use xlink:href="#C4_0_ab71a06ee8" x="178.640256" y="145.895353"/>
    </g>
    <g clip-path="url(#p8130aab292)">
     <use xlink:href="#C4_0_ab71a06ee8" x="175.329" y="145.895353"/>
    </g>
   </g>
   <g id="PathCollection_6">
    <defs>
     <path id="C5_0_13581b77ab" d="M 0 2.5 
C 0.663008 2.5 1.29895 2.236584 1.767767 1.767767 
C 2.236584 1.29895 2.5 0.663008 2.5 -0 
C 2.5 -0.663008 2.236584 -1.29895 1.767767 -1.767767 
C 1.29895 -2.236584 0.663008 -2.5 0 -2.5 
C -0.663008 -2.5 -1.29895 -2.236584 -1.767767 -1.767767 
C -2.236584 -1.29895 -2.5 -0.663008 -2.5 0 
C -2.5 0.663008 -2.236584 1.29895 -1.767767 1.767767 
C -1.29895 2.236584 -0.663008 2.5 0 2.5 
z
"/>
    </defs>
    <g clip-path="url(#p8130aab292)">
     <use xlink:href="#C5_0_13581b77ab" x="218.295" y="160.268819"/>
    </g>
    <g clip-path="url(#p8130aab292)">
     <use xlink:href="#C5_0_13581b77ab" x="218.295" y="129.097487"/>
    </g>
    <g clip-path="url(#p8130aab292)">
     <use xlink:href="#C5_0_13581b77ab" x="213.045" y="129.097487"/>
    </g>
    <g clip-path="url(#p8130aab292)">
     <use xlink:href="#C5_0_13581b77ab" x="218.295" y="120.730321"/>
    </g>
    <g clip-path="url(#p8130aab292)">
     <use xlink:href="#C5_0_13581b77ab" x="218.295" y="64.086378"/>
    </g>
    <g clip-path="url(#p8130aab292)">
     <use xlink:href="#C5_0_13581b77ab" x="213.045" y="64.086378"/>
    </g>
   </g>
   <g id="PathCollection_7">
    <defs>
     <path id="C6_0_6e83defd4f" d="M 0 2.5 
C 0.663008 2.5 1.29895 2.236584 1.767767 1.767767 
C 2.236584 1.29895 2.5 0.663008 2.5 -0 
C 2.5 -0.663008 2.236584 -1.29895 1.767767 -1.767767 
C 1.29895 -2.236584 0.663008 -2.5 0 -2.5 
C -0.663008 -2.5 -1.29895 -2.236584 -1.767767 -1.767767 
C -2.236584 -1.29895 -2.5 -0.663008 -2.5 0 
C -2.5 0.663008 -2.236584 1.29895 -1.767767 1.767767 
C -1.29895 2.236584 -0.663008 2.5 0 2.5 
z
"/>
    </defs>
    <g clip-path="url(#p8130aab292)">
     <use xlink:href="#C6_0_6e83defd4f" x="248.985" y="246.24"/>
    </g>
    <g clip-path="url(#p8130aab292)">
     <use xlink:href="#C6_0_6e83defd4f" x="243.735" y="246.24"/>
    </g>
    <g clip-path="url(#p8130aab292)">
     <use xlink:href="#C6_0_6e83defd4f" x="248.985" y="181.442781"/>
    </g>
    <g clip-path="url(#p8130aab292)">
     <use xlink:href="#C6_0_6e83defd4f" x="248.985" y="174.40944"/>
    </g>
    <g clip-path="url(#p8130aab292)">
     <use xlink:href="#C6_0_6e83defd4f" x="248.985" y="152.757435"/>
    </g>
    <g clip-path="url(#p8130aab292)">
     <use xlink:href="#C6_0_6e83defd4f" x="243.735" y="152.757435"/>
    </g>
   </g>
   <g id="PathCollection_8">
    <defs>
     <path id="C7_0_bcaec97501" d="M 0 2.5 
C 0.663008 2.5 1.29895 2.236584 1.767767 1.767767 
C 2.236584 1.29895 2.5 0.663008 2.5 -0 
C 2.5 -0.663008 2.236584 -1.29895 1.767767 -1.767767 
C 1.29895 -2.236584 0.663008 -2.5 0 -2.5 
C -0.663008 -2.5 -1.29895 -2.236584 -1.767767 -1.767767 
C -2.236584 -1.29895 -2.5 -0.663008 -2.5 0 
C -2.5 0.663008 -2.236584 1.29895 -1.767767 1.767767 
C -1.29895 2.236584 -0.663008 2.5 0 2.5 
z
"/>
    </defs>
    <g clip-path="url(#p8130aab292)">
     <use xlink:href="#C7_0_bcaec97501" x="279.675" y="166.645978"/>
    </g>
    <g clip-path="url(#p8130aab292)">
     <use xlink:href="#C7_0_bcaec97501" x="274.425" y="166.645978"/>
    </g>
    <g clip-path="url(#p8130aab292)">
     <use xlink:href="#C7_0_bcaec97501" x="279.675" y="150.763731"/>
    </g>
    <g clip-path="url(#p8130aab292)">
     <use xlink:href="#C7_0_bcaec97501" x="274.425" y="150.763731"/>
    </g>
    <g clip-path="url(#p8130aab292)">
     <use xlink:href="#C7_0_bcaec97501" x="279.675" y="140.757768"/>
    </g>
    <g clip-path="url(#p8130aab292)">
     <use xlink:href="#C7_0_bcaec97501" x="277.731388" y="136.113031"/>
    </g>
   </g>
   <g id="PathCollection_9">
    <defs>
     <path id="C8_0_bc2400f1b0" d="M 0 2.5 
C 0.663008 2.5 1.29895 2.236584 1.767767 1.767767 
C 2.236584 1.29895 2.5 0.663008 2.5 -0 
C 2.5 -0.663008 2.236584 -1.29895 1.767767 -1.767767 
C 1.29895 -2.236584 0.663008 -2.5 0 -2.5 
C -0.663008 -2.5 -1.29895 -2.236584 -1.767767 -1.767767 
C -2.236584 -1.29895 -2.5 -0.663008 -2.5 0 
C -2.5 0.663008 -2.236584 1.29895 -1.767767 1.767767 
C -1.29895 2.236584 -0.663008 2.5 0 2.5 
z
"/>
    </defs>
    <g clip-path="url(#p8130aab292)">
     <use xlink:href="#C8_0_bc2400f1b0" x="310.365" y="138.820606"/>
    </g>
    <g clip-path="url(#p8130aab292)">
     <use xlink:href="#C8_0_bc2400f1b0" x="310.365" y="113.408194"/>
    </g>
    <g clip-path="url(#p8130aab292)">
     <use xlink:href="#C8_0_bc2400f1b0" x="310.365" y="104.130097"/>
    </g>
    <g clip-path="url(#p8130aab292)">
     <use xlink:href="#C8_0_bc2400f1b0" x="305.115" y="104.130097"/>
    </g>
    <g clip-path="url(#p8130aab292)">
     <use xlink:href="#C8_0_bc2400f1b0" x="315.290642" y="102.399868"/>
    </g>
    <g clip-path="url(#p8130aab292)">
     <use xlink:href="#C8_0_bc2400f1b0" x="300.189358" y="102.399868"/>
    </g>
   </g>
   <g id="PathCollection_10">
    <defs>
     <path id="C9_0_069fdbe734" d="M 0 2.5 
C 0.663008 2.5 1.29895 2.236584 1.767767 1.767767 
C 2.236584 1.29895 2.5 0.663008 2.5 -0 
C 2.5 -0.663008 2.236584 -1.29895 1.767767 -1.767767 
C 1.29895 -2.236584 0.663008 -2.5 0 -2.5 
C -0.663008 -2.5 -1.29895 -2.236584 -1.767767 -1.767767 
C -2.236584 -1.29895 -2.5 -0.663008 -2.5 0 
C -2.5 0.663008 -2.236584 1.29895 -1.767767 1.767767 
C -1.29895 2.236584 -0.663008 2.5 0 2.5 
z
"/>
    </defs>
    <g clip-path="url(#p8130aab292)">
     <use xlink:href="#C9_0_069fdbe734" x="341.055" y="102.223692"/>
    </g>
    <g clip-path="url(#p8130aab292)">
     <use xlink:href="#C9_0_069fdbe734" x="341.055" y="84.548489"/>
    </g>
    <g clip-path="url(#p8130aab292)">
     <use xlink:href="#C9_0_069fdbe734" x="341.055" y="75.359844"/>
    </g>
    <g clip-path="url(#p8130aab292)">
     <use xlink:href="#C9_0_069fdbe734" x="335.805" y="75.359844"/>
    </g>
    <g clip-path="url(#p8130aab292)">
     <use xlink:href="#C9_0_069fdbe734" x="346.272105" y="74.801002"/>
    </g>
    <g clip-path="url(#p8130aab292)">
     <use xlink:href="#C9_0_069fdbe734" x="330.587895" y="74.801002"/>
    </g>
   </g>
  </g>
 </g>
 <defs>
  <clipPath id="p8130aab292">
   <rect x="49.5" y="34.56" width="306.9" height="221.76"/>
  </clipPath>
 </defs>
</svg>
