<?xml version="1.0" encoding="utf-8" standalone="no"?>
<!DOCTYPE svg PUBLIC "-//W3C//DTD SVG 1.1//EN"
  "http://www.w3.org/Graphics/SVG/1.1/DTD/svg11.dtd">
<svg xmlns:xlink="http://www.w3.org/1999/xlink" width="252pt" height="288pt" viewBox="0 0 252 288" xmlns="http://www.w3.org/2000/svg" version="1.1">
 <metadata>
  <rdf:RDF xmlns:dc="http://purl.org/dc/elements/1.1/" xmlns:cc="http://creativecommons.org/ns#" xmlns:rdf="http://www.w3.org/1999/02/22-rdf-syntax-ns#">
   <cc:Work>
    <dc:type rdf:resource="http://purl.org/dc/dcmitype/StillImage"/>
    <dc:date>2022-06-24T04:26:33.256768</dc:date>
    <dc:format>image/svg+xml</dc:format>
    <dc:creator>
     <cc:Agent>
      <dc:title>Matplotlib v3.5.2, https://matplotlib.org/</dc:title>
     </cc:Agent>
    </dc:creator>
   </cc:Work>
  </rdf:RDF>
 </metadata>
 <defs>
  <style type="text/css">*{stroke-linejoin: round; stroke-linecap: butt}</style>
 </defs>
 <g id="figure_1">
  <g id="patch_1">
   <path d="M 0 288 
L 252 288 
L 252 0 
L 0 0 
z
" style="fill: #ffffff"/>
  </g>
  <g id="axes_1">
   <g id="patch_2">
    <path d="M 61.679375 199.081875 
L 241.2 199.081875 
L 241.2 10.8 
L 61.679375 10.8 
z
" style="fill: #ffffff"/>
   </g>
   <g id="matplotlib.axis_1">
    <g id="xtick_1">
     <g id="line2d_1">
      <defs>
       <path id="m73b4c864f1" d="M 0 0 
L 0 3.5 
" style="stroke: #000000; stroke-width: 0.8"/>
      </defs>
      <g>
       <use xlink:href="#m73b4c864f1" x="77.93247" y="199.081875" style="stroke: #000000; stroke-width: 0.8"/>
      </g>
     </g>
     <g id="text_1">
      <!-- 2.5 -->
      <g transform="translate(69.980908 213.680313)scale(0.1 -0.1)">
       <defs>
        <path id="DejaVuSans-32" d="M 1228 531 
L 3431 531 
L 3431 0 
L 469 0 
L 469 531 
Q 828 903 1448 1529 
Q 2069 2156 2228 2338 
Q 2531 2678 2651 2914 
Q 2772 3150 2772 3378 
Q 2772 3750 2511 3984 
Q 2250 4219 1831 4219 
Q 1534 4219 1204 4116 
Q 875 4013 500 3803 
L 500 4441 
Q 881 4594 1212 4672 
Q 1544 4750 1819 4750 
Q 2544 4750 2975 4387 
Q 3406 4025 3406 3419 
Q 3406 3131 3298 2873 
Q 3191 2616 2906 2266 
Q 2828 2175 2409 1742 
Q 1991 1309 1228 531 
z
" transform="scale(0.015625)"/>
        <path id="DejaVuSans-2e" d="M 684 794 
L 1344 794 
L 1344 0 
L 684 0 
L 684 794 
z
" transform="scale(0.015625)"/>
        <path id="DejaVuSans-35" d="M 691 4666 
L 3169 4666 
L 3169 4134 
L 1269 4134 
L 1269 2991 
Q 1406 3038 1543 3061 
Q 1681 3084 1819 3084 
Q 2600 3084 3056 2656 
Q 3513 2228 3513 1497 
Q 3513 744 3044 326 
Q 2575 -91 1722 -91 
Q 1428 -91 1123 -41 
Q 819 9 494 109 
L 494 744 
Q 775 591 1075 516 
Q 1375 441 1709 441 
Q 2250 441 2565 725 
Q 2881 1009 2881 1497 
Q 2881 1984 2565 2268 
Q 2250 2553 1709 2553 
Q 1456 2553 1204 2497 
Q 953 2441 691 2322 
L 691 4666 
z
" transform="scale(0.015625)"/>
       </defs>
       <use xlink:href="#DejaVuSans-32"/>
       <use xlink:href="#DejaVuSans-2e" x="63.623047"/>
       <use xlink:href="#DejaVuSans-35" x="95.410156"/>
      </g>
     </g>
    </g>
    <g id="xtick_2">
     <g id="line2d_2">
      <g>
       <use xlink:href="#m73b4c864f1" x="137.856548" y="199.081875" style="stroke: #000000; stroke-width: 0.8"/>
      </g>
     </g>
     <g id="text_2">
      <!-- 3.0 -->
      <g transform="translate(129.904985 213.680313)scale(0.1 -0.1)">
       <defs>
        <path id="DejaVuSans-33" d="M 2597 2516 
Q 3050 2419 3304 2112 
Q 3559 1806 3559 1356 
Q 3559 666 3084 287 
Q 2609 -91 1734 -91 
Q 1441 -91 1130 -33 
Q 819 25 488 141 
L 488 750 
Q 750 597 1062 519 
Q 1375 441 1716 441 
Q 2309 441 2620 675 
Q 2931 909 2931 1356 
Q 2931 1769 2642 2001 
Q 2353 2234 1838 2234 
L 1294 2234 
L 1294 2753 
L 1863 2753 
Q 2328 2753 2575 2939 
Q 2822 3125 2822 3475 
Q 2822 3834 2567 4026 
Q 2313 4219 1838 4219 
Q 1578 4219 1281 4162 
Q 984 4106 628 3988 
L 628 4550 
Q 988 4650 1302 4700 
Q 1616 4750 1894 4750 
Q 2613 4750 3031 4423 
Q 3450 4097 3450 3541 
Q 3450 3153 3228 2886 
Q 3006 2619 2597 2516 
z
" transform="scale(0.015625)"/>
        <path id="DejaVuSans-30" d="M 2034 4250 
Q 1547 4250 1301 3770 
Q 1056 3291 1056 2328 
Q 1056 1369 1301 889 
Q 1547 409 2034 409 
Q 2525 409 2770 889 
Q 3016 1369 3016 2328 
Q 3016 3291 2770 3770 
Q 2525 4250 2034 4250 
z
M 2034 4750 
Q 2819 4750 3233 4129 
Q 3647 3509 3647 2328 
Q 3647 1150 3233 529 
Q 2819 -91 2034 -91 
Q 1250 -91 836 529 
Q 422 1150 422 2328 
Q 422 3509 836 4129 
Q 1250 4750 2034 4750 
z
" transform="scale(0.015625)"/>
       </defs>
       <use xlink:href="#DejaVuSans-33"/>
       <use xlink:href="#DejaVuSans-2e" x="63.623047"/>
       <use xlink:href="#DejaVuSans-30" x="95.410156"/>
      </g>
     </g>
    </g>
    <g id="xtick_3">
     <g id="line2d_3">
      <g>
       <use xlink:href="#m73b4c864f1" x="197.780625" y="199.081875" style="stroke: #000000; stroke-width: 0.8"/>
      </g>
     </g>
     <g id="text_3">
      <!-- 3.5 -->
      <g transform="translate(189.829063 213.680313)scale(0.1 -0.1)">
       <use xlink:href="#DejaVuSans-33"/>
       <use xlink:href="#DejaVuSans-2e" x="63.623047"/>
       <use xlink:href="#DejaVuSans-35" x="95.410156"/>
      </g>
     </g>
    </g>
    <g id="text_4">
     <!-- m -->
     <g transform="translate(145.595312 234.878125)scale(0.12 -0.12)">
      <defs>
       <path id="DejaVuSans-6d" d="M 3328 2828 
Q 3544 3216 3844 3400 
Q 4144 3584 4550 3584 
Q 5097 3584 5394 3201 
Q 5691 2819 5691 2113 
L 5691 0 
L 5113 0 
L 5113 2094 
Q 5113 2597 4934 2840 
Q 4756 3084 4391 3084 
Q 3944 3084 3684 2787 
Q 3425 2491 3425 1978 
L 3425 0 
L 2847 0 
L 2847 2094 
Q 2847 2600 2669 2842 
Q 2491 3084 2119 3084 
Q 1678 3084 1418 2786 
Q 1159 2488 1159 1978 
L 1159 0 
L 581 0 
L 581 3500 
L 1159 3500 
L 1159 2956 
Q 1356 3278 1631 3431 
Q 1906 3584 2284 3584 
Q 2666 3584 2933 3390 
Q 3200 3197 3328 2828 
z
" transform="scale(0.015625)"/>
      </defs>
      <use xlink:href="#DejaVuSans-6d"/>
     </g>
    </g>
   </g>
   <g id="matplotlib.axis_2">
    <g id="ytick_1">
     <g id="line2d_4">
      <defs>
       <path id="m21883cb3c8" d="M 0 0 
L -3.5 0 
" style="stroke: #000000; stroke-width: 0.8"/>
      </defs>
      <g>
       <use xlink:href="#m21883cb3c8" x="61.679375" y="190.97507" style="stroke: #000000; stroke-width: 0.8"/>
      </g>
     </g>
     <g id="text_5">
      <!-- 0.25 -->
      <g transform="translate(32.41375 194.774289)scale(0.1 -0.1)">
       <use xlink:href="#DejaVuSans-30"/>
       <use xlink:href="#DejaVuSans-2e" x="63.623047"/>
       <use xlink:href="#DejaVuSans-32" x="95.410156"/>
       <use xlink:href="#DejaVuSans-35" x="159.033203"/>
      </g>
     </g>
    </g>
    <g id="ytick_2">
     <g id="line2d_5">
      <g>
       <use xlink:href="#m21883cb3c8" x="61.679375" y="166.913235" style="stroke: #000000; stroke-width: 0.8"/>
      </g>
     </g>
     <g id="text_6">
      <!-- 0.50 -->
      <g transform="translate(32.41375 170.712454)scale(0.1 -0.1)">
       <use xlink:href="#DejaVuSans-30"/>
       <use xlink:href="#DejaVuSans-2e" x="63.623047"/>
       <use xlink:href="#DejaVuSans-35" x="95.410156"/>
       <use xlink:href="#DejaVuSans-30" x="159.033203"/>
      </g>
     </g>
    </g>
    <g id="ytick_3">
     <g id="line2d_6">
      <g>
       <use xlink:href="#m21883cb3c8" x="61.679375" y="142.8514" style="stroke: #000000; stroke-width: 0.8"/>
      </g>
     </g>
     <g id="text_7">
      <!-- 0.75 -->
      <g transform="translate(32.41375 146.650619)scale(0.1 -0.1)">
       <defs>
        <path id="DejaVuSans-37" d="M 525 4666 
L 3525 4666 
L 3525 4397 
L 1831 0 
L 1172 0 
L 2766 4134 
L 525 4134 
L 525 4666 
z
" transform="scale(0.015625)"/>
       </defs>
       <use xlink:href="#DejaVuSans-30"/>
       <use xlink:href="#DejaVuSans-2e" x="63.623047"/>
       <use xlink:href="#DejaVuSans-37" x="95.410156"/>
       <use xlink:href="#DejaVuSans-35" x="159.033203"/>
      </g>
     </g>
    </g>
    <g id="ytick_4">
     <g id="line2d_7">
      <g>
       <use xlink:href="#m21883cb3c8" x="61.679375" y="118.789565" style="stroke: #000000; stroke-width: 0.8"/>
      </g>
     </g>
     <g id="text_8">
      <!-- 1.00 -->
      <g transform="translate(32.41375 122.588784)scale(0.1 -0.1)">
       <defs>
        <path id="DejaVuSans-31" d="M 794 531 
L 1825 531 
L 1825 4091 
L 703 3866 
L 703 4441 
L 1819 4666 
L 2450 4666 
L 2450 531 
L 3481 531 
L 3481 0 
L 794 0 
L 794 531 
z
" transform="scale(0.015625)"/>
       </defs>
       <use xlink:href="#DejaVuSans-31"/>
       <use xlink:href="#DejaVuSans-2e" x="63.623047"/>
       <use xlink:href="#DejaVuSans-30" x="95.410156"/>
       <use xlink:href="#DejaVuSans-30" x="159.033203"/>
      </g>
     </g>
    </g>
    <g id="ytick_5">
     <g id="line2d_8">
      <g>
       <use xlink:href="#m21883cb3c8" x="61.679375" y="94.727731" style="stroke: #000000; stroke-width: 0.8"/>
      </g>
     </g>
     <g id="text_9">
      <!-- 1.25 -->
      <g transform="translate(32.41375 98.526949)scale(0.1 -0.1)">
       <use xlink:href="#DejaVuSans-31"/>
       <use xlink:href="#DejaVuSans-2e" x="63.623047"/>
       <use xlink:href="#DejaVuSans-32" x="95.410156"/>
       <use xlink:href="#DejaVuSans-35" x="159.033203"/>
      </g>
     </g>
    </g>
    <g id="ytick_6">
     <g id="line2d_9">
      <g>
       <use xlink:href="#m21883cb3c8" x="61.679375" y="70.665896" style="stroke: #000000; stroke-width: 0.8"/>
      </g>
     </g>
     <g id="text_10">
      <!-- 1.50 -->
      <g transform="translate(32.41375 74.465115)scale(0.1 -0.1)">
       <use xlink:href="#DejaVuSans-31"/>
       <use xlink:href="#DejaVuSans-2e" x="63.623047"/>
       <use xlink:href="#DejaVuSans-35" x="95.410156"/>
       <use xlink:href="#DejaVuSans-30" x="159.033203"/>
      </g>
     </g>
    </g>
    <g id="ytick_7">
     <g id="line2d_10">
      <g>
       <use xlink:href="#m21883cb3c8" x="61.679375" y="46.604061" style="stroke: #000000; stroke-width: 0.8"/>
      </g>
     </g>
     <g id="text_11">
      <!-- 1.75 -->
      <g transform="translate(32.41375 50.40328)scale(0.1 -0.1)">
       <use xlink:href="#DejaVuSans-31"/>
       <use xlink:href="#DejaVuSans-2e" x="63.623047"/>
       <use xlink:href="#DejaVuSans-37" x="95.410156"/>
       <use xlink:href="#DejaVuSans-35" x="159.033203"/>
      </g>
     </g>
    </g>
    <g id="ytick_8">
     <g id="line2d_11">
      <g>
       <use xlink:href="#m21883cb3c8" x="61.679375" y="22.542226" style="stroke: #000000; stroke-width: 0.8"/>
      </g>
     </g>
     <g id="text_12">
      <!-- 2.00 -->
      <g transform="translate(32.41375 26.341445)scale(0.1 -0.1)">
       <use xlink:href="#DejaVuSans-32"/>
       <use xlink:href="#DejaVuSans-2e" x="63.623047"/>
       <use xlink:href="#DejaVuSans-30" x="95.410156"/>
       <use xlink:href="#DejaVuSans-30" x="159.033203"/>
      </g>
     </g>
    </g>
    <g id="text_13">
     <!-- other parameters -->
     <g transform="translate(19.918125 157.634063)rotate(-90)scale(0.12 -0.12)">
      <defs>
       <path id="DejaVuSans-6f" d="M 1959 3097 
Q 1497 3097 1228 2736 
Q 959 2375 959 1747 
Q 959 1119 1226 758 
Q 1494 397 1959 397 
Q 2419 397 2687 759 
Q 2956 1122 2956 1747 
Q 2956 2369 2687 2733 
Q 2419 3097 1959 3097 
z
M 1959 3584 
Q 2709 3584 3137 3096 
Q 3566 2609 3566 1747 
Q 3566 888 3137 398 
Q 2709 -91 1959 -91 
Q 1206 -91 779 398 
Q 353 888 353 1747 
Q 353 2609 779 3096 
Q 1206 3584 1959 3584 
z
" transform="scale(0.015625)"/>
       <path id="DejaVuSans-74" d="M 1172 4494 
L 1172 3500 
L 2356 3500 
L 2356 3053 
L 1172 3053 
L 1172 1153 
Q 1172 725 1289 603 
Q 1406 481 1766 481 
L 2356 481 
L 2356 0 
L 1766 0 
Q 1100 0 847 248 
Q 594 497 594 1153 
L 594 3053 
L 172 3053 
L 172 3500 
L 594 3500 
L 594 4494 
L 1172 4494 
z
" transform="scale(0.015625)"/>
       <path id="DejaVuSans-68" d="M 3513 2113 
L 3513 0 
L 2938 0 
L 2938 2094 
Q 2938 2591 2744 2837 
Q 2550 3084 2163 3084 
Q 1697 3084 1428 2787 
Q 1159 2491 1159 1978 
L 1159 0 
L 581 0 
L 581 4863 
L 1159 4863 
L 1159 2956 
Q 1366 3272 1645 3428 
Q 1925 3584 2291 3584 
Q 2894 3584 3203 3211 
Q 3513 2838 3513 2113 
z
" transform="scale(0.015625)"/>
       <path id="DejaVuSans-65" d="M 3597 1894 
L 3597 1613 
L 953 1613 
Q 991 1019 1311 708 
Q 1631 397 2203 397 
Q 2534 397 2845 478 
Q 3156 559 3463 722 
L 3463 178 
Q 3153 47 2828 -22 
Q 2503 -91 2169 -91 
Q 1331 -91 842 396 
Q 353 884 353 1716 
Q 353 2575 817 3079 
Q 1281 3584 2069 3584 
Q 2775 3584 3186 3129 
Q 3597 2675 3597 1894 
z
M 3022 2063 
Q 3016 2534 2758 2815 
Q 2500 3097 2075 3097 
Q 1594 3097 1305 2825 
Q 1016 2553 972 2059 
L 3022 2063 
z
" transform="scale(0.015625)"/>
       <path id="DejaVuSans-72" d="M 2631 2963 
Q 2534 3019 2420 3045 
Q 2306 3072 2169 3072 
Q 1681 3072 1420 2755 
Q 1159 2438 1159 1844 
L 1159 0 
L 581 0 
L 581 3500 
L 1159 3500 
L 1159 2956 
Q 1341 3275 1631 3429 
Q 1922 3584 2338 3584 
Q 2397 3584 2469 3576 
Q 2541 3569 2628 3553 
L 2631 2963 
z
" transform="scale(0.015625)"/>
       <path id="DejaVuSans-20" transform="scale(0.015625)"/>
       <path id="DejaVuSans-70" d="M 1159 525 
L 1159 -1331 
L 581 -1331 
L 581 3500 
L 1159 3500 
L 1159 2969 
Q 1341 3281 1617 3432 
Q 1894 3584 2278 3584 
Q 2916 3584 3314 3078 
Q 3713 2572 3713 1747 
Q 3713 922 3314 415 
Q 2916 -91 2278 -91 
Q 1894 -91 1617 61 
Q 1341 213 1159 525 
z
M 3116 1747 
Q 3116 2381 2855 2742 
Q 2594 3103 2138 3103 
Q 1681 3103 1420 2742 
Q 1159 2381 1159 1747 
Q 1159 1113 1420 752 
Q 1681 391 2138 391 
Q 2594 391 2855 752 
Q 3116 1113 3116 1747 
z
" transform="scale(0.015625)"/>
       <path id="DejaVuSans-61" d="M 2194 1759 
Q 1497 1759 1228 1600 
Q 959 1441 959 1056 
Q 959 750 1161 570 
Q 1363 391 1709 391 
Q 2188 391 2477 730 
Q 2766 1069 2766 1631 
L 2766 1759 
L 2194 1759 
z
M 3341 1997 
L 3341 0 
L 2766 0 
L 2766 531 
Q 2569 213 2275 61 
Q 1981 -91 1556 -91 
Q 1019 -91 701 211 
Q 384 513 384 1019 
Q 384 1609 779 1909 
Q 1175 2209 1959 2209 
L 2766 2209 
L 2766 2266 
Q 2766 2663 2505 2880 
Q 2244 3097 1772 3097 
Q 1472 3097 1187 3025 
Q 903 2953 641 2809 
L 641 3341 
Q 956 3463 1253 3523 
Q 1550 3584 1831 3584 
Q 2591 3584 2966 3190 
Q 3341 2797 3341 1997 
z
" transform="scale(0.015625)"/>
       <path id="DejaVuSans-73" d="M 2834 3397 
L 2834 2853 
Q 2591 2978 2328 3040 
Q 2066 3103 1784 3103 
Q 1356 3103 1142 2972 
Q 928 2841 928 2578 
Q 928 2378 1081 2264 
Q 1234 2150 1697 2047 
L 1894 2003 
Q 2506 1872 2764 1633 
Q 3022 1394 3022 966 
Q 3022 478 2636 193 
Q 2250 -91 1575 -91 
Q 1294 -91 989 -36 
Q 684 19 347 128 
L 347 722 
Q 666 556 975 473 
Q 1284 391 1588 391 
Q 1994 391 2212 530 
Q 2431 669 2431 922 
Q 2431 1156 2273 1281 
Q 2116 1406 1581 1522 
L 1381 1569 
Q 847 1681 609 1914 
Q 372 2147 372 2553 
Q 372 3047 722 3315 
Q 1072 3584 1716 3584 
Q 2034 3584 2315 3537 
Q 2597 3491 2834 3397 
z
" transform="scale(0.015625)"/>
      </defs>
      <use xlink:href="#DejaVuSans-6f"/>
      <use xlink:href="#DejaVuSans-74" x="61.181641"/>
      <use xlink:href="#DejaVuSans-68" x="100.390625"/>
      <use xlink:href="#DejaVuSans-65" x="163.769531"/>
      <use xlink:href="#DejaVuSans-72" x="225.292969"/>
      <use xlink:href="#DejaVuSans-20" x="266.40625"/>
      <use xlink:href="#DejaVuSans-70" x="298.193359"/>
      <use xlink:href="#DejaVuSans-61" x="361.669922"/>
      <use xlink:href="#DejaVuSans-72" x="422.949219"/>
      <use xlink:href="#DejaVuSans-61" x="464.0625"/>
      <use xlink:href="#DejaVuSans-6d" x="525.341797"/>
      <use xlink:href="#DejaVuSans-65" x="622.753906"/>
      <use xlink:href="#DejaVuSans-74" x="684.277344"/>
      <use xlink:href="#DejaVuSans-65" x="723.486328"/>
      <use xlink:href="#DejaVuSans-72" x="785.009766"/>
      <use xlink:href="#DejaVuSans-73" x="826.123047"/>
     </g>
    </g>
   </g>
   <g id="line2d_12">
    <path d="M 69.839403 102.04296 
L 71.227469 102.00733 
L 73.897254 101.942808 
L 76.436753 101.884243 
L 78.858091 101.828072 
L 83.38698 101.728321 
L 87.553155 101.64112 
L 91.41043 101.557089 
L 98.360657 101.409661 
L 109.975144 101.223057 
L 109.975144 101.223057 
L 134.438547 101.1755 
L 143.383248 101.219405 
L 151.01387 101.242501 
L 157.667519 101.30961 
L 163.566209 101.339446 
L 168.863936 101.362388 
L 173.671911 101.381015 
L 178.073072 101.407207 
L 182.130923 101.411206 
L 185.895169 101.421164 
L 189.405447 101.431207 
L 192.69387 101.450721 
L 195.786823 101.456933 
L 198.706246 101.467426 
L 201.47058 101.461296 
L 204.095475 101.4653 
L 206.594326 101.466294 
L 210.131117 101.48331 
L 213.442795 101.470299 
L 216.556312 101.489057 
L 219.967945 101.505585 
L 223.390979 101.497293 
L 226.809952 101.504534 
L 230.018118 101.5081 
L 233.039972 101.509123 
" clip-path="url(#p582b9d0e94)" style="fill: none; stroke-dasharray: 2,3.3; stroke-dashoffset: 0; stroke: #2e1e3b; stroke-width: 2"/>
    <defs>
     <path id="me181d567c5" d="M 0 2 
C 0.530406 2 1.03916 1.789267 1.414214 1.414214 
C 1.789267 1.03916 2 0.530406 2 0 
C 2 -0.530406 1.789267 -1.03916 1.414214 -1.414214 
C 1.03916 -1.789267 0.530406 -2 0 -2 
C -0.530406 -2 -1.03916 -1.789267 -1.414214 -1.414214 
C -1.789267 -1.03916 -2 -0.530406 -2 0 
C -2 0.530406 -1.789267 1.03916 -1.414214 1.414214 
C -1.03916 1.789267 -0.530406 2 0 2 
z
" style="stroke: #2e1e3b"/>
    </defs>
    <g clip-path="url(#p582b9d0e94)">
     <use xlink:href="#me181d567c5" x="69.839403" y="102.04296" style="fill: #2e1e3b; stroke: #2e1e3b"/>
     <use xlink:href="#me181d567c5" x="71.227469" y="102.00733" style="fill: #2e1e3b; stroke: #2e1e3b"/>
     <use xlink:href="#me181d567c5" x="73.897254" y="101.942808" style="fill: #2e1e3b; stroke: #2e1e3b"/>
     <use xlink:href="#me181d567c5" x="76.436753" y="101.884243" style="fill: #2e1e3b; stroke: #2e1e3b"/>
     <use xlink:href="#me181d567c5" x="78.858091" y="101.828072" style="fill: #2e1e3b; stroke: #2e1e3b"/>
     <use xlink:href="#me181d567c5" x="83.38698" y="101.728321" style="fill: #2e1e3b; stroke: #2e1e3b"/>
     <use xlink:href="#me181d567c5" x="87.553155" y="101.64112" style="fill: #2e1e3b; stroke: #2e1e3b"/>
     <use xlink:href="#me181d567c5" x="91.41043" y="101.557089" style="fill: #2e1e3b; stroke: #2e1e3b"/>
     <use xlink:href="#me181d567c5" x="98.360657" y="101.409661" style="fill: #2e1e3b; stroke: #2e1e3b"/>
     <use xlink:href="#me181d567c5" x="109.975144" y="101.223057" style="fill: #2e1e3b; stroke: #2e1e3b"/>
     <use xlink:href="#me181d567c5" x="109.975144" y="101.223057" style="fill: #2e1e3b; stroke: #2e1e3b"/>
     <use xlink:href="#me181d567c5" x="134.438547" y="101.1755" style="fill: #2e1e3b; stroke: #2e1e3b"/>
     <use xlink:href="#me181d567c5" x="143.383248" y="101.219405" style="fill: #2e1e3b; stroke: #2e1e3b"/>
     <use xlink:href="#me181d567c5" x="151.01387" y="101.242501" style="fill: #2e1e3b; stroke: #2e1e3b"/>
     <use xlink:href="#me181d567c5" x="157.667519" y="101.30961" style="fill: #2e1e3b; stroke: #2e1e3b"/>
     <use xlink:href="#me181d567c5" x="163.566209" y="101.339446" style="fill: #2e1e3b; stroke: #2e1e3b"/>
     <use xlink:href="#me181d567c5" x="168.863936" y="101.362388" style="fill: #2e1e3b; stroke: #2e1e3b"/>
     <use xlink:href="#me181d567c5" x="173.671911" y="101.381015" style="fill: #2e1e3b; stroke: #2e1e3b"/>
     <use xlink:href="#me181d567c5" x="178.073072" y="101.407207" style="fill: #2e1e3b; stroke: #2e1e3b"/>
     <use xlink:href="#me181d567c5" x="182.130923" y="101.411206" style="fill: #2e1e3b; stroke: #2e1e3b"/>
     <use xlink:href="#me181d567c5" x="185.895169" y="101.421164" style="fill: #2e1e3b; stroke: #2e1e3b"/>
     <use xlink:href="#me181d567c5" x="189.405447" y="101.431207" style="fill: #2e1e3b; stroke: #2e1e3b"/>
     <use xlink:href="#me181d567c5" x="192.69387" y="101.450721" style="fill: #2e1e3b; stroke: #2e1e3b"/>
     <use xlink:href="#me181d567c5" x="195.786823" y="101.456933" style="fill: #2e1e3b; stroke: #2e1e3b"/>
     <use xlink:href="#me181d567c5" x="198.706246" y="101.467426" style="fill: #2e1e3b; stroke: #2e1e3b"/>
     <use xlink:href="#me181d567c5" x="201.47058" y="101.461296" style="fill: #2e1e3b; stroke: #2e1e3b"/>
     <use xlink:href="#me181d567c5" x="204.095475" y="101.4653" style="fill: #2e1e3b; stroke: #2e1e3b"/>
     <use xlink:href="#me181d567c5" x="206.594326" y="101.466294" style="fill: #2e1e3b; stroke: #2e1e3b"/>
     <use xlink:href="#me181d567c5" x="210.131117" y="101.48331" style="fill: #2e1e3b; stroke: #2e1e3b"/>
     <use xlink:href="#me181d567c5" x="213.442795" y="101.470299" style="fill: #2e1e3b; stroke: #2e1e3b"/>
     <use xlink:href="#me181d567c5" x="216.556312" y="101.489057" style="fill: #2e1e3b; stroke: #2e1e3b"/>
     <use xlink:href="#me181d567c5" x="219.967945" y="101.505585" style="fill: #2e1e3b; stroke: #2e1e3b"/>
     <use xlink:href="#me181d567c5" x="223.390979" y="101.497293" style="fill: #2e1e3b; stroke: #2e1e3b"/>
     <use xlink:href="#me181d567c5" x="226.809952" y="101.504534" style="fill: #2e1e3b; stroke: #2e1e3b"/>
     <use xlink:href="#me181d567c5" x="230.018118" y="101.5081" style="fill: #2e1e3b; stroke: #2e1e3b"/>
     <use xlink:href="#me181d567c5" x="233.039972" y="101.509123" style="fill: #2e1e3b; stroke: #2e1e3b"/>
    </g>
   </g>
   <g id="line2d_13">
    <path d="M 69.839403 25.637199 
L 71.227469 25.423582 
L 73.897254 24.996742 
L 76.436753 24.640382 
L 78.858091 24.269391 
L 83.38698 23.612689 
L 87.553155 23.040853 
L 91.41043 22.541123 
L 98.360657 21.719052 
L 109.975144 20.491612 
L 109.975144 20.491612 
L 134.438547 19.358267 
L 143.383248 19.484039 
L 151.01387 19.592336 
L 157.667519 19.782669 
L 163.566209 19.890189 
L 168.863936 20.01279 
L 173.671911 20.075802 
L 178.073072 20.200332 
L 182.130923 20.262468 
L 185.895169 20.286077 
L 189.405447 20.356991 
L 192.69387 20.400116 
L 195.786823 20.434055 
L 198.706246 20.467525 
L 201.47058 20.488333 
L 204.095475 20.536501 
L 206.594326 20.550081 
L 210.131117 20.591183 
L 213.442795 20.617661 
L 216.556312 20.637473 
L 219.967945 20.673504 
L 223.390979 20.693815 
L 226.809952 20.718665 
L 230.018118 20.732309 
L 233.039972 20.744779 
" clip-path="url(#p582b9d0e94)" style="fill: none; stroke-dasharray: 2,3.3; stroke-dashoffset: 0; stroke: #413d7b; stroke-width: 2"/>
    <defs>
     <path id="me39a866125" d="M 0 2 
C 0.530406 2 1.03916 1.789267 1.414214 1.414214 
C 1.789267 1.03916 2 0.530406 2 0 
C 2 -0.530406 1.789267 -1.03916 1.414214 -1.414214 
C 1.03916 -1.789267 0.530406 -2 0 -2 
C -0.530406 -2 -1.03916 -1.789267 -1.414214 -1.414214 
C -1.789267 -1.03916 -2 -0.530406 -2 0 
C -2 0.530406 -1.789267 1.03916 -1.414214 1.414214 
C -1.03916 1.789267 -0.530406 2 0 2 
z
" style="stroke: #413d7b"/>
    </defs>
    <g clip-path="url(#p582b9d0e94)">
     <use xlink:href="#me39a866125" x="69.839403" y="25.637199" style="fill: #413d7b; stroke: #413d7b"/>
     <use xlink:href="#me39a866125" x="71.227469" y="25.423582" style="fill: #413d7b; stroke: #413d7b"/>
     <use xlink:href="#me39a866125" x="73.897254" y="24.996742" style="fill: #413d7b; stroke: #413d7b"/>
     <use xlink:href="#me39a866125" x="76.436753" y="24.640382" style="fill: #413d7b; stroke: #413d7b"/>
     <use xlink:href="#me39a866125" x="78.858091" y="24.269391" style="fill: #413d7b; stroke: #413d7b"/>
     <use xlink:href="#me39a866125" x="83.38698" y="23.612689" style="fill: #413d7b; stroke: #413d7b"/>
     <use xlink:href="#me39a866125" x="87.553155" y="23.040853" style="fill: #413d7b; stroke: #413d7b"/>
     <use xlink:href="#me39a866125" x="91.41043" y="22.541123" style="fill: #413d7b; stroke: #413d7b"/>
     <use xlink:href="#me39a866125" x="98.360657" y="21.719052" style="fill: #413d7b; stroke: #413d7b"/>
     <use xlink:href="#me39a866125" x="109.975144" y="20.491612" style="fill: #413d7b; stroke: #413d7b"/>
     <use xlink:href="#me39a866125" x="109.975144" y="20.491612" style="fill: #413d7b; stroke: #413d7b"/>
     <use xlink:href="#me39a866125" x="134.438547" y="19.358267" style="fill: #413d7b; stroke: #413d7b"/>
     <use xlink:href="#me39a866125" x="143.383248" y="19.484039" style="fill: #413d7b; stroke: #413d7b"/>
     <use xlink:href="#me39a866125" x="151.01387" y="19.592336" style="fill: #413d7b; stroke: #413d7b"/>
     <use xlink:href="#me39a866125" x="157.667519" y="19.782669" style="fill: #413d7b; stroke: #413d7b"/>
     <use xlink:href="#me39a866125" x="163.566209" y="19.890189" style="fill: #413d7b; stroke: #413d7b"/>
     <use xlink:href="#me39a866125" x="168.863936" y="20.01279" style="fill: #413d7b; stroke: #413d7b"/>
     <use xlink:href="#me39a866125" x="173.671911" y="20.075802" style="fill: #413d7b; stroke: #413d7b"/>
     <use xlink:href="#me39a866125" x="178.073072" y="20.200332" style="fill: #413d7b; stroke: #413d7b"/>
     <use xlink:href="#me39a866125" x="182.130923" y="20.262468" style="fill: #413d7b; stroke: #413d7b"/>
     <use xlink:href="#me39a866125" x="185.895169" y="20.286077" style="fill: #413d7b; stroke: #413d7b"/>
     <use xlink:href="#me39a866125" x="189.405447" y="20.356991" style="fill: #413d7b; stroke: #413d7b"/>
     <use xlink:href="#me39a866125" x="192.69387" y="20.400116" style="fill: #413d7b; stroke: #413d7b"/>
     <use xlink:href="#me39a866125" x="195.786823" y="20.434055" style="fill: #413d7b; stroke: #413d7b"/>
     <use xlink:href="#me39a866125" x="198.706246" y="20.467525" style="fill: #413d7b; stroke: #413d7b"/>
     <use xlink:href="#me39a866125" x="201.47058" y="20.488333" style="fill: #413d7b; stroke: #413d7b"/>
     <use xlink:href="#me39a866125" x="204.095475" y="20.536501" style="fill: #413d7b; stroke: #413d7b"/>
     <use xlink:href="#me39a866125" x="206.594326" y="20.550081" style="fill: #413d7b; stroke: #413d7b"/>
     <use xlink:href="#me39a866125" x="210.131117" y="20.591183" style="fill: #413d7b; stroke: #413d7b"/>
     <use xlink:href="#me39a866125" x="213.442795" y="20.617661" style="fill: #413d7b; stroke: #413d7b"/>
     <use xlink:href="#me39a866125" x="216.556312" y="20.637473" style="fill: #413d7b; stroke: #413d7b"/>
     <use xlink:href="#me39a866125" x="219.967945" y="20.673504" style="fill: #413d7b; stroke: #413d7b"/>
     <use xlink:href="#me39a866125" x="223.390979" y="20.693815" style="fill: #413d7b; stroke: #413d7b"/>
     <use xlink:href="#me39a866125" x="226.809952" y="20.718665" style="fill: #413d7b; stroke: #413d7b"/>
     <use xlink:href="#me39a866125" x="230.018118" y="20.732309" style="fill: #413d7b; stroke: #413d7b"/>
     <use xlink:href="#me39a866125" x="233.039972" y="20.744779" style="fill: #413d7b; stroke: #413d7b"/>
    </g>
   </g>
   <g id="line2d_14">
    <path d="M 69.839403 187.417631 
L 71.227469 187.316075 
L 73.897254 187.125489 
L 76.436753 186.946654 
L 78.858091 186.778572 
L 83.38698 186.495916 
L 87.553155 186.250202 
L 91.41043 186.020537 
L 98.360657 185.682634 
L 109.975144 185.300008 
L 109.975144 185.300008 
L 134.438547 186.330684 
L 143.383248 187.18384 
L 151.01387 187.781673 
L 157.667519 188.280716 
L 163.566209 188.627491 
L 168.863936 188.91089 
L 173.671911 189.130274 
L 178.073072 189.314655 
L 182.130923 189.467645 
L 185.895169 189.596855 
L 189.405447 189.700465 
L 192.69387 189.793135 
L 195.786823 189.881201 
L 198.706246 189.952247 
L 201.47058 190.01744 
L 204.095475 190.073303 
L 206.594326 190.117494 
L 210.131117 190.195172 
L 213.442795 190.25959 
L 216.556312 190.30421 
L 219.967945 190.359994 
L 223.390979 190.407735 
L 226.809952 190.456692 
L 230.018118 190.493622 
L 233.039972 190.523608 
" clip-path="url(#p582b9d0e94)" style="fill: none; stroke-dasharray: 2,3.3; stroke-dashoffset: 0; stroke: #37659e; stroke-width: 2"/>
    <defs>
     <path id="m3175a81c13" d="M 0 2 
C 0.530406 2 1.03916 1.789267 1.414214 1.414214 
C 1.789267 1.03916 2 0.530406 2 0 
C 2 -0.530406 1.789267 -1.03916 1.414214 -1.414214 
C 1.03916 -1.789267 0.530406 -2 0 -2 
C -0.530406 -2 -1.03916 -1.789267 -1.414214 -1.414214 
C -1.789267 -1.03916 -2 -0.530406 -2 0 
C -2 0.530406 -1.789267 1.03916 -1.414214 1.414214 
C -1.03916 1.789267 -0.530406 2 0 2 
z
" style="stroke: #37659e"/>
    </defs>
    <g clip-path="url(#p582b9d0e94)">
     <use xlink:href="#m3175a81c13" x="69.839403" y="187.417631" style="fill: #37659e; stroke: #37659e"/>
     <use xlink:href="#m3175a81c13" x="71.227469" y="187.316075" style="fill: #37659e; stroke: #37659e"/>
     <use xlink:href="#m3175a81c13" x="73.897254" y="187.125489" style="fill: #37659e; stroke: #37659e"/>
     <use xlink:href="#m3175a81c13" x="76.436753" y="186.946654" style="fill: #37659e; stroke: #37659e"/>
     <use xlink:href="#m3175a81c13" x="78.858091" y="186.778572" style="fill: #37659e; stroke: #37659e"/>
     <use xlink:href="#m3175a81c13" x="83.38698" y="186.495916" style="fill: #37659e; stroke: #37659e"/>
     <use xlink:href="#m3175a81c13" x="87.553155" y="186.250202" style="fill: #37659e; stroke: #37659e"/>
     <use xlink:href="#m3175a81c13" x="91.41043" y="186.020537" style="fill: #37659e; stroke: #37659e"/>
     <use xlink:href="#m3175a81c13" x="98.360657" y="185.682634" style="fill: #37659e; stroke: #37659e"/>
     <use xlink:href="#m3175a81c13" x="109.975144" y="185.300008" style="fill: #37659e; stroke: #37659e"/>
     <use xlink:href="#m3175a81c13" x="109.975144" y="185.300008" style="fill: #37659e; stroke: #37659e"/>
     <use xlink:href="#m3175a81c13" x="134.438547" y="186.330684" style="fill: #37659e; stroke: #37659e"/>
     <use xlink:href="#m3175a81c13" x="143.383248" y="187.18384" style="fill: #37659e; stroke: #37659e"/>
     <use xlink:href="#m3175a81c13" x="151.01387" y="187.781673" style="fill: #37659e; stroke: #37659e"/>
     <use xlink:href="#m3175a81c13" x="157.667519" y="188.280716" style="fill: #37659e; stroke: #37659e"/>
     <use xlink:href="#m3175a81c13" x="163.566209" y="188.627491" style="fill: #37659e; stroke: #37659e"/>
     <use xlink:href="#m3175a81c13" x="168.863936" y="188.91089" style="fill: #37659e; stroke: #37659e"/>
     <use xlink:href="#m3175a81c13" x="173.671911" y="189.130274" style="fill: #37659e; stroke: #37659e"/>
     <use xlink:href="#m3175a81c13" x="178.073072" y="189.314655" style="fill: #37659e; stroke: #37659e"/>
     <use xlink:href="#m3175a81c13" x="182.130923" y="189.467645" style="fill: #37659e; stroke: #37659e"/>
     <use xlink:href="#m3175a81c13" x="185.895169" y="189.596855" style="fill: #37659e; stroke: #37659e"/>
     <use xlink:href="#m3175a81c13" x="189.405447" y="189.700465" style="fill: #37659e; stroke: #37659e"/>
     <use xlink:href="#m3175a81c13" x="192.69387" y="189.793135" style="fill: #37659e; stroke: #37659e"/>
     <use xlink:href="#m3175a81c13" x="195.786823" y="189.881201" style="fill: #37659e; stroke: #37659e"/>
     <use xlink:href="#m3175a81c13" x="198.706246" y="189.952247" style="fill: #37659e; stroke: #37659e"/>
     <use xlink:href="#m3175a81c13" x="201.47058" y="190.01744" style="fill: #37659e; stroke: #37659e"/>
     <use xlink:href="#m3175a81c13" x="204.095475" y="190.073303" style="fill: #37659e; stroke: #37659e"/>
     <use xlink:href="#m3175a81c13" x="206.594326" y="190.117494" style="fill: #37659e; stroke: #37659e"/>
     <use xlink:href="#m3175a81c13" x="210.131117" y="190.195172" style="fill: #37659e; stroke: #37659e"/>
     <use xlink:href="#m3175a81c13" x="213.442795" y="190.25959" style="fill: #37659e; stroke: #37659e"/>
     <use xlink:href="#m3175a81c13" x="216.556312" y="190.30421" style="fill: #37659e; stroke: #37659e"/>
     <use xlink:href="#m3175a81c13" x="219.967945" y="190.359994" style="fill: #37659e; stroke: #37659e"/>
     <use xlink:href="#m3175a81c13" x="223.390979" y="190.407735" style="fill: #37659e; stroke: #37659e"/>
     <use xlink:href="#m3175a81c13" x="226.809952" y="190.456692" style="fill: #37659e; stroke: #37659e"/>
     <use xlink:href="#m3175a81c13" x="230.018118" y="190.493622" style="fill: #37659e; stroke: #37659e"/>
     <use xlink:href="#m3175a81c13" x="233.039972" y="190.523608" style="fill: #37659e; stroke: #37659e"/>
    </g>
   </g>
   <g id="patch_3">
    <path d="M 61.679375 199.081875 
L 61.679375 10.8 
" style="fill: none; stroke: #000000; stroke-width: 0.8; stroke-linejoin: miter; stroke-linecap: square"/>
   </g>
   <g id="patch_4">
    <path d="M 61.679375 199.081875 
L 241.2 199.081875 
" style="fill: none; stroke: #000000; stroke-width: 0.8; stroke-linejoin: miter; stroke-linecap: square"/>
   </g>
   <g id="legend_1">
    <g id="patch_5">
     <path d="M 73.42875 268.830469 
L 229.450625 268.830469 
Q 231.450625 268.830469 231.450625 266.830469 
L 231.450625 253.152344 
Q 231.450625 251.152344 229.450625 251.152344 
L 73.42875 251.152344 
Q 71.42875 251.152344 71.42875 253.152344 
L 71.42875 266.830469 
Q 71.42875 268.830469 73.42875 268.830469 
z
" style="fill: #ffffff; opacity: 0.8; stroke: #cccccc; stroke-linejoin: miter"/>
    </g>
    <g id="line2d_15">
     <path d="M 75.42875 259.250781 
L 85.42875 259.250781 
L 95.42875 259.250781 
" style="fill: none; stroke-dasharray: 2,3.3; stroke-dashoffset: 0; stroke: #2e1e3b; stroke-width: 2"/>
     <g>
      <use xlink:href="#me181d567c5" x="85.42875" y="259.250781" style="fill: #2e1e3b; stroke: #2e1e3b"/>
     </g>
    </g>
    <g id="text_14">
     <!-- e -->
     <g transform="translate(103.42875 262.750781)scale(0.1 -0.1)">
      <use xlink:href="#DejaVuSans-65"/>
     </g>
    </g>
    <g id="line2d_16">
     <path d="M 129.581875 259.250781 
L 139.581875 259.250781 
L 149.581875 259.250781 
" style="fill: none; stroke-dasharray: 2,3.3; stroke-dashoffset: 0; stroke: #413d7b; stroke-width: 2"/>
     <g>
      <use xlink:href="#me39a866125" x="139.581875" y="259.250781" style="fill: #413d7b; stroke: #413d7b"/>
     </g>
    </g>
    <g id="text_15">
     <!-- km -->
     <g transform="translate(157.581875 262.750781)scale(0.1 -0.1)">
      <defs>
       <path id="DejaVuSans-6b" d="M 581 4863 
L 1159 4863 
L 1159 1991 
L 2875 3500 
L 3609 3500 
L 1753 1863 
L 3688 0 
L 2938 0 
L 1159 1709 
L 1159 0 
L 581 0 
L 581 4863 
z
" transform="scale(0.015625)"/>
      </defs>
      <use xlink:href="#DejaVuSans-6b"/>
      <use xlink:href="#DejaVuSans-6d" x="57.910156"/>
     </g>
    </g>
    <g id="line2d_17">
     <path d="M 193.113125 259.250781 
L 203.113125 259.250781 
L 213.113125 259.250781 
" style="fill: none; stroke-dasharray: 2,3.3; stroke-dashoffset: 0; stroke: #37659e; stroke-width: 2"/>
     <g>
      <use xlink:href="#m3175a81c13" x="203.113125" y="259.250781" style="fill: #37659e; stroke: #37659e"/>
     </g>
    </g>
    <g id="text_16">
     <!-- n -->
     <g transform="translate(221.113125 262.750781)scale(0.1 -0.1)">
      <defs>
       <path id="DejaVuSans-6e" d="M 3513 2113 
L 3513 0 
L 2938 0 
L 2938 2094 
Q 2938 2591 2744 2837 
Q 2550 3084 2163 3084 
Q 1697 3084 1428 2787 
Q 1159 2491 1159 1978 
L 1159 0 
L 581 0 
L 581 3500 
L 1159 3500 
L 1159 2956 
Q 1366 3272 1645 3428 
Q 1925 3584 2291 3584 
Q 2894 3584 3203 3211 
Q 3513 2838 3513 2113 
z
" transform="scale(0.015625)"/>
      </defs>
      <use xlink:href="#DejaVuSans-6e"/>
     </g>
    </g>
   </g>
  </g>
 </g>
 <defs>
  <clipPath id="p582b9d0e94">
   <rect x="61.679375" y="10.8" width="179.520625" height="188.281875"/>
  </clipPath>
 </defs>
</svg>
