<?xml version="1.0" encoding="utf-8" standalone="no"?>
<!DOCTYPE svg PUBLIC "-//W3C//DTD SVG 1.1//EN"
  "http://www.w3.org/Graphics/SVG/1.1/DTD/svg11.dtd">
<svg xmlns:xlink="http://www.w3.org/1999/xlink" width="252pt" height="288pt" viewBox="0 0 252 288" xmlns="http://www.w3.org/2000/svg" version="1.1">
 <metadata>
  <rdf:RDF xmlns:dc="http://purl.org/dc/elements/1.1/" xmlns:cc="http://creativecommons.org/ns#" xmlns:rdf="http://www.w3.org/1999/02/22-rdf-syntax-ns#">
   <cc:Work>
    <dc:type rdf:resource="http://purl.org/dc/dcmitype/StillImage"/>
    <dc:date>2022-07-01T01:16:09.428924</dc:date>
    <dc:format>image/svg+xml</dc:format>
    <dc:creator>
     <cc:Agent>
      <dc:title>Matplotlib v3.5.2, https://matplotlib.org/</dc:title>
     </cc:Agent>
    </dc:creator>
   </cc:Work>
  </rdf:RDF>
 </metadata>
 <defs>
  <style type="text/css">*{stroke-linejoin: round; stroke-linecap: butt}</style>
 </defs>
 <g id="figure_1">
  <g id="patch_1">
   <path d="M 0 288 
L 252 288 
L 252 0 
L 0 0 
z
" style="fill: #ffffff"/>
  </g>
  <g id="axes_1">
   <g id="patch_2">
    <path d="M 55.316875 199.081875 
L 241.2 199.081875 
L 241.2 10.8 
L 55.316875 10.8 
z
" style="fill: #ffffff"/>
   </g>
   <g id="matplotlib.axis_1">
    <g id="xtick_1">
     <g id="line2d_1">
      <defs>
       <path id="md848c3d197" d="M 0 0 
L 0 3.5 
" style="stroke: #000000; stroke-width: 0.8"/>
      </defs>
      <g>
       <use xlink:href="#md848c3d197" x="81.649869" y="199.081875" style="stroke: #000000; stroke-width: 0.8"/>
      </g>
     </g>
     <g id="text_1">
      <!-- 1.95 -->
      <g transform="translate(70.517056 213.680313)scale(0.1 -0.1)">
       <defs>
        <path id="DejaVuSans-31" d="M 794 531 
L 1825 531 
L 1825 4091 
L 703 3866 
L 703 4441 
L 1819 4666 
L 2450 4666 
L 2450 531 
L 3481 531 
L 3481 0 
L 794 0 
L 794 531 
z
" transform="scale(0.015625)"/>
        <path id="DejaVuSans-2e" d="M 684 794 
L 1344 794 
L 1344 0 
L 684 0 
L 684 794 
z
" transform="scale(0.015625)"/>
        <path id="DejaVuSans-39" d="M 703 97 
L 703 672 
Q 941 559 1184 500 
Q 1428 441 1663 441 
Q 2288 441 2617 861 
Q 2947 1281 2994 2138 
Q 2813 1869 2534 1725 
Q 2256 1581 1919 1581 
Q 1219 1581 811 2004 
Q 403 2428 403 3163 
Q 403 3881 828 4315 
Q 1253 4750 1959 4750 
Q 2769 4750 3195 4129 
Q 3622 3509 3622 2328 
Q 3622 1225 3098 567 
Q 2575 -91 1691 -91 
Q 1453 -91 1209 -44 
Q 966 3 703 97 
z
M 1959 2075 
Q 2384 2075 2632 2365 
Q 2881 2656 2881 3163 
Q 2881 3666 2632 3958 
Q 2384 4250 1959 4250 
Q 1534 4250 1286 3958 
Q 1038 3666 1038 3163 
Q 1038 2656 1286 2365 
Q 1534 2075 1959 2075 
z
" transform="scale(0.015625)"/>
        <path id="DejaVuSans-35" d="M 691 4666 
L 3169 4666 
L 3169 4134 
L 1269 4134 
L 1269 2991 
Q 1406 3038 1543 3061 
Q 1681 3084 1819 3084 
Q 2600 3084 3056 2656 
Q 3513 2228 3513 1497 
Q 3513 744 3044 326 
Q 2575 -91 1722 -91 
Q 1428 -91 1123 -41 
Q 819 9 494 109 
L 494 744 
Q 775 591 1075 516 
Q 1375 441 1709 441 
Q 2250 441 2565 725 
Q 2881 1009 2881 1497 
Q 2881 1984 2565 2268 
Q 2250 2553 1709 2553 
Q 1456 2553 1204 2497 
Q 953 2441 691 2322 
L 691 4666 
z
" transform="scale(0.015625)"/>
       </defs>
       <use xlink:href="#DejaVuSans-31"/>
       <use xlink:href="#DejaVuSans-2e" x="63.623047"/>
       <use xlink:href="#DejaVuSans-39" x="95.410156"/>
       <use xlink:href="#DejaVuSans-35" x="159.033203"/>
      </g>
     </g>
    </g>
    <g id="xtick_2">
     <g id="line2d_2">
      <g>
       <use xlink:href="#md848c3d197" x="129.034223" y="199.081875" style="stroke: #000000; stroke-width: 0.8"/>
      </g>
     </g>
     <g id="text_2">
      <!-- 2.00 -->
      <g transform="translate(117.90141 213.680313)scale(0.1 -0.1)">
       <defs>
        <path id="DejaVuSans-32" d="M 1228 531 
L 3431 531 
L 3431 0 
L 469 0 
L 469 531 
Q 828 903 1448 1529 
Q 2069 2156 2228 2338 
Q 2531 2678 2651 2914 
Q 2772 3150 2772 3378 
Q 2772 3750 2511 3984 
Q 2250 4219 1831 4219 
Q 1534 4219 1204 4116 
Q 875 4013 500 3803 
L 500 4441 
Q 881 4594 1212 4672 
Q 1544 4750 1819 4750 
Q 2544 4750 2975 4387 
Q 3406 4025 3406 3419 
Q 3406 3131 3298 2873 
Q 3191 2616 2906 2266 
Q 2828 2175 2409 1742 
Q 1991 1309 1228 531 
z
" transform="scale(0.015625)"/>
        <path id="DejaVuSans-30" d="M 2034 4250 
Q 1547 4250 1301 3770 
Q 1056 3291 1056 2328 
Q 1056 1369 1301 889 
Q 1547 409 2034 409 
Q 2525 409 2770 889 
Q 3016 1369 3016 2328 
Q 3016 3291 2770 3770 
Q 2525 4250 2034 4250 
z
M 2034 4750 
Q 2819 4750 3233 4129 
Q 3647 3509 3647 2328 
Q 3647 1150 3233 529 
Q 2819 -91 2034 -91 
Q 1250 -91 836 529 
Q 422 1150 422 2328 
Q 422 3509 836 4129 
Q 1250 4750 2034 4750 
z
" transform="scale(0.015625)"/>
       </defs>
       <use xlink:href="#DejaVuSans-32"/>
       <use xlink:href="#DejaVuSans-2e" x="63.623047"/>
       <use xlink:href="#DejaVuSans-30" x="95.410156"/>
       <use xlink:href="#DejaVuSans-30" x="159.033203"/>
      </g>
     </g>
    </g>
    <g id="xtick_3">
     <g id="line2d_3">
      <g>
       <use xlink:href="#md848c3d197" x="176.418576" y="199.081875" style="stroke: #000000; stroke-width: 0.8"/>
      </g>
     </g>
     <g id="text_3">
      <!-- 2.05 -->
      <g transform="translate(165.285764 213.680313)scale(0.1 -0.1)">
       <use xlink:href="#DejaVuSans-32"/>
       <use xlink:href="#DejaVuSans-2e" x="63.623047"/>
       <use xlink:href="#DejaVuSans-30" x="95.410156"/>
       <use xlink:href="#DejaVuSans-35" x="159.033203"/>
      </g>
     </g>
    </g>
    <g id="xtick_4">
     <g id="line2d_4">
      <g>
       <use xlink:href="#md848c3d197" x="223.80293" y="199.081875" style="stroke: #000000; stroke-width: 0.8"/>
      </g>
     </g>
     <g id="text_4">
      <!-- 2.10 -->
      <g transform="translate(212.670118 213.680313)scale(0.1 -0.1)">
       <use xlink:href="#DejaVuSans-32"/>
       <use xlink:href="#DejaVuSans-2e" x="63.623047"/>
       <use xlink:href="#DejaVuSans-31" x="95.410156"/>
       <use xlink:href="#DejaVuSans-30" x="159.033203"/>
      </g>
     </g>
    </g>
    <g id="text_5">
     <!-- km -->
     <g transform="translate(138.939688 234.878125)scale(0.12 -0.12)">
      <defs>
       <path id="DejaVuSans-6b" d="M 581 4863 
L 1159 4863 
L 1159 1991 
L 2875 3500 
L 3609 3500 
L 1753 1863 
L 3688 0 
L 2938 0 
L 1159 1709 
L 1159 0 
L 581 0 
L 581 4863 
z
" transform="scale(0.015625)"/>
       <path id="DejaVuSans-6d" d="M 3328 2828 
Q 3544 3216 3844 3400 
Q 4144 3584 4550 3584 
Q 5097 3584 5394 3201 
Q 5691 2819 5691 2113 
L 5691 0 
L 5113 0 
L 5113 2094 
Q 5113 2597 4934 2840 
Q 4756 3084 4391 3084 
Q 3944 3084 3684 2787 
Q 3425 2491 3425 1978 
L 3425 0 
L 2847 0 
L 2847 2094 
Q 2847 2600 2669 2842 
Q 2491 3084 2119 3084 
Q 1678 3084 1418 2786 
Q 1159 2488 1159 1978 
L 1159 0 
L 581 0 
L 581 3500 
L 1159 3500 
L 1159 2956 
Q 1356 3278 1631 3431 
Q 1906 3584 2284 3584 
Q 2666 3584 2933 3390 
Q 3200 3197 3328 2828 
z
" transform="scale(0.015625)"/>
      </defs>
      <use xlink:href="#DejaVuSans-6b"/>
      <use xlink:href="#DejaVuSans-6d" x="57.910156"/>
     </g>
    </g>
   </g>
   <g id="matplotlib.axis_2">
    <g id="ytick_1">
     <g id="line2d_5">
      <defs>
       <path id="m07527e0144" d="M 0 0 
L -3.5 0 
" style="stroke: #000000; stroke-width: 0.8"/>
      </defs>
      <g>
       <use xlink:href="#m07527e0144" x="55.316875" y="176.955977" style="stroke: #000000; stroke-width: 0.8"/>
      </g>
     </g>
     <g id="text_6">
      <!-- 0.5 -->
      <g transform="translate(32.41375 180.755196)scale(0.1 -0.1)">
       <use xlink:href="#DejaVuSans-30"/>
       <use xlink:href="#DejaVuSans-2e" x="63.623047"/>
       <use xlink:href="#DejaVuSans-35" x="95.410156"/>
      </g>
     </g>
    </g>
    <g id="ytick_2">
     <g id="line2d_6">
      <g>
       <use xlink:href="#m07527e0144" x="55.316875" y="144.878884" style="stroke: #000000; stroke-width: 0.8"/>
      </g>
     </g>
     <g id="text_7">
      <!-- 1.0 -->
      <g transform="translate(32.41375 148.678103)scale(0.1 -0.1)">
       <use xlink:href="#DejaVuSans-31"/>
       <use xlink:href="#DejaVuSans-2e" x="63.623047"/>
       <use xlink:href="#DejaVuSans-30" x="95.410156"/>
      </g>
     </g>
    </g>
    <g id="ytick_3">
     <g id="line2d_7">
      <g>
       <use xlink:href="#m07527e0144" x="55.316875" y="112.801791" style="stroke: #000000; stroke-width: 0.8"/>
      </g>
     </g>
     <g id="text_8">
      <!-- 1.5 -->
      <g transform="translate(32.41375 116.60101)scale(0.1 -0.1)">
       <use xlink:href="#DejaVuSans-31"/>
       <use xlink:href="#DejaVuSans-2e" x="63.623047"/>
       <use xlink:href="#DejaVuSans-35" x="95.410156"/>
      </g>
     </g>
    </g>
    <g id="ytick_4">
     <g id="line2d_8">
      <g>
       <use xlink:href="#m07527e0144" x="55.316875" y="80.724698" style="stroke: #000000; stroke-width: 0.8"/>
      </g>
     </g>
     <g id="text_9">
      <!-- 2.0 -->
      <g transform="translate(32.41375 84.523916)scale(0.1 -0.1)">
       <use xlink:href="#DejaVuSans-32"/>
       <use xlink:href="#DejaVuSans-2e" x="63.623047"/>
       <use xlink:href="#DejaVuSans-30" x="95.410156"/>
      </g>
     </g>
    </g>
    <g id="ytick_5">
     <g id="line2d_9">
      <g>
       <use xlink:href="#m07527e0144" x="55.316875" y="48.647605" style="stroke: #000000; stroke-width: 0.8"/>
      </g>
     </g>
     <g id="text_10">
      <!-- 2.5 -->
      <g transform="translate(32.41375 52.446823)scale(0.1 -0.1)">
       <use xlink:href="#DejaVuSans-32"/>
       <use xlink:href="#DejaVuSans-2e" x="63.623047"/>
       <use xlink:href="#DejaVuSans-35" x="95.410156"/>
      </g>
     </g>
    </g>
    <g id="ytick_6">
     <g id="line2d_10">
      <g>
       <use xlink:href="#m07527e0144" x="55.316875" y="16.570511" style="stroke: #000000; stroke-width: 0.8"/>
      </g>
     </g>
     <g id="text_11">
      <!-- 3.0 -->
      <g transform="translate(32.41375 20.36973)scale(0.1 -0.1)">
       <defs>
        <path id="DejaVuSans-33" d="M 2597 2516 
Q 3050 2419 3304 2112 
Q 3559 1806 3559 1356 
Q 3559 666 3084 287 
Q 2609 -91 1734 -91 
Q 1441 -91 1130 -33 
Q 819 25 488 141 
L 488 750 
Q 750 597 1062 519 
Q 1375 441 1716 441 
Q 2309 441 2620 675 
Q 2931 909 2931 1356 
Q 2931 1769 2642 2001 
Q 2353 2234 1838 2234 
L 1294 2234 
L 1294 2753 
L 1863 2753 
Q 2328 2753 2575 2939 
Q 2822 3125 2822 3475 
Q 2822 3834 2567 4026 
Q 2313 4219 1838 4219 
Q 1578 4219 1281 4162 
Q 984 4106 628 3988 
L 628 4550 
Q 988 4650 1302 4700 
Q 1616 4750 1894 4750 
Q 2613 4750 3031 4423 
Q 3450 4097 3450 3541 
Q 3450 3153 3228 2886 
Q 3006 2619 2597 2516 
z
" transform="scale(0.015625)"/>
       </defs>
       <use xlink:href="#DejaVuSans-33"/>
       <use xlink:href="#DejaVuSans-2e" x="63.623047"/>
       <use xlink:href="#DejaVuSans-30" x="95.410156"/>
      </g>
     </g>
    </g>
    <g id="text_12">
     <!-- other parameters -->
     <g transform="translate(19.918125 157.634063)rotate(-90)scale(0.12 -0.12)">
      <defs>
       <path id="DejaVuSans-6f" d="M 1959 3097 
Q 1497 3097 1228 2736 
Q 959 2375 959 1747 
Q 959 1119 1226 758 
Q 1494 397 1959 397 
Q 2419 397 2687 759 
Q 2956 1122 2956 1747 
Q 2956 2369 2687 2733 
Q 2419 3097 1959 3097 
z
M 1959 3584 
Q 2709 3584 3137 3096 
Q 3566 2609 3566 1747 
Q 3566 888 3137 398 
Q 2709 -91 1959 -91 
Q 1206 -91 779 398 
Q 353 888 353 1747 
Q 353 2609 779 3096 
Q 1206 3584 1959 3584 
z
" transform="scale(0.015625)"/>
       <path id="DejaVuSans-74" d="M 1172 4494 
L 1172 3500 
L 2356 3500 
L 2356 3053 
L 1172 3053 
L 1172 1153 
Q 1172 725 1289 603 
Q 1406 481 1766 481 
L 2356 481 
L 2356 0 
L 1766 0 
Q 1100 0 847 248 
Q 594 497 594 1153 
L 594 3053 
L 172 3053 
L 172 3500 
L 594 3500 
L 594 4494 
L 1172 4494 
z
" transform="scale(0.015625)"/>
       <path id="DejaVuSans-68" d="M 3513 2113 
L 3513 0 
L 2938 0 
L 2938 2094 
Q 2938 2591 2744 2837 
Q 2550 3084 2163 3084 
Q 1697 3084 1428 2787 
Q 1159 2491 1159 1978 
L 1159 0 
L 581 0 
L 581 4863 
L 1159 4863 
L 1159 2956 
Q 1366 3272 1645 3428 
Q 1925 3584 2291 3584 
Q 2894 3584 3203 3211 
Q 3513 2838 3513 2113 
z
" transform="scale(0.015625)"/>
       <path id="DejaVuSans-65" d="M 3597 1894 
L 3597 1613 
L 953 1613 
Q 991 1019 1311 708 
Q 1631 397 2203 397 
Q 2534 397 2845 478 
Q 3156 559 3463 722 
L 3463 178 
Q 3153 47 2828 -22 
Q 2503 -91 2169 -91 
Q 1331 -91 842 396 
Q 353 884 353 1716 
Q 353 2575 817 3079 
Q 1281 3584 2069 3584 
Q 2775 3584 3186 3129 
Q 3597 2675 3597 1894 
z
M 3022 2063 
Q 3016 2534 2758 2815 
Q 2500 3097 2075 3097 
Q 1594 3097 1305 2825 
Q 1016 2553 972 2059 
L 3022 2063 
z
" transform="scale(0.015625)"/>
       <path id="DejaVuSans-72" d="M 2631 2963 
Q 2534 3019 2420 3045 
Q 2306 3072 2169 3072 
Q 1681 3072 1420 2755 
Q 1159 2438 1159 1844 
L 1159 0 
L 581 0 
L 581 3500 
L 1159 3500 
L 1159 2956 
Q 1341 3275 1631 3429 
Q 1922 3584 2338 3584 
Q 2397 3584 2469 3576 
Q 2541 3569 2628 3553 
L 2631 2963 
z
" transform="scale(0.015625)"/>
       <path id="DejaVuSans-20" transform="scale(0.015625)"/>
       <path id="DejaVuSans-70" d="M 1159 525 
L 1159 -1331 
L 581 -1331 
L 581 3500 
L 1159 3500 
L 1159 2969 
Q 1341 3281 1617 3432 
Q 1894 3584 2278 3584 
Q 2916 3584 3314 3078 
Q 3713 2572 3713 1747 
Q 3713 922 3314 415 
Q 2916 -91 2278 -91 
Q 1894 -91 1617 61 
Q 1341 213 1159 525 
z
M 3116 1747 
Q 3116 2381 2855 2742 
Q 2594 3103 2138 3103 
Q 1681 3103 1420 2742 
Q 1159 2381 1159 1747 
Q 1159 1113 1420 752 
Q 1681 391 2138 391 
Q 2594 391 2855 752 
Q 3116 1113 3116 1747 
z
" transform="scale(0.015625)"/>
       <path id="DejaVuSans-61" d="M 2194 1759 
Q 1497 1759 1228 1600 
Q 959 1441 959 1056 
Q 959 750 1161 570 
Q 1363 391 1709 391 
Q 2188 391 2477 730 
Q 2766 1069 2766 1631 
L 2766 1759 
L 2194 1759 
z
M 3341 1997 
L 3341 0 
L 2766 0 
L 2766 531 
Q 2569 213 2275 61 
Q 1981 -91 1556 -91 
Q 1019 -91 701 211 
Q 384 513 384 1019 
Q 384 1609 779 1909 
Q 1175 2209 1959 2209 
L 2766 2209 
L 2766 2266 
Q 2766 2663 2505 2880 
Q 2244 3097 1772 3097 
Q 1472 3097 1187 3025 
Q 903 2953 641 2809 
L 641 3341 
Q 956 3463 1253 3523 
Q 1550 3584 1831 3584 
Q 2591 3584 2966 3190 
Q 3341 2797 3341 1997 
z
" transform="scale(0.015625)"/>
       <path id="DejaVuSans-73" d="M 2834 3397 
L 2834 2853 
Q 2591 2978 2328 3040 
Q 2066 3103 1784 3103 
Q 1356 3103 1142 2972 
Q 928 2841 928 2578 
Q 928 2378 1081 2264 
Q 1234 2150 1697 2047 
L 1894 2003 
Q 2506 1872 2764 1633 
Q 3022 1394 3022 966 
Q 3022 478 2636 193 
Q 2250 -91 1575 -91 
Q 1294 -91 989 -36 
Q 684 19 347 128 
L 347 722 
Q 666 556 975 473 
Q 1284 391 1588 391 
Q 1994 391 2212 530 
Q 2431 669 2431 922 
Q 2431 1156 2273 1281 
Q 2116 1406 1581 1522 
L 1381 1569 
Q 847 1681 609 1914 
Q 372 2147 372 2553 
Q 372 3047 722 3315 
Q 1072 3584 1716 3584 
Q 2034 3584 2315 3537 
Q 2597 3491 2834 3397 
z
" transform="scale(0.015625)"/>
      </defs>
      <use xlink:href="#DejaVuSans-6f"/>
      <use xlink:href="#DejaVuSans-74" x="61.181641"/>
      <use xlink:href="#DejaVuSans-68" x="100.390625"/>
      <use xlink:href="#DejaVuSans-65" x="163.769531"/>
      <use xlink:href="#DejaVuSans-72" x="225.292969"/>
      <use xlink:href="#DejaVuSans-20" x="266.40625"/>
      <use xlink:href="#DejaVuSans-70" x="298.193359"/>
      <use xlink:href="#DejaVuSans-61" x="361.669922"/>
      <use xlink:href="#DejaVuSans-72" x="422.949219"/>
      <use xlink:href="#DejaVuSans-61" x="464.0625"/>
      <use xlink:href="#DejaVuSans-6d" x="525.341797"/>
      <use xlink:href="#DejaVuSans-65" x="622.753906"/>
      <use xlink:href="#DejaVuSans-74" x="684.277344"/>
      <use xlink:href="#DejaVuSans-65" x="723.486328"/>
      <use xlink:href="#DejaVuSans-72" x="785.009766"/>
      <use xlink:href="#DejaVuSans-73" x="826.123047"/>
     </g>
    </g>
   </g>
   <g id="line2d_11">
    <path d="M 63.766108 133.497562 
L 70.049822 133.476052 
L 76.23904 133.442764 
L 82.336563 133.389236 
L 94.267116 133.370906 
L 105.861553 133.309164 
L 128.114284 133.241962 
L 149.225335 133.169832 
L 149.225335 133.169832 
L 169.30616 133.130365 
L 188.452648 133.069536 
L 197.701919 133.067019 
L 206.747894 133.111803 
L 215.599316 133.047679 
L 224.264378 133.05732 
L 232.750767 133.001434 
" clip-path="url(#pd5c2053a92)" style="fill: none; stroke-dasharray: 2,3.3; stroke-dashoffset: 0; stroke: #2e1e3b; stroke-width: 2"/>
    <defs>
     <path id="m1194e91f04" d="M 0 2 
C 0.530406 2 1.03916 1.789267 1.414214 1.414214 
C 1.789267 1.03916 2 0.530406 2 0 
C 2 -0.530406 1.789267 -1.03916 1.414214 -1.414214 
C 1.03916 -1.789267 0.530406 -2 0 -2 
C -0.530406 -2 -1.03916 -1.789267 -1.414214 -1.414214 
C -1.789267 -1.03916 -2 -0.530406 -2 0 
C -2 0.530406 -1.789267 1.03916 -1.414214 1.414214 
C -1.03916 1.789267 -0.530406 2 0 2 
z
" style="stroke: #2e1e3b"/>
    </defs>
    <g clip-path="url(#pd5c2053a92)">
     <use xlink:href="#m1194e91f04" x="63.766108" y="133.497562" style="fill: #2e1e3b; stroke: #2e1e3b"/>
     <use xlink:href="#m1194e91f04" x="70.049822" y="133.476052" style="fill: #2e1e3b; stroke: #2e1e3b"/>
     <use xlink:href="#m1194e91f04" x="76.23904" y="133.442764" style="fill: #2e1e3b; stroke: #2e1e3b"/>
     <use xlink:href="#m1194e91f04" x="82.336563" y="133.389236" style="fill: #2e1e3b; stroke: #2e1e3b"/>
     <use xlink:href="#m1194e91f04" x="94.267116" y="133.370906" style="fill: #2e1e3b; stroke: #2e1e3b"/>
     <use xlink:href="#m1194e91f04" x="105.861553" y="133.309164" style="fill: #2e1e3b; stroke: #2e1e3b"/>
     <use xlink:href="#m1194e91f04" x="128.114284" y="133.241962" style="fill: #2e1e3b; stroke: #2e1e3b"/>
     <use xlink:href="#m1194e91f04" x="149.225335" y="133.169832" style="fill: #2e1e3b; stroke: #2e1e3b"/>
     <use xlink:href="#m1194e91f04" x="149.225335" y="133.169832" style="fill: #2e1e3b; stroke: #2e1e3b"/>
     <use xlink:href="#m1194e91f04" x="169.30616" y="133.130365" style="fill: #2e1e3b; stroke: #2e1e3b"/>
     <use xlink:href="#m1194e91f04" x="188.452648" y="133.069536" style="fill: #2e1e3b; stroke: #2e1e3b"/>
     <use xlink:href="#m1194e91f04" x="197.701919" y="133.067019" style="fill: #2e1e3b; stroke: #2e1e3b"/>
     <use xlink:href="#m1194e91f04" x="206.747894" y="133.111803" style="fill: #2e1e3b; stroke: #2e1e3b"/>
     <use xlink:href="#m1194e91f04" x="215.599316" y="133.047679" style="fill: #2e1e3b; stroke: #2e1e3b"/>
     <use xlink:href="#m1194e91f04" x="224.264378" y="133.05732" style="fill: #2e1e3b; stroke: #2e1e3b"/>
     <use xlink:href="#m1194e91f04" x="232.750767" y="133.001434" style="fill: #2e1e3b; stroke: #2e1e3b"/>
    </g>
   </g>
   <g id="line2d_12">
    <path d="M 63.766108 42.455675 
L 70.049822 41.884281 
L 76.23904 41.285417 
L 82.336563 40.306653 
L 94.267116 38.973508 
L 105.861553 37.459203 
L 128.114284 34.423885 
L 149.225335 31.495304 
L 149.225335 31.495304 
L 169.30616 28.555452 
L 188.452648 25.713378 
L 197.701919 24.409857 
L 206.747894 23.062018 
L 215.599316 21.69845 
L 224.264378 20.303514 
L 232.750767 19.358267 
" clip-path="url(#pd5c2053a92)" style="fill: none; stroke-dasharray: 2,3.3; stroke-dashoffset: 0; stroke: #413d7b; stroke-width: 2"/>
    <defs>
     <path id="m8bd4000862" d="M 0 2 
C 0.530406 2 1.03916 1.789267 1.414214 1.414214 
C 1.789267 1.03916 2 0.530406 2 0 
C 2 -0.530406 1.789267 -1.03916 1.414214 -1.414214 
C 1.03916 -1.789267 0.530406 -2 0 -2 
C -0.530406 -2 -1.03916 -1.789267 -1.414214 -1.414214 
C -1.789267 -1.03916 -2 -0.530406 -2 0 
C -2 0.530406 -1.789267 1.03916 -1.414214 1.414214 
C -1.03916 1.789267 -0.530406 2 0 2 
z
" style="stroke: #413d7b"/>
    </defs>
    <g clip-path="url(#pd5c2053a92)">
     <use xlink:href="#m8bd4000862" x="63.766108" y="42.455675" style="fill: #413d7b; stroke: #413d7b"/>
     <use xlink:href="#m8bd4000862" x="70.049822" y="41.884281" style="fill: #413d7b; stroke: #413d7b"/>
     <use xlink:href="#m8bd4000862" x="76.23904" y="41.285417" style="fill: #413d7b; stroke: #413d7b"/>
     <use xlink:href="#m8bd4000862" x="82.336563" y="40.306653" style="fill: #413d7b; stroke: #413d7b"/>
     <use xlink:href="#m8bd4000862" x="94.267116" y="38.973508" style="fill: #413d7b; stroke: #413d7b"/>
     <use xlink:href="#m8bd4000862" x="105.861553" y="37.459203" style="fill: #413d7b; stroke: #413d7b"/>
     <use xlink:href="#m8bd4000862" x="128.114284" y="34.423885" style="fill: #413d7b; stroke: #413d7b"/>
     <use xlink:href="#m8bd4000862" x="149.225335" y="31.495304" style="fill: #413d7b; stroke: #413d7b"/>
     <use xlink:href="#m8bd4000862" x="149.225335" y="31.495304" style="fill: #413d7b; stroke: #413d7b"/>
     <use xlink:href="#m8bd4000862" x="169.30616" y="28.555452" style="fill: #413d7b; stroke: #413d7b"/>
     <use xlink:href="#m8bd4000862" x="188.452648" y="25.713378" style="fill: #413d7b; stroke: #413d7b"/>
     <use xlink:href="#m8bd4000862" x="197.701919" y="24.409857" style="fill: #413d7b; stroke: #413d7b"/>
     <use xlink:href="#m8bd4000862" x="206.747894" y="23.062018" style="fill: #413d7b; stroke: #413d7b"/>
     <use xlink:href="#m8bd4000862" x="215.599316" y="21.69845" style="fill: #413d7b; stroke: #413d7b"/>
     <use xlink:href="#m8bd4000862" x="224.264378" y="20.303514" style="fill: #413d7b; stroke: #413d7b"/>
     <use xlink:href="#m8bd4000862" x="232.750767" y="19.358267" style="fill: #413d7b; stroke: #413d7b"/>
    </g>
   </g>
   <g id="line2d_13">
    <path d="M 63.766108 190.523608 
L 70.049822 190.356782 
L 76.23904 190.157815 
L 82.336563 190.10155 
L 94.267116 189.910703 
L 105.861553 189.749169 
L 128.114284 189.45371 
L 149.225335 189.21178 
L 149.225335 189.21178 
L 169.30616 189.072878 
L 188.452648 189.023379 
L 197.701919 189.014005 
L 206.747894 189.020797 
L 215.599316 188.997983 
L 224.264378 188.984412 
L 232.750767 189.07628 
" clip-path="url(#pd5c2053a92)" style="fill: none; stroke-dasharray: 2,3.3; stroke-dashoffset: 0; stroke: #37659e; stroke-width: 2"/>
    <defs>
     <path id="md062726a7a" d="M 0 2 
C 0.530406 2 1.03916 1.789267 1.414214 1.414214 
C 1.789267 1.03916 2 0.530406 2 0 
C 2 -0.530406 1.789267 -1.03916 1.414214 -1.414214 
C 1.03916 -1.789267 0.530406 -2 0 -2 
C -0.530406 -2 -1.03916 -1.789267 -1.414214 -1.414214 
C -1.789267 -1.03916 -2 -0.530406 -2 0 
C -2 0.530406 -1.789267 1.03916 -1.414214 1.414214 
C -1.03916 1.789267 -0.530406 2 0 2 
z
" style="stroke: #37659e"/>
    </defs>
    <g clip-path="url(#pd5c2053a92)">
     <use xlink:href="#md062726a7a" x="63.766108" y="190.523608" style="fill: #37659e; stroke: #37659e"/>
     <use xlink:href="#md062726a7a" x="70.049822" y="190.356782" style="fill: #37659e; stroke: #37659e"/>
     <use xlink:href="#md062726a7a" x="76.23904" y="190.157815" style="fill: #37659e; stroke: #37659e"/>
     <use xlink:href="#md062726a7a" x="82.336563" y="190.10155" style="fill: #37659e; stroke: #37659e"/>
     <use xlink:href="#md062726a7a" x="94.267116" y="189.910703" style="fill: #37659e; stroke: #37659e"/>
     <use xlink:href="#md062726a7a" x="105.861553" y="189.749169" style="fill: #37659e; stroke: #37659e"/>
     <use xlink:href="#md062726a7a" x="128.114284" y="189.45371" style="fill: #37659e; stroke: #37659e"/>
     <use xlink:href="#md062726a7a" x="149.225335" y="189.21178" style="fill: #37659e; stroke: #37659e"/>
     <use xlink:href="#md062726a7a" x="149.225335" y="189.21178" style="fill: #37659e; stroke: #37659e"/>
     <use xlink:href="#md062726a7a" x="169.30616" y="189.072878" style="fill: #37659e; stroke: #37659e"/>
     <use xlink:href="#md062726a7a" x="188.452648" y="189.023379" style="fill: #37659e; stroke: #37659e"/>
     <use xlink:href="#md062726a7a" x="197.701919" y="189.014005" style="fill: #37659e; stroke: #37659e"/>
     <use xlink:href="#md062726a7a" x="206.747894" y="189.020797" style="fill: #37659e; stroke: #37659e"/>
     <use xlink:href="#md062726a7a" x="215.599316" y="188.997983" style="fill: #37659e; stroke: #37659e"/>
     <use xlink:href="#md062726a7a" x="224.264378" y="188.984412" style="fill: #37659e; stroke: #37659e"/>
     <use xlink:href="#md062726a7a" x="232.750767" y="189.07628" style="fill: #37659e; stroke: #37659e"/>
    </g>
   </g>
   <g id="patch_3">
    <path d="M 55.316875 199.081875 
L 55.316875 10.8 
" style="fill: none; stroke: #000000; stroke-width: 0.8; stroke-linejoin: miter; stroke-linecap: square"/>
   </g>
   <g id="patch_4">
    <path d="M 55.316875 199.081875 
L 241.2 199.081875 
" style="fill: none; stroke: #000000; stroke-width: 0.8; stroke-linejoin: miter; stroke-linecap: square"/>
   </g>
   <g id="legend_1">
    <g id="patch_5">
     <path d="M 73.142813 268.830469 
L 223.374063 268.830469 
Q 225.374063 268.830469 225.374063 266.830469 
L 225.374063 253.152344 
Q 225.374063 251.152344 223.374063 251.152344 
L 73.142813 251.152344 
Q 71.142813 251.152344 71.142813 253.152344 
L 71.142813 266.830469 
Q 71.142813 268.830469 73.142813 268.830469 
z
" style="fill: #ffffff; opacity: 0.8; stroke: #cccccc; stroke-linejoin: miter"/>
    </g>
    <g id="line2d_14">
     <path d="M 75.142813 259.250781 
L 85.142813 259.250781 
L 95.142813 259.250781 
" style="fill: none; stroke-dasharray: 2,3.3; stroke-dashoffset: 0; stroke: #2e1e3b; stroke-width: 2"/>
     <g>
      <use xlink:href="#m1194e91f04" x="85.142813" y="259.250781" style="fill: #2e1e3b; stroke: #2e1e3b"/>
     </g>
    </g>
    <g id="text_13">
     <!-- e -->
     <g transform="translate(103.142813 262.750781)scale(0.1 -0.1)">
      <use xlink:href="#DejaVuSans-65"/>
     </g>
    </g>
    <g id="line2d_15">
     <path d="M 129.295938 259.250781 
L 139.295938 259.250781 
L 149.295938 259.250781 
" style="fill: none; stroke-dasharray: 2,3.3; stroke-dashoffset: 0; stroke: #413d7b; stroke-width: 2"/>
     <g>
      <use xlink:href="#m8bd4000862" x="139.295938" y="259.250781" style="fill: #413d7b; stroke: #413d7b"/>
     </g>
    </g>
    <g id="text_14">
     <!-- m -->
     <g transform="translate(157.295938 262.750781)scale(0.1 -0.1)">
      <use xlink:href="#DejaVuSans-6d"/>
     </g>
    </g>
    <g id="line2d_16">
     <path d="M 187.036563 259.250781 
L 197.036563 259.250781 
L 207.036563 259.250781 
" style="fill: none; stroke-dasharray: 2,3.3; stroke-dashoffset: 0; stroke: #37659e; stroke-width: 2"/>
     <g>
      <use xlink:href="#md062726a7a" x="197.036563" y="259.250781" style="fill: #37659e; stroke: #37659e"/>
     </g>
    </g>
    <g id="text_15">
     <!-- n -->
     <g transform="translate(215.036563 262.750781)scale(0.1 -0.1)">
      <defs>
       <path id="DejaVuSans-6e" d="M 3513 2113 
L 3513 0 
L 2938 0 
L 2938 2094 
Q 2938 2591 2744 2837 
Q 2550 3084 2163 3084 
Q 1697 3084 1428 2787 
Q 1159 2491 1159 1978 
L 1159 0 
L 581 0 
L 581 3500 
L 1159 3500 
L 1159 2956 
Q 1366 3272 1645 3428 
Q 1925 3584 2291 3584 
Q 2894 3584 3203 3211 
Q 3513 2838 3513 2113 
z
" transform="scale(0.015625)"/>
      </defs>
      <use xlink:href="#DejaVuSans-6e"/>
     </g>
    </g>
   </g>
  </g>
 </g>
 <defs>
  <clipPath id="pd5c2053a92">
   <rect x="55.316875" y="10.8" width="185.883125" height="188.281875"/>
  </clipPath>
 </defs>
</svg>
