<?xml version="1.0" encoding="utf-8" standalone="no"?>
<!DOCTYPE svg PUBLIC "-//W3C//DTD SVG 1.1//EN"
  "http://www.w3.org/Graphics/SVG/1.1/DTD/svg11.dtd">
<svg xmlns:xlink="http://www.w3.org/1999/xlink" width="252pt" height="288pt" viewBox="0 0 252 288" xmlns="http://www.w3.org/2000/svg" version="1.1">
 <metadata>
  <rdf:RDF xmlns:dc="http://purl.org/dc/elements/1.1/" xmlns:cc="http://creativecommons.org/ns#" xmlns:rdf="http://www.w3.org/1999/02/22-rdf-syntax-ns#">
   <cc:Work>
    <dc:type rdf:resource="http://purl.org/dc/dcmitype/StillImage"/>
    <dc:date>2022-07-01T03:29:56.458597</dc:date>
    <dc:format>image/svg+xml</dc:format>
    <dc:creator>
     <cc:Agent>
      <dc:title>Matplotlib v3.5.2, https://matplotlib.org/</dc:title>
     </cc:Agent>
    </dc:creator>
   </cc:Work>
  </rdf:RDF>
 </metadata>
 <defs>
  <style type="text/css">*{stroke-linejoin: round; stroke-linecap: butt}</style>
 </defs>
 <g id="figure_1">
  <g id="patch_1">
   <path d="M 0 288 
L 252 288 
L 252 0 
L 0 0 
z
" style="fill: #ffffff"/>
  </g>
  <g id="axes_1">
   <g id="patch_2">
    <path d="M 61.679375 199.081875 
L 241.2 199.081875 
L 241.2 10.8 
L 61.679375 10.8 
z
" style="fill: #ffffff"/>
   </g>
   <g id="matplotlib.axis_1">
    <g id="xtick_1">
     <g id="line2d_1">
      <defs>
       <path id="mff14c747d8" d="M 0 0 
L 0 3.5 
" style="stroke: #000000; stroke-width: 0.8"/>
      </defs>
      <g>
       <use xlink:href="#mff14c747d8" x="96.090922" y="199.081875" style="stroke: #000000; stroke-width: 0.8"/>
      </g>
     </g>
     <g id="text_1">
      <!-- 0.25 -->
      <g transform="translate(84.95811 213.680313)scale(0.1 -0.1)">
       <defs>
        <path id="DejaVuSans-30" d="M 2034 4250 
Q 1547 4250 1301 3770 
Q 1056 3291 1056 2328 
Q 1056 1369 1301 889 
Q 1547 409 2034 409 
Q 2525 409 2770 889 
Q 3016 1369 3016 2328 
Q 3016 3291 2770 3770 
Q 2525 4250 2034 4250 
z
M 2034 4750 
Q 2819 4750 3233 4129 
Q 3647 3509 3647 2328 
Q 3647 1150 3233 529 
Q 2819 -91 2034 -91 
Q 1250 -91 836 529 
Q 422 1150 422 2328 
Q 422 3509 836 4129 
Q 1250 4750 2034 4750 
z
" transform="scale(0.015625)"/>
        <path id="DejaVuSans-2e" d="M 684 794 
L 1344 794 
L 1344 0 
L 684 0 
L 684 794 
z
" transform="scale(0.015625)"/>
        <path id="DejaVuSans-32" d="M 1228 531 
L 3431 531 
L 3431 0 
L 469 0 
L 469 531 
Q 828 903 1448 1529 
Q 2069 2156 2228 2338 
Q 2531 2678 2651 2914 
Q 2772 3150 2772 3378 
Q 2772 3750 2511 3984 
Q 2250 4219 1831 4219 
Q 1534 4219 1204 4116 
Q 875 4013 500 3803 
L 500 4441 
Q 881 4594 1212 4672 
Q 1544 4750 1819 4750 
Q 2544 4750 2975 4387 
Q 3406 4025 3406 3419 
Q 3406 3131 3298 2873 
Q 3191 2616 2906 2266 
Q 2828 2175 2409 1742 
Q 1991 1309 1228 531 
z
" transform="scale(0.015625)"/>
        <path id="DejaVuSans-35" d="M 691 4666 
L 3169 4666 
L 3169 4134 
L 1269 4134 
L 1269 2991 
Q 1406 3038 1543 3061 
Q 1681 3084 1819 3084 
Q 2600 3084 3056 2656 
Q 3513 2228 3513 1497 
Q 3513 744 3044 326 
Q 2575 -91 1722 -91 
Q 1428 -91 1123 -41 
Q 819 9 494 109 
L 494 744 
Q 775 591 1075 516 
Q 1375 441 1709 441 
Q 2250 441 2565 725 
Q 2881 1009 2881 1497 
Q 2881 1984 2565 2268 
Q 2250 2553 1709 2553 
Q 1456 2553 1204 2497 
Q 953 2441 691 2322 
L 691 4666 
z
" transform="scale(0.015625)"/>
       </defs>
       <use xlink:href="#DejaVuSans-30"/>
       <use xlink:href="#DejaVuSans-2e" x="63.623047"/>
       <use xlink:href="#DejaVuSans-32" x="95.410156"/>
       <use xlink:href="#DejaVuSans-35" x="159.033203"/>
      </g>
     </g>
    </g>
    <g id="xtick_2">
     <g id="line2d_2">
      <g>
       <use xlink:href="#mff14c747d8" x="140.02052" y="199.081875" style="stroke: #000000; stroke-width: 0.8"/>
      </g>
     </g>
     <g id="text_2">
      <!-- 0.30 -->
      <g transform="translate(128.887708 213.680313)scale(0.1 -0.1)">
       <defs>
        <path id="DejaVuSans-33" d="M 2597 2516 
Q 3050 2419 3304 2112 
Q 3559 1806 3559 1356 
Q 3559 666 3084 287 
Q 2609 -91 1734 -91 
Q 1441 -91 1130 -33 
Q 819 25 488 141 
L 488 750 
Q 750 597 1062 519 
Q 1375 441 1716 441 
Q 2309 441 2620 675 
Q 2931 909 2931 1356 
Q 2931 1769 2642 2001 
Q 2353 2234 1838 2234 
L 1294 2234 
L 1294 2753 
L 1863 2753 
Q 2328 2753 2575 2939 
Q 2822 3125 2822 3475 
Q 2822 3834 2567 4026 
Q 2313 4219 1838 4219 
Q 1578 4219 1281 4162 
Q 984 4106 628 3988 
L 628 4550 
Q 988 4650 1302 4700 
Q 1616 4750 1894 4750 
Q 2613 4750 3031 4423 
Q 3450 4097 3450 3541 
Q 3450 3153 3228 2886 
Q 3006 2619 2597 2516 
z
" transform="scale(0.015625)"/>
       </defs>
       <use xlink:href="#DejaVuSans-30"/>
       <use xlink:href="#DejaVuSans-2e" x="63.623047"/>
       <use xlink:href="#DejaVuSans-33" x="95.410156"/>
       <use xlink:href="#DejaVuSans-30" x="159.033203"/>
      </g>
     </g>
    </g>
    <g id="xtick_3">
     <g id="line2d_3">
      <g>
       <use xlink:href="#mff14c747d8" x="183.950118" y="199.081875" style="stroke: #000000; stroke-width: 0.8"/>
      </g>
     </g>
     <g id="text_3">
      <!-- 0.35 -->
      <g transform="translate(172.817305 213.680313)scale(0.1 -0.1)">
       <use xlink:href="#DejaVuSans-30"/>
       <use xlink:href="#DejaVuSans-2e" x="63.623047"/>
       <use xlink:href="#DejaVuSans-33" x="95.410156"/>
       <use xlink:href="#DejaVuSans-35" x="159.033203"/>
      </g>
     </g>
    </g>
    <g id="xtick_4">
     <g id="line2d_4">
      <g>
       <use xlink:href="#mff14c747d8" x="227.879716" y="199.081875" style="stroke: #000000; stroke-width: 0.8"/>
      </g>
     </g>
     <g id="text_4">
      <!-- 0.40 -->
      <g transform="translate(216.746903 213.680313)scale(0.1 -0.1)">
       <defs>
        <path id="DejaVuSans-34" d="M 2419 4116 
L 825 1625 
L 2419 1625 
L 2419 4116 
z
M 2253 4666 
L 3047 4666 
L 3047 1625 
L 3713 1625 
L 3713 1100 
L 3047 1100 
L 3047 0 
L 2419 0 
L 2419 1100 
L 313 1100 
L 313 1709 
L 2253 4666 
z
" transform="scale(0.015625)"/>
       </defs>
       <use xlink:href="#DejaVuSans-30"/>
       <use xlink:href="#DejaVuSans-2e" x="63.623047"/>
       <use xlink:href="#DejaVuSans-34" x="95.410156"/>
       <use xlink:href="#DejaVuSans-30" x="159.033203"/>
      </g>
     </g>
    </g>
    <g id="text_5">
     <!-- n -->
     <g transform="translate(147.637187 234.878125)scale(0.12 -0.12)">
      <defs>
       <path id="DejaVuSans-6e" d="M 3513 2113 
L 3513 0 
L 2938 0 
L 2938 2094 
Q 2938 2591 2744 2837 
Q 2550 3084 2163 3084 
Q 1697 3084 1428 2787 
Q 1159 2491 1159 1978 
L 1159 0 
L 581 0 
L 581 3500 
L 1159 3500 
L 1159 2956 
Q 1366 3272 1645 3428 
Q 1925 3584 2291 3584 
Q 2894 3584 3203 3211 
Q 3513 2838 3513 2113 
z
" transform="scale(0.015625)"/>
      </defs>
      <use xlink:href="#DejaVuSans-6e"/>
     </g>
    </g>
   </g>
   <g id="matplotlib.axis_2">
    <g id="ytick_1">
     <g id="line2d_5">
      <defs>
       <path id="m48d32bcaf3" d="M 0 0 
L -3.5 0 
" style="stroke: #000000; stroke-width: 0.8"/>
      </defs>
      <g>
       <use xlink:href="#m48d32bcaf3" x="61.679375" y="183.021106" style="stroke: #000000; stroke-width: 0.8"/>
      </g>
     </g>
     <g id="text_6">
      <!-- 1.25 -->
      <g transform="translate(32.41375 186.820325)scale(0.1 -0.1)">
       <defs>
        <path id="DejaVuSans-31" d="M 794 531 
L 1825 531 
L 1825 4091 
L 703 3866 
L 703 4441 
L 1819 4666 
L 2450 4666 
L 2450 531 
L 3481 531 
L 3481 0 
L 794 0 
L 794 531 
z
" transform="scale(0.015625)"/>
       </defs>
       <use xlink:href="#DejaVuSans-31"/>
       <use xlink:href="#DejaVuSans-2e" x="63.623047"/>
       <use xlink:href="#DejaVuSans-32" x="95.410156"/>
       <use xlink:href="#DejaVuSans-35" x="159.033203"/>
      </g>
     </g>
    </g>
    <g id="ytick_2">
     <g id="line2d_6">
      <g>
       <use xlink:href="#m48d32bcaf3" x="61.679375" y="159.2404" style="stroke: #000000; stroke-width: 0.8"/>
      </g>
     </g>
     <g id="text_7">
      <!-- 1.50 -->
      <g transform="translate(32.41375 163.039618)scale(0.1 -0.1)">
       <use xlink:href="#DejaVuSans-31"/>
       <use xlink:href="#DejaVuSans-2e" x="63.623047"/>
       <use xlink:href="#DejaVuSans-35" x="95.410156"/>
       <use xlink:href="#DejaVuSans-30" x="159.033203"/>
      </g>
     </g>
    </g>
    <g id="ytick_3">
     <g id="line2d_7">
      <g>
       <use xlink:href="#m48d32bcaf3" x="61.679375" y="135.459693" style="stroke: #000000; stroke-width: 0.8"/>
      </g>
     </g>
     <g id="text_8">
      <!-- 1.75 -->
      <g transform="translate(32.41375 139.258912)scale(0.1 -0.1)">
       <defs>
        <path id="DejaVuSans-37" d="M 525 4666 
L 3525 4666 
L 3525 4397 
L 1831 0 
L 1172 0 
L 2766 4134 
L 525 4134 
L 525 4666 
z
" transform="scale(0.015625)"/>
       </defs>
       <use xlink:href="#DejaVuSans-31"/>
       <use xlink:href="#DejaVuSans-2e" x="63.623047"/>
       <use xlink:href="#DejaVuSans-37" x="95.410156"/>
       <use xlink:href="#DejaVuSans-35" x="159.033203"/>
      </g>
     </g>
    </g>
    <g id="ytick_4">
     <g id="line2d_8">
      <g>
       <use xlink:href="#m48d32bcaf3" x="61.679375" y="111.678987" style="stroke: #000000; stroke-width: 0.8"/>
      </g>
     </g>
     <g id="text_9">
      <!-- 2.00 -->
      <g transform="translate(32.41375 115.478206)scale(0.1 -0.1)">
       <use xlink:href="#DejaVuSans-32"/>
       <use xlink:href="#DejaVuSans-2e" x="63.623047"/>
       <use xlink:href="#DejaVuSans-30" x="95.410156"/>
       <use xlink:href="#DejaVuSans-30" x="159.033203"/>
      </g>
     </g>
    </g>
    <g id="ytick_5">
     <g id="line2d_9">
      <g>
       <use xlink:href="#m48d32bcaf3" x="61.679375" y="87.898281" style="stroke: #000000; stroke-width: 0.8"/>
      </g>
     </g>
     <g id="text_10">
      <!-- 2.25 -->
      <g transform="translate(32.41375 91.6975)scale(0.1 -0.1)">
       <use xlink:href="#DejaVuSans-32"/>
       <use xlink:href="#DejaVuSans-2e" x="63.623047"/>
       <use xlink:href="#DejaVuSans-32" x="95.410156"/>
       <use xlink:href="#DejaVuSans-35" x="159.033203"/>
      </g>
     </g>
    </g>
    <g id="ytick_6">
     <g id="line2d_10">
      <g>
       <use xlink:href="#m48d32bcaf3" x="61.679375" y="64.117575" style="stroke: #000000; stroke-width: 0.8"/>
      </g>
     </g>
     <g id="text_11">
      <!-- 2.50 -->
      <g transform="translate(32.41375 67.916793)scale(0.1 -0.1)">
       <use xlink:href="#DejaVuSans-32"/>
       <use xlink:href="#DejaVuSans-2e" x="63.623047"/>
       <use xlink:href="#DejaVuSans-35" x="95.410156"/>
       <use xlink:href="#DejaVuSans-30" x="159.033203"/>
      </g>
     </g>
    </g>
    <g id="ytick_7">
     <g id="line2d_11">
      <g>
       <use xlink:href="#m48d32bcaf3" x="61.679375" y="40.336869" style="stroke: #000000; stroke-width: 0.8"/>
      </g>
     </g>
     <g id="text_12">
      <!-- 2.75 -->
      <g transform="translate(32.41375 44.136087)scale(0.1 -0.1)">
       <use xlink:href="#DejaVuSans-32"/>
       <use xlink:href="#DejaVuSans-2e" x="63.623047"/>
       <use xlink:href="#DejaVuSans-37" x="95.410156"/>
       <use xlink:href="#DejaVuSans-35" x="159.033203"/>
      </g>
     </g>
    </g>
    <g id="ytick_8">
     <g id="line2d_12">
      <g>
       <use xlink:href="#m48d32bcaf3" x="61.679375" y="16.556162" style="stroke: #000000; stroke-width: 0.8"/>
      </g>
     </g>
     <g id="text_13">
      <!-- 3.00 -->
      <g transform="translate(32.41375 20.355381)scale(0.1 -0.1)">
       <use xlink:href="#DejaVuSans-33"/>
       <use xlink:href="#DejaVuSans-2e" x="63.623047"/>
       <use xlink:href="#DejaVuSans-30" x="95.410156"/>
       <use xlink:href="#DejaVuSans-30" x="159.033203"/>
      </g>
     </g>
    </g>
    <g id="text_14">
     <!-- other parameters -->
     <g transform="translate(19.918125 157.634063)rotate(-90)scale(0.12 -0.12)">
      <defs>
       <path id="DejaVuSans-6f" d="M 1959 3097 
Q 1497 3097 1228 2736 
Q 959 2375 959 1747 
Q 959 1119 1226 758 
Q 1494 397 1959 397 
Q 2419 397 2687 759 
Q 2956 1122 2956 1747 
Q 2956 2369 2687 2733 
Q 2419 3097 1959 3097 
z
M 1959 3584 
Q 2709 3584 3137 3096 
Q 3566 2609 3566 1747 
Q 3566 888 3137 398 
Q 2709 -91 1959 -91 
Q 1206 -91 779 398 
Q 353 888 353 1747 
Q 353 2609 779 3096 
Q 1206 3584 1959 3584 
z
" transform="scale(0.015625)"/>
       <path id="DejaVuSans-74" d="M 1172 4494 
L 1172 3500 
L 2356 3500 
L 2356 3053 
L 1172 3053 
L 1172 1153 
Q 1172 725 1289 603 
Q 1406 481 1766 481 
L 2356 481 
L 2356 0 
L 1766 0 
Q 1100 0 847 248 
Q 594 497 594 1153 
L 594 3053 
L 172 3053 
L 172 3500 
L 594 3500 
L 594 4494 
L 1172 4494 
z
" transform="scale(0.015625)"/>
       <path id="DejaVuSans-68" d="M 3513 2113 
L 3513 0 
L 2938 0 
L 2938 2094 
Q 2938 2591 2744 2837 
Q 2550 3084 2163 3084 
Q 1697 3084 1428 2787 
Q 1159 2491 1159 1978 
L 1159 0 
L 581 0 
L 581 4863 
L 1159 4863 
L 1159 2956 
Q 1366 3272 1645 3428 
Q 1925 3584 2291 3584 
Q 2894 3584 3203 3211 
Q 3513 2838 3513 2113 
z
" transform="scale(0.015625)"/>
       <path id="DejaVuSans-65" d="M 3597 1894 
L 3597 1613 
L 953 1613 
Q 991 1019 1311 708 
Q 1631 397 2203 397 
Q 2534 397 2845 478 
Q 3156 559 3463 722 
L 3463 178 
Q 3153 47 2828 -22 
Q 2503 -91 2169 -91 
Q 1331 -91 842 396 
Q 353 884 353 1716 
Q 353 2575 817 3079 
Q 1281 3584 2069 3584 
Q 2775 3584 3186 3129 
Q 3597 2675 3597 1894 
z
M 3022 2063 
Q 3016 2534 2758 2815 
Q 2500 3097 2075 3097 
Q 1594 3097 1305 2825 
Q 1016 2553 972 2059 
L 3022 2063 
z
" transform="scale(0.015625)"/>
       <path id="DejaVuSans-72" d="M 2631 2963 
Q 2534 3019 2420 3045 
Q 2306 3072 2169 3072 
Q 1681 3072 1420 2755 
Q 1159 2438 1159 1844 
L 1159 0 
L 581 0 
L 581 3500 
L 1159 3500 
L 1159 2956 
Q 1341 3275 1631 3429 
Q 1922 3584 2338 3584 
Q 2397 3584 2469 3576 
Q 2541 3569 2628 3553 
L 2631 2963 
z
" transform="scale(0.015625)"/>
       <path id="DejaVuSans-20" transform="scale(0.015625)"/>
       <path id="DejaVuSans-70" d="M 1159 525 
L 1159 -1331 
L 581 -1331 
L 581 3500 
L 1159 3500 
L 1159 2969 
Q 1341 3281 1617 3432 
Q 1894 3584 2278 3584 
Q 2916 3584 3314 3078 
Q 3713 2572 3713 1747 
Q 3713 922 3314 415 
Q 2916 -91 2278 -91 
Q 1894 -91 1617 61 
Q 1341 213 1159 525 
z
M 3116 1747 
Q 3116 2381 2855 2742 
Q 2594 3103 2138 3103 
Q 1681 3103 1420 2742 
Q 1159 2381 1159 1747 
Q 1159 1113 1420 752 
Q 1681 391 2138 391 
Q 2594 391 2855 752 
Q 3116 1113 3116 1747 
z
" transform="scale(0.015625)"/>
       <path id="DejaVuSans-61" d="M 2194 1759 
Q 1497 1759 1228 1600 
Q 959 1441 959 1056 
Q 959 750 1161 570 
Q 1363 391 1709 391 
Q 2188 391 2477 730 
Q 2766 1069 2766 1631 
L 2766 1759 
L 2194 1759 
z
M 3341 1997 
L 3341 0 
L 2766 0 
L 2766 531 
Q 2569 213 2275 61 
Q 1981 -91 1556 -91 
Q 1019 -91 701 211 
Q 384 513 384 1019 
Q 384 1609 779 1909 
Q 1175 2209 1959 2209 
L 2766 2209 
L 2766 2266 
Q 2766 2663 2505 2880 
Q 2244 3097 1772 3097 
Q 1472 3097 1187 3025 
Q 903 2953 641 2809 
L 641 3341 
Q 956 3463 1253 3523 
Q 1550 3584 1831 3584 
Q 2591 3584 2966 3190 
Q 3341 2797 3341 1997 
z
" transform="scale(0.015625)"/>
       <path id="DejaVuSans-6d" d="M 3328 2828 
Q 3544 3216 3844 3400 
Q 4144 3584 4550 3584 
Q 5097 3584 5394 3201 
Q 5691 2819 5691 2113 
L 5691 0 
L 5113 0 
L 5113 2094 
Q 5113 2597 4934 2840 
Q 4756 3084 4391 3084 
Q 3944 3084 3684 2787 
Q 3425 2491 3425 1978 
L 3425 0 
L 2847 0 
L 2847 2094 
Q 2847 2600 2669 2842 
Q 2491 3084 2119 3084 
Q 1678 3084 1418 2786 
Q 1159 2488 1159 1978 
L 1159 0 
L 581 0 
L 581 3500 
L 1159 3500 
L 1159 2956 
Q 1356 3278 1631 3431 
Q 1906 3584 2284 3584 
Q 2666 3584 2933 3390 
Q 3200 3197 3328 2828 
z
" transform="scale(0.015625)"/>
       <path id="DejaVuSans-73" d="M 2834 3397 
L 2834 2853 
Q 2591 2978 2328 3040 
Q 2066 3103 1784 3103 
Q 1356 3103 1142 2972 
Q 928 2841 928 2578 
Q 928 2378 1081 2264 
Q 1234 2150 1697 2047 
L 1894 2003 
Q 2506 1872 2764 1633 
Q 3022 1394 3022 966 
Q 3022 478 2636 193 
Q 2250 -91 1575 -91 
Q 1294 -91 989 -36 
Q 684 19 347 128 
L 347 722 
Q 666 556 975 473 
Q 1284 391 1588 391 
Q 1994 391 2212 530 
Q 2431 669 2431 922 
Q 2431 1156 2273 1281 
Q 2116 1406 1581 1522 
L 1381 1569 
Q 847 1681 609 1914 
Q 372 2147 372 2553 
Q 372 3047 722 3315 
Q 1072 3584 1716 3584 
Q 2034 3584 2315 3537 
Q 2597 3491 2834 3397 
z
" transform="scale(0.015625)"/>
      </defs>
      <use xlink:href="#DejaVuSans-6f"/>
      <use xlink:href="#DejaVuSans-74" x="61.181641"/>
      <use xlink:href="#DejaVuSans-68" x="100.390625"/>
      <use xlink:href="#DejaVuSans-65" x="163.769531"/>
      <use xlink:href="#DejaVuSans-72" x="225.292969"/>
      <use xlink:href="#DejaVuSans-20" x="266.40625"/>
      <use xlink:href="#DejaVuSans-70" x="298.193359"/>
      <use xlink:href="#DejaVuSans-61" x="361.669922"/>
      <use xlink:href="#DejaVuSans-72" x="422.949219"/>
      <use xlink:href="#DejaVuSans-61" x="464.0625"/>
      <use xlink:href="#DejaVuSans-6d" x="525.341797"/>
      <use xlink:href="#DejaVuSans-65" x="622.753906"/>
      <use xlink:href="#DejaVuSans-74" x="684.277344"/>
      <use xlink:href="#DejaVuSans-65" x="723.486328"/>
      <use xlink:href="#DejaVuSans-72" x="785.009766"/>
      <use xlink:href="#DejaVuSans-73" x="826.123047"/>
     </g>
    </g>
   </g>
   <g id="line2d_13">
    <path d="M 69.839403 190.523608 
L 74.492725 190.457861 
L 80.230692 190.395523 
L 85.88365 190.315814 
L 91.454079 190.24608 
L 96.944356 190.174971 
L 107.693451 190.027808 
L 128.323753 189.735865 
L 147.895614 189.440543 
L 147.895614 189.440543 
L 184.262894 188.925379 
L 201.224248 188.676326 
L 209.43032 188.557606 
L 217.46362 188.439889 
L 225.331272 188.324671 
L 233.039972 188.212962 
" clip-path="url(#pb97138277b)" style="fill: none; stroke-dasharray: 2,3.3; stroke-dashoffset: 0; stroke: #2e1e3b; stroke-width: 2"/>
    <defs>
     <path id="m2c9533192f" d="M 0 2 
C 0.530406 2 1.03916 1.789267 1.414214 1.414214 
C 1.789267 1.03916 2 0.530406 2 0 
C 2 -0.530406 1.789267 -1.03916 1.414214 -1.414214 
C 1.03916 -1.789267 0.530406 -2 0 -2 
C -0.530406 -2 -1.03916 -1.789267 -1.414214 -1.414214 
C -1.789267 -1.03916 -2 -0.530406 -2 0 
C -2 0.530406 -1.789267 1.03916 -1.414214 1.414214 
C -1.03916 1.789267 -0.530406 2 0 2 
z
" style="stroke: #2e1e3b"/>
    </defs>
    <g clip-path="url(#pb97138277b)">
     <use xlink:href="#m2c9533192f" x="69.839403" y="190.523608" style="fill: #2e1e3b; stroke: #2e1e3b"/>
     <use xlink:href="#m2c9533192f" x="74.492725" y="190.457861" style="fill: #2e1e3b; stroke: #2e1e3b"/>
     <use xlink:href="#m2c9533192f" x="80.230692" y="190.395523" style="fill: #2e1e3b; stroke: #2e1e3b"/>
     <use xlink:href="#m2c9533192f" x="85.88365" y="190.315814" style="fill: #2e1e3b; stroke: #2e1e3b"/>
     <use xlink:href="#m2c9533192f" x="91.454079" y="190.24608" style="fill: #2e1e3b; stroke: #2e1e3b"/>
     <use xlink:href="#m2c9533192f" x="96.944356" y="190.174971" style="fill: #2e1e3b; stroke: #2e1e3b"/>
     <use xlink:href="#m2c9533192f" x="107.693451" y="190.027808" style="fill: #2e1e3b; stroke: #2e1e3b"/>
     <use xlink:href="#m2c9533192f" x="128.323753" y="189.735865" style="fill: #2e1e3b; stroke: #2e1e3b"/>
     <use xlink:href="#m2c9533192f" x="147.895614" y="189.440543" style="fill: #2e1e3b; stroke: #2e1e3b"/>
     <use xlink:href="#m2c9533192f" x="147.895614" y="189.440543" style="fill: #2e1e3b; stroke: #2e1e3b"/>
     <use xlink:href="#m2c9533192f" x="184.262894" y="188.925379" style="fill: #2e1e3b; stroke: #2e1e3b"/>
     <use xlink:href="#m2c9533192f" x="201.224248" y="188.676326" style="fill: #2e1e3b; stroke: #2e1e3b"/>
     <use xlink:href="#m2c9533192f" x="209.43032" y="188.557606" style="fill: #2e1e3b; stroke: #2e1e3b"/>
     <use xlink:href="#m2c9533192f" x="217.46362" y="188.439889" style="fill: #2e1e3b; stroke: #2e1e3b"/>
     <use xlink:href="#m2c9533192f" x="225.331272" y="188.324671" style="fill: #2e1e3b; stroke: #2e1e3b"/>
     <use xlink:href="#m2c9533192f" x="233.039972" y="188.212962" style="fill: #2e1e3b; stroke: #2e1e3b"/>
    </g>
   </g>
   <g id="line2d_14">
    <path d="M 69.839403 19.358267 
L 74.492725 22.865564 
L 80.230692 26.262103 
L 85.88365 29.103403 
L 91.454079 31.357968 
L 96.944356 33.207263 
L 107.693451 35.853808 
L 128.323753 38.465923 
L 147.895614 38.68548 
L 147.895614 38.68548 
L 184.262894 34.998885 
L 201.224248 31.87762 
L 209.43032 30.117389 
L 217.46362 28.236498 
L 225.331272 26.233011 
L 233.039972 24.150811 
" clip-path="url(#pb97138277b)" style="fill: none; stroke-dasharray: 2,3.3; stroke-dashoffset: 0; stroke: #413d7b; stroke-width: 2"/>
    <defs>
     <path id="m3724997287" d="M 0 2 
C 0.530406 2 1.03916 1.789267 1.414214 1.414214 
C 1.789267 1.03916 2 0.530406 2 0 
C 2 -0.530406 1.789267 -1.03916 1.414214 -1.414214 
C 1.03916 -1.789267 0.530406 -2 0 -2 
C -0.530406 -2 -1.03916 -1.789267 -1.414214 -1.414214 
C -1.789267 -1.03916 -2 -0.530406 -2 0 
C -2 0.530406 -1.789267 1.03916 -1.414214 1.414214 
C -1.03916 1.789267 -0.530406 2 0 2 
z
" style="stroke: #413d7b"/>
    </defs>
    <g clip-path="url(#pb97138277b)">
     <use xlink:href="#m3724997287" x="69.839403" y="19.358267" style="fill: #413d7b; stroke: #413d7b"/>
     <use xlink:href="#m3724997287" x="74.492725" y="22.865564" style="fill: #413d7b; stroke: #413d7b"/>
     <use xlink:href="#m3724997287" x="80.230692" y="26.262103" style="fill: #413d7b; stroke: #413d7b"/>
     <use xlink:href="#m3724997287" x="85.88365" y="29.103403" style="fill: #413d7b; stroke: #413d7b"/>
     <use xlink:href="#m3724997287" x="91.454079" y="31.357968" style="fill: #413d7b; stroke: #413d7b"/>
     <use xlink:href="#m3724997287" x="96.944356" y="33.207263" style="fill: #413d7b; stroke: #413d7b"/>
     <use xlink:href="#m3724997287" x="107.693451" y="35.853808" style="fill: #413d7b; stroke: #413d7b"/>
     <use xlink:href="#m3724997287" x="128.323753" y="38.465923" style="fill: #413d7b; stroke: #413d7b"/>
     <use xlink:href="#m3724997287" x="147.895614" y="38.68548" style="fill: #413d7b; stroke: #413d7b"/>
     <use xlink:href="#m3724997287" x="147.895614" y="38.68548" style="fill: #413d7b; stroke: #413d7b"/>
     <use xlink:href="#m3724997287" x="184.262894" y="34.998885" style="fill: #413d7b; stroke: #413d7b"/>
     <use xlink:href="#m3724997287" x="201.224248" y="31.87762" style="fill: #413d7b; stroke: #413d7b"/>
     <use xlink:href="#m3724997287" x="209.43032" y="30.117389" style="fill: #413d7b; stroke: #413d7b"/>
     <use xlink:href="#m3724997287" x="217.46362" y="28.236498" style="fill: #413d7b; stroke: #413d7b"/>
     <use xlink:href="#m3724997287" x="225.331272" y="26.233011" style="fill: #413d7b; stroke: #413d7b"/>
     <use xlink:href="#m3724997287" x="233.039972" y="24.150811" style="fill: #413d7b; stroke: #413d7b"/>
    </g>
   </g>
   <g id="line2d_15">
    <path d="M 69.839403 110.801323 
L 74.492725 110.737727 
L 80.230692 110.635022 
L 85.88365 110.568182 
L 91.454079 110.467778 
L 96.944356 110.384077 
L 107.693451 110.220249 
L 128.323753 109.92002 
L 147.895614 109.652331 
L 147.895614 109.652331 
L 184.262894 109.245017 
L 201.224248 109.089244 
L 209.43032 109.029282 
L 217.46362 108.977489 
L 225.331272 108.93084 
L 233.039972 108.893951 
" clip-path="url(#pb97138277b)" style="fill: none; stroke-dasharray: 2,3.3; stroke-dashoffset: 0; stroke: #37659e; stroke-width: 2"/>
    <defs>
     <path id="m5478e4b872" d="M 0 2 
C 0.530406 2 1.03916 1.789267 1.414214 1.414214 
C 1.789267 1.03916 2 0.530406 2 0 
C 2 -0.530406 1.789267 -1.03916 1.414214 -1.414214 
C 1.03916 -1.789267 0.530406 -2 0 -2 
C -0.530406 -2 -1.03916 -1.789267 -1.414214 -1.414214 
C -1.789267 -1.03916 -2 -0.530406 -2 0 
C -2 0.530406 -1.789267 1.03916 -1.414214 1.414214 
C -1.03916 1.789267 -0.530406 2 0 2 
z
" style="stroke: #37659e"/>
    </defs>
    <g clip-path="url(#pb97138277b)">
     <use xlink:href="#m5478e4b872" x="69.839403" y="110.801323" style="fill: #37659e; stroke: #37659e"/>
     <use xlink:href="#m5478e4b872" x="74.492725" y="110.737727" style="fill: #37659e; stroke: #37659e"/>
     <use xlink:href="#m5478e4b872" x="80.230692" y="110.635022" style="fill: #37659e; stroke: #37659e"/>
     <use xlink:href="#m5478e4b872" x="85.88365" y="110.568182" style="fill: #37659e; stroke: #37659e"/>
     <use xlink:href="#m5478e4b872" x="91.454079" y="110.467778" style="fill: #37659e; stroke: #37659e"/>
     <use xlink:href="#m5478e4b872" x="96.944356" y="110.384077" style="fill: #37659e; stroke: #37659e"/>
     <use xlink:href="#m5478e4b872" x="107.693451" y="110.220249" style="fill: #37659e; stroke: #37659e"/>
     <use xlink:href="#m5478e4b872" x="128.323753" y="109.92002" style="fill: #37659e; stroke: #37659e"/>
     <use xlink:href="#m5478e4b872" x="147.895614" y="109.652331" style="fill: #37659e; stroke: #37659e"/>
     <use xlink:href="#m5478e4b872" x="147.895614" y="109.652331" style="fill: #37659e; stroke: #37659e"/>
     <use xlink:href="#m5478e4b872" x="184.262894" y="109.245017" style="fill: #37659e; stroke: #37659e"/>
     <use xlink:href="#m5478e4b872" x="201.224248" y="109.089244" style="fill: #37659e; stroke: #37659e"/>
     <use xlink:href="#m5478e4b872" x="209.43032" y="109.029282" style="fill: #37659e; stroke: #37659e"/>
     <use xlink:href="#m5478e4b872" x="217.46362" y="108.977489" style="fill: #37659e; stroke: #37659e"/>
     <use xlink:href="#m5478e4b872" x="225.331272" y="108.93084" style="fill: #37659e; stroke: #37659e"/>
     <use xlink:href="#m5478e4b872" x="233.039972" y="108.893951" style="fill: #37659e; stroke: #37659e"/>
    </g>
   </g>
   <g id="patch_3">
    <path d="M 61.679375 199.081875 
L 61.679375 10.8 
" style="fill: none; stroke: #000000; stroke-width: 0.8; stroke-linejoin: miter; stroke-linecap: square"/>
   </g>
   <g id="patch_4">
    <path d="M 61.679375 199.081875 
L 241.2 199.081875 
" style="fill: none; stroke: #000000; stroke-width: 0.8; stroke-linejoin: miter; stroke-linecap: square"/>
   </g>
   <g id="legend_1">
    <g id="patch_5">
     <path d="M 71.727187 268.830469 
L 231.152187 268.830469 
Q 233.152187 268.830469 233.152187 266.830469 
L 233.152187 253.152344 
Q 233.152187 251.152344 231.152187 251.152344 
L 71.727187 251.152344 
Q 69.727187 251.152344 69.727187 253.152344 
L 69.727187 266.830469 
Q 69.727187 268.830469 71.727187 268.830469 
z
" style="fill: #ffffff; opacity: 0.8; stroke: #cccccc; stroke-linejoin: miter"/>
    </g>
    <g id="line2d_16">
     <path d="M 73.727187 259.250781 
L 83.727187 259.250781 
L 93.727187 259.250781 
" style="fill: none; stroke-dasharray: 2,3.3; stroke-dashoffset: 0; stroke: #2e1e3b; stroke-width: 2"/>
     <g>
      <use xlink:href="#m2c9533192f" x="83.727187" y="259.250781" style="fill: #2e1e3b; stroke: #2e1e3b"/>
     </g>
    </g>
    <g id="text_15">
     <!-- e -->
     <g transform="translate(101.727187 262.750781)scale(0.1 -0.1)">
      <use xlink:href="#DejaVuSans-65"/>
     </g>
    </g>
    <g id="line2d_17">
     <path d="M 127.880312 259.250781 
L 137.880313 259.250781 
L 147.880313 259.250781 
" style="fill: none; stroke-dasharray: 2,3.3; stroke-dashoffset: 0; stroke: #413d7b; stroke-width: 2"/>
     <g>
      <use xlink:href="#m3724997287" x="137.880313" y="259.250781" style="fill: #413d7b; stroke: #413d7b"/>
     </g>
    </g>
    <g id="text_16">
     <!-- m -->
     <g transform="translate(155.880313 262.750781)scale(0.1 -0.1)">
      <use xlink:href="#DejaVuSans-6d"/>
     </g>
    </g>
    <g id="line2d_18">
     <path d="M 185.620937 259.250781 
L 195.620937 259.250781 
L 205.620937 259.250781 
" style="fill: none; stroke-dasharray: 2,3.3; stroke-dashoffset: 0; stroke: #37659e; stroke-width: 2"/>
     <g>
      <use xlink:href="#m5478e4b872" x="195.620937" y="259.250781" style="fill: #37659e; stroke: #37659e"/>
     </g>
    </g>
    <g id="text_17">
     <!-- km -->
     <g transform="translate(213.620937 262.750781)scale(0.1 -0.1)">
      <defs>
       <path id="DejaVuSans-6b" d="M 581 4863 
L 1159 4863 
L 1159 1991 
L 2875 3500 
L 3609 3500 
L 1753 1863 
L 3688 0 
L 2938 0 
L 1159 1709 
L 1159 0 
L 581 0 
L 581 4863 
z
" transform="scale(0.015625)"/>
      </defs>
      <use xlink:href="#DejaVuSans-6b"/>
      <use xlink:href="#DejaVuSans-6d" x="57.910156"/>
     </g>
    </g>
   </g>
  </g>
 </g>
 <defs>
  <clipPath id="pb97138277b">
   <rect x="61.679375" y="10.8" width="179.520625" height="188.281875"/>
  </clipPath>
 </defs>
</svg>
