<?xml version="1.0" encoding="utf-8" standalone="no"?>
<!DOCTYPE svg PUBLIC "-//W3C//DTD SVG 1.1//EN"
  "http://www.w3.org/Graphics/SVG/1.1/DTD/svg11.dtd">
<svg xmlns:xlink="http://www.w3.org/1999/xlink" width="352.8pt" height="208.8pt" viewBox="0 0 352.8 208.8" xmlns="http://www.w3.org/2000/svg" version="1.1">
 <metadata>
  <rdf:RDF xmlns:dc="http://purl.org/dc/elements/1.1/" xmlns:cc="http://creativecommons.org/ns#" xmlns:rdf="http://www.w3.org/1999/02/22-rdf-syntax-ns#">
   <cc:Work>
    <dc:type rdf:resource="http://purl.org/dc/dcmitype/StillImage"/>
    <dc:date>2022-06-29T09:28:38.325155</dc:date>
    <dc:format>image/svg+xml</dc:format>
    <dc:creator>
     <cc:Agent>
      <dc:title>Matplotlib v3.5.2, https://matplotlib.org/</dc:title>
     </cc:Agent>
    </dc:creator>
   </cc:Work>
  </rdf:RDF>
 </metadata>
 <defs>
  <style type="text/css">*{stroke-linejoin: round; stroke-linecap: butt}</style>
 </defs>
 <g id="figure_1">
  <g id="patch_1">
   <path d="M 0 208.8 
L 352.8 208.8 
L 352.8 0 
L 0 0 
z
" style="fill: #ffffff"/>
  </g>
  <g id="axes_1">
   <g id="patch_2">
    <path d="M 54.90125 162.974375 
L 345.6 162.974375 
L 345.6 7.2 
L 54.90125 7.2 
z
" style="fill: #ffffff"/>
   </g>
   <g id="patch_3">
    <path d="M 68.11483 162.974375 
L 75.665446 162.974375 
L 75.665446 14.617827 
L 68.11483 14.617827 
z
" clip-path="url(#p2016c5d27c)" style="fill: #696969"/>
   </g>
   <g id="patch_4">
    <path d="M 75.665446 162.974375 
L 83.216063 162.974375 
L 83.216063 66.664223 
L 75.665446 66.664223 
z
" clip-path="url(#p2016c5d27c)" style="fill: #696969"/>
   </g>
   <g id="patch_5">
    <path d="M 83.216063 162.974375 
L 90.76668 162.974375 
L 90.76668 95.849117 
L 83.216063 95.849117 
z
" clip-path="url(#p2016c5d27c)" style="fill: #696969"/>
   </g>
   <g id="patch_6">
    <path d="M 90.76668 162.974375 
L 98.317297 162.974375 
L 98.317297 123.574767 
L 90.76668 123.574767 
z
" clip-path="url(#p2016c5d27c)" style="fill: #696969"/>
   </g>
   <g id="patch_7">
    <path d="M 98.317297 162.974375 
L 105.867914 162.974375 
L 105.867914 129.898161 
L 98.317297 129.898161 
z
" clip-path="url(#p2016c5d27c)" style="fill: #696969"/>
   </g>
   <g id="patch_8">
    <path d="M 105.867914 162.974375 
L 113.418531 162.974375 
L 113.418531 143.031364 
L 105.867914 143.031364 
z
" clip-path="url(#p2016c5d27c)" style="fill: #696969"/>
   </g>
   <g id="patch_9">
    <path d="M 113.418531 162.974375 
L 120.969148 162.974375 
L 120.969148 146.922683 
L 113.418531 146.922683 
z
" clip-path="url(#p2016c5d27c)" style="fill: #696969"/>
   </g>
   <g id="patch_10">
    <path d="M 120.969148 162.974375 
L 128.519765 162.974375 
L 128.519765 146.922683 
L 120.969148 146.922683 
z
" clip-path="url(#p2016c5d27c)" style="fill: #696969"/>
   </g>
   <g id="patch_11">
    <path d="M 128.519765 162.974375 
L 136.070381 162.974375 
L 136.070381 155.191736 
L 128.519765 155.191736 
z
" clip-path="url(#p2016c5d27c)" style="fill: #696969"/>
   </g>
   <g id="patch_12">
    <path d="M 136.070381 162.974375 
L 143.620998 162.974375 
L 143.620998 153.732492 
L 136.070381 153.732492 
z
" clip-path="url(#p2016c5d27c)" style="fill: #696969"/>
   </g>
   <g id="patch_13">
    <path d="M 143.620998 162.974375 
L 151.171615 162.974375 
L 151.171615 155.678151 
L 143.620998 155.678151 
z
" clip-path="url(#p2016c5d27c)" style="fill: #696969"/>
   </g>
   <g id="patch_14">
    <path d="M 151.171615 162.974375 
L 158.722232 162.974375 
L 158.722232 158.596641 
L 151.171615 158.596641 
z
" clip-path="url(#p2016c5d27c)" style="fill: #696969"/>
   </g>
   <g id="patch_15">
    <path d="M 158.722232 162.974375 
L 166.272849 162.974375 
L 166.272849 157.137396 
L 158.722232 157.137396 
z
" clip-path="url(#p2016c5d27c)" style="fill: #696969"/>
   </g>
   <g id="patch_16">
    <path d="M 166.272849 162.974375 
L 173.823466 162.974375 
L 173.823466 160.5423 
L 166.272849 160.5423 
z
" clip-path="url(#p2016c5d27c)" style="fill: #696969"/>
   </g>
   <g id="patch_17">
    <path d="M 173.823466 162.974375 
L 181.374083 162.974375 
L 181.374083 162.001545 
L 173.823466 162.001545 
z
" clip-path="url(#p2016c5d27c)" style="fill: #696969"/>
   </g>
   <g id="patch_18">
    <path d="M 181.374083 162.974375 
L 188.9247 162.974375 
L 188.9247 161.028715 
L 181.374083 161.028715 
z
" clip-path="url(#p2016c5d27c)" style="fill: #696969"/>
   </g>
   <g id="patch_19">
    <path d="M 188.9247 162.974375 
L 196.475317 162.974375 
L 196.475317 160.5423 
L 188.9247 160.5423 
z
" clip-path="url(#p2016c5d27c)" style="fill: #696969"/>
   </g>
   <g id="patch_20">
    <path d="M 196.475317 162.974375 
L 204.025933 162.974375 
L 204.025933 162.974375 
L 196.475317 162.974375 
z
" clip-path="url(#p2016c5d27c)" style="fill: #696969"/>
   </g>
   <g id="patch_21">
    <path d="M 204.025933 162.974375 
L 211.57655 162.974375 
L 211.57655 160.5423 
L 204.025933 160.5423 
z
" clip-path="url(#p2016c5d27c)" style="fill: #696969"/>
   </g>
   <g id="patch_22">
    <path d="M 211.57655 162.974375 
L 219.127167 162.974375 
L 219.127167 162.48796 
L 211.57655 162.48796 
z
" clip-path="url(#p2016c5d27c)" style="fill: #696969"/>
   </g>
   <g id="patch_23">
    <path d="M 219.127167 162.974375 
L 226.677784 162.974375 
L 226.677784 161.51513 
L 219.127167 161.51513 
z
" clip-path="url(#p2016c5d27c)" style="fill: #696969"/>
   </g>
   <g id="patch_24">
    <path d="M 226.677784 162.974375 
L 234.228401 162.974375 
L 234.228401 162.001545 
L 226.677784 162.001545 
z
" clip-path="url(#p2016c5d27c)" style="fill: #696969"/>
   </g>
   <g id="patch_25">
    <path d="M 234.228401 162.974375 
L 241.779018 162.974375 
L 241.779018 162.48796 
L 234.228401 162.48796 
z
" clip-path="url(#p2016c5d27c)" style="fill: #696969"/>
   </g>
   <g id="patch_26">
    <path d="M 241.779018 162.974375 
L 249.329635 162.974375 
L 249.329635 162.48796 
L 241.779018 162.48796 
z
" clip-path="url(#p2016c5d27c)" style="fill: #696969"/>
   </g>
   <g id="patch_27">
    <path d="M 249.329635 162.974375 
L 256.880252 162.974375 
L 256.880252 162.974375 
L 249.329635 162.974375 
z
" clip-path="url(#p2016c5d27c)" style="fill: #696969"/>
   </g>
   <g id="patch_28">
    <path d="M 256.880252 162.974375 
L 264.430869 162.974375 
L 264.430869 162.974375 
L 256.880252 162.974375 
z
" clip-path="url(#p2016c5d27c)" style="fill: #696969"/>
   </g>
   <g id="patch_29">
    <path d="M 264.430869 162.974375 
L 271.981485 162.974375 
L 271.981485 162.48796 
L 264.430869 162.48796 
z
" clip-path="url(#p2016c5d27c)" style="fill: #696969"/>
   </g>
   <g id="patch_30">
    <path d="M 271.981485 162.974375 
L 279.532102 162.974375 
L 279.532102 162.48796 
L 271.981485 162.48796 
z
" clip-path="url(#p2016c5d27c)" style="fill: #696969"/>
   </g>
   <g id="patch_31">
    <path d="M 279.532102 162.974375 
L 287.082719 162.974375 
L 287.082719 162.974375 
L 279.532102 162.974375 
z
" clip-path="url(#p2016c5d27c)" style="fill: #696969"/>
   </g>
   <g id="patch_32">
    <path d="M 287.082719 162.974375 
L 294.633336 162.974375 
L 294.633336 162.974375 
L 287.082719 162.974375 
z
" clip-path="url(#p2016c5d27c)" style="fill: #696969"/>
   </g>
   <g id="patch_33">
    <path d="M 294.633336 162.974375 
L 302.183953 162.974375 
L 302.183953 162.974375 
L 294.633336 162.974375 
z
" clip-path="url(#p2016c5d27c)" style="fill: #696969"/>
   </g>
   <g id="patch_34">
    <path d="M 302.183953 162.974375 
L 309.73457 162.974375 
L 309.73457 162.974375 
L 302.183953 162.974375 
z
" clip-path="url(#p2016c5d27c)" style="fill: #696969"/>
   </g>
   <g id="patch_35">
    <path d="M 309.73457 162.974375 
L 317.285187 162.974375 
L 317.285187 162.974375 
L 309.73457 162.974375 
z
" clip-path="url(#p2016c5d27c)" style="fill: #696969"/>
   </g>
   <g id="patch_36">
    <path d="M 317.285187 162.974375 
L 324.835804 162.974375 
L 324.835804 162.974375 
L 317.285187 162.974375 
z
" clip-path="url(#p2016c5d27c)" style="fill: #696969"/>
   </g>
   <g id="patch_37">
    <path d="M 324.835804 162.974375 
L 332.38642 162.974375 
L 332.38642 162.48796 
L 324.835804 162.48796 
z
" clip-path="url(#p2016c5d27c)" style="fill: #696969"/>
   </g>
   <g id="matplotlib.axis_1">
    <g id="xtick_1">
     <g id="line2d_1">
      <defs>
       <path id="mfa389e3a76" d="M 0 0 
L 0 3.5 
" style="stroke: #000000; stroke-width: 0.8"/>
      </defs>
      <g>
       <use xlink:href="#mfa389e3a76" x="68.098391" y="162.974375" style="stroke: #000000; stroke-width: 0.8"/>
      </g>
     </g>
     <g id="text_1">
      <!-- 0 -->
      <g transform="translate(64.917141 177.572812)scale(0.1 -0.1)">
       <defs>
        <path id="DejaVuSans-30" d="M 2034 4250 
Q 1547 4250 1301 3770 
Q 1056 3291 1056 2328 
Q 1056 1369 1301 889 
Q 1547 409 2034 409 
Q 2525 409 2770 889 
Q 3016 1369 3016 2328 
Q 3016 3291 2770 3770 
Q 2525 4250 2034 4250 
z
M 2034 4750 
Q 2819 4750 3233 4129 
Q 3647 3509 3647 2328 
Q 3647 1150 3233 529 
Q 2819 -91 2034 -91 
Q 1250 -91 836 529 
Q 422 1150 422 2328 
Q 422 3509 836 4129 
Q 1250 4750 2034 4750 
z
" transform="scale(0.015625)"/>
       </defs>
       <use xlink:href="#DejaVuSans-30"/>
      </g>
     </g>
    </g>
    <g id="xtick_2">
     <g id="line2d_2">
      <g>
       <use xlink:href="#mfa389e3a76" x="121.037666" y="162.974375" style="stroke: #000000; stroke-width: 0.8"/>
      </g>
     </g>
     <g id="text_2">
      <!-- 5 -->
      <g transform="translate(117.856416 177.572812)scale(0.1 -0.1)">
       <defs>
        <path id="DejaVuSans-35" d="M 691 4666 
L 3169 4666 
L 3169 4134 
L 1269 4134 
L 1269 2991 
Q 1406 3038 1543 3061 
Q 1681 3084 1819 3084 
Q 2600 3084 3056 2656 
Q 3513 2228 3513 1497 
Q 3513 744 3044 326 
Q 2575 -91 1722 -91 
Q 1428 -91 1123 -41 
Q 819 9 494 109 
L 494 744 
Q 775 591 1075 516 
Q 1375 441 1709 441 
Q 2250 441 2565 725 
Q 2881 1009 2881 1497 
Q 2881 1984 2565 2268 
Q 2250 2553 1709 2553 
Q 1456 2553 1204 2497 
Q 953 2441 691 2322 
L 691 4666 
z
" transform="scale(0.015625)"/>
       </defs>
       <use xlink:href="#DejaVuSans-35"/>
      </g>
     </g>
    </g>
    <g id="xtick_3">
     <g id="line2d_3">
      <g>
       <use xlink:href="#mfa389e3a76" x="173.976942" y="162.974375" style="stroke: #000000; stroke-width: 0.8"/>
      </g>
     </g>
     <g id="text_3">
      <!-- 10 -->
      <g transform="translate(167.614442 177.572812)scale(0.1 -0.1)">
       <defs>
        <path id="DejaVuSans-31" d="M 794 531 
L 1825 531 
L 1825 4091 
L 703 3866 
L 703 4441 
L 1819 4666 
L 2450 4666 
L 2450 531 
L 3481 531 
L 3481 0 
L 794 0 
L 794 531 
z
" transform="scale(0.015625)"/>
       </defs>
       <use xlink:href="#DejaVuSans-31"/>
       <use xlink:href="#DejaVuSans-30" x="63.623047"/>
      </g>
     </g>
    </g>
    <g id="xtick_4">
     <g id="line2d_4">
      <g>
       <use xlink:href="#mfa389e3a76" x="226.916218" y="162.974375" style="stroke: #000000; stroke-width: 0.8"/>
      </g>
     </g>
     <g id="text_4">
      <!-- 15 -->
      <g transform="translate(220.553718 177.572812)scale(0.1 -0.1)">
       <use xlink:href="#DejaVuSans-31"/>
       <use xlink:href="#DejaVuSans-35" x="63.623047"/>
      </g>
     </g>
    </g>
    <g id="xtick_5">
     <g id="line2d_5">
      <g>
       <use xlink:href="#mfa389e3a76" x="279.855493" y="162.974375" style="stroke: #000000; stroke-width: 0.8"/>
      </g>
     </g>
     <g id="text_5">
      <!-- 20 -->
      <g transform="translate(273.492993 177.572812)scale(0.1 -0.1)">
       <defs>
        <path id="DejaVuSans-32" d="M 1228 531 
L 3431 531 
L 3431 0 
L 469 0 
L 469 531 
Q 828 903 1448 1529 
Q 2069 2156 2228 2338 
Q 2531 2678 2651 2914 
Q 2772 3150 2772 3378 
Q 2772 3750 2511 3984 
Q 2250 4219 1831 4219 
Q 1534 4219 1204 4116 
Q 875 4013 500 3803 
L 500 4441 
Q 881 4594 1212 4672 
Q 1544 4750 1819 4750 
Q 2544 4750 2975 4387 
Q 3406 4025 3406 3419 
Q 3406 3131 3298 2873 
Q 3191 2616 2906 2266 
Q 2828 2175 2409 1742 
Q 1991 1309 1228 531 
z
" transform="scale(0.015625)"/>
       </defs>
       <use xlink:href="#DejaVuSans-32"/>
       <use xlink:href="#DejaVuSans-30" x="63.623047"/>
      </g>
     </g>
    </g>
    <g id="xtick_6">
     <g id="line2d_6">
      <g>
       <use xlink:href="#mfa389e3a76" x="332.794769" y="162.974375" style="stroke: #000000; stroke-width: 0.8"/>
      </g>
     </g>
     <g id="text_6">
      <!-- 25 -->
      <g transform="translate(326.432269 177.572812)scale(0.1 -0.1)">
       <use xlink:href="#DejaVuSans-32"/>
       <use xlink:href="#DejaVuSans-35" x="63.623047"/>
      </g>
     </g>
    </g>
    <g id="text_7">
     <!-- chi_sq_ref - chi_sq_fit -->
     <g transform="translate(136.599063 198.770625)scale(0.12 -0.12)">
      <defs>
       <path id="DejaVuSans-63" d="M 3122 3366 
L 3122 2828 
Q 2878 2963 2633 3030 
Q 2388 3097 2138 3097 
Q 1578 3097 1268 2742 
Q 959 2388 959 1747 
Q 959 1106 1268 751 
Q 1578 397 2138 397 
Q 2388 397 2633 464 
Q 2878 531 3122 666 
L 3122 134 
Q 2881 22 2623 -34 
Q 2366 -91 2075 -91 
Q 1284 -91 818 406 
Q 353 903 353 1747 
Q 353 2603 823 3093 
Q 1294 3584 2113 3584 
Q 2378 3584 2631 3529 
Q 2884 3475 3122 3366 
z
" transform="scale(0.015625)"/>
       <path id="DejaVuSans-68" d="M 3513 2113 
L 3513 0 
L 2938 0 
L 2938 2094 
Q 2938 2591 2744 2837 
Q 2550 3084 2163 3084 
Q 1697 3084 1428 2787 
Q 1159 2491 1159 1978 
L 1159 0 
L 581 0 
L 581 4863 
L 1159 4863 
L 1159 2956 
Q 1366 3272 1645 3428 
Q 1925 3584 2291 3584 
Q 2894 3584 3203 3211 
Q 3513 2838 3513 2113 
z
" transform="scale(0.015625)"/>
       <path id="DejaVuSans-69" d="M 603 3500 
L 1178 3500 
L 1178 0 
L 603 0 
L 603 3500 
z
M 603 4863 
L 1178 4863 
L 1178 4134 
L 603 4134 
L 603 4863 
z
" transform="scale(0.015625)"/>
       <path id="DejaVuSans-5f" d="M 3263 -1063 
L 3263 -1509 
L -63 -1509 
L -63 -1063 
L 3263 -1063 
z
" transform="scale(0.015625)"/>
       <path id="DejaVuSans-73" d="M 2834 3397 
L 2834 2853 
Q 2591 2978 2328 3040 
Q 2066 3103 1784 3103 
Q 1356 3103 1142 2972 
Q 928 2841 928 2578 
Q 928 2378 1081 2264 
Q 1234 2150 1697 2047 
L 1894 2003 
Q 2506 1872 2764 1633 
Q 3022 1394 3022 966 
Q 3022 478 2636 193 
Q 2250 -91 1575 -91 
Q 1294 -91 989 -36 
Q 684 19 347 128 
L 347 722 
Q 666 556 975 473 
Q 1284 391 1588 391 
Q 1994 391 2212 530 
Q 2431 669 2431 922 
Q 2431 1156 2273 1281 
Q 2116 1406 1581 1522 
L 1381 1569 
Q 847 1681 609 1914 
Q 372 2147 372 2553 
Q 372 3047 722 3315 
Q 1072 3584 1716 3584 
Q 2034 3584 2315 3537 
Q 2597 3491 2834 3397 
z
" transform="scale(0.015625)"/>
       <path id="DejaVuSans-71" d="M 947 1747 
Q 947 1113 1208 752 
Q 1469 391 1925 391 
Q 2381 391 2643 752 
Q 2906 1113 2906 1747 
Q 2906 2381 2643 2742 
Q 2381 3103 1925 3103 
Q 1469 3103 1208 2742 
Q 947 2381 947 1747 
z
M 2906 525 
Q 2725 213 2448 61 
Q 2172 -91 1784 -91 
Q 1150 -91 751 415 
Q 353 922 353 1747 
Q 353 2572 751 3078 
Q 1150 3584 1784 3584 
Q 2172 3584 2448 3432 
Q 2725 3281 2906 2969 
L 2906 3500 
L 3481 3500 
L 3481 -1331 
L 2906 -1331 
L 2906 525 
z
" transform="scale(0.015625)"/>
       <path id="DejaVuSans-72" d="M 2631 2963 
Q 2534 3019 2420 3045 
Q 2306 3072 2169 3072 
Q 1681 3072 1420 2755 
Q 1159 2438 1159 1844 
L 1159 0 
L 581 0 
L 581 3500 
L 1159 3500 
L 1159 2956 
Q 1341 3275 1631 3429 
Q 1922 3584 2338 3584 
Q 2397 3584 2469 3576 
Q 2541 3569 2628 3553 
L 2631 2963 
z
" transform="scale(0.015625)"/>
       <path id="DejaVuSans-65" d="M 3597 1894 
L 3597 1613 
L 953 1613 
Q 991 1019 1311 708 
Q 1631 397 2203 397 
Q 2534 397 2845 478 
Q 3156 559 3463 722 
L 3463 178 
Q 3153 47 2828 -22 
Q 2503 -91 2169 -91 
Q 1331 -91 842 396 
Q 353 884 353 1716 
Q 353 2575 817 3079 
Q 1281 3584 2069 3584 
Q 2775 3584 3186 3129 
Q 3597 2675 3597 1894 
z
M 3022 2063 
Q 3016 2534 2758 2815 
Q 2500 3097 2075 3097 
Q 1594 3097 1305 2825 
Q 1016 2553 972 2059 
L 3022 2063 
z
" transform="scale(0.015625)"/>
       <path id="DejaVuSans-66" d="M 2375 4863 
L 2375 4384 
L 1825 4384 
Q 1516 4384 1395 4259 
Q 1275 4134 1275 3809 
L 1275 3500 
L 2222 3500 
L 2222 3053 
L 1275 3053 
L 1275 0 
L 697 0 
L 697 3053 
L 147 3053 
L 147 3500 
L 697 3500 
L 697 3744 
Q 697 4328 969 4595 
Q 1241 4863 1831 4863 
L 2375 4863 
z
" transform="scale(0.015625)"/>
       <path id="DejaVuSans-20" transform="scale(0.015625)"/>
       <path id="DejaVuSans-2d" d="M 313 2009 
L 1997 2009 
L 1997 1497 
L 313 1497 
L 313 2009 
z
" transform="scale(0.015625)"/>
       <path id="DejaVuSans-74" d="M 1172 4494 
L 1172 3500 
L 2356 3500 
L 2356 3053 
L 1172 3053 
L 1172 1153 
Q 1172 725 1289 603 
Q 1406 481 1766 481 
L 2356 481 
L 2356 0 
L 1766 0 
Q 1100 0 847 248 
Q 594 497 594 1153 
L 594 3053 
L 172 3053 
L 172 3500 
L 594 3500 
L 594 4494 
L 1172 4494 
z
" transform="scale(0.015625)"/>
      </defs>
      <use xlink:href="#DejaVuSans-63"/>
      <use xlink:href="#DejaVuSans-68" x="54.980469"/>
      <use xlink:href="#DejaVuSans-69" x="118.359375"/>
      <use xlink:href="#DejaVuSans-5f" x="146.142578"/>
      <use xlink:href="#DejaVuSans-73" x="196.142578"/>
      <use xlink:href="#DejaVuSans-71" x="248.242188"/>
      <use xlink:href="#DejaVuSans-5f" x="311.71875"/>
      <use xlink:href="#DejaVuSans-72" x="361.71875"/>
      <use xlink:href="#DejaVuSans-65" x="400.582031"/>
      <use xlink:href="#DejaVuSans-66" x="462.105469"/>
      <use xlink:href="#DejaVuSans-20" x="497.310547"/>
      <use xlink:href="#DejaVuSans-2d" x="529.097656"/>
      <use xlink:href="#DejaVuSans-20" x="565.181641"/>
      <use xlink:href="#DejaVuSans-63" x="596.96875"/>
      <use xlink:href="#DejaVuSans-68" x="651.949219"/>
      <use xlink:href="#DejaVuSans-69" x="715.328125"/>
      <use xlink:href="#DejaVuSans-5f" x="743.111328"/>
      <use xlink:href="#DejaVuSans-73" x="793.111328"/>
      <use xlink:href="#DejaVuSans-71" x="845.210938"/>
      <use xlink:href="#DejaVuSans-5f" x="908.6875"/>
      <use xlink:href="#DejaVuSans-66" x="958.6875"/>
      <use xlink:href="#DejaVuSans-69" x="993.892578"/>
      <use xlink:href="#DejaVuSans-74" x="1021.675781"/>
     </g>
    </g>
   </g>
   <g id="matplotlib.axis_2">
    <g id="ytick_1">
     <g id="line2d_7">
      <defs>
       <path id="md6669cc687" d="M 0 0 
L -3.5 0 
" style="stroke: #000000; stroke-width: 0.8"/>
      </defs>
      <g>
       <use xlink:href="#md6669cc687" x="54.90125" y="162.974375" style="stroke: #000000; stroke-width: 0.8"/>
      </g>
     </g>
     <g id="text_8">
      <!-- 0 -->
      <g transform="translate(41.53875 166.773594)scale(0.1 -0.1)">
       <use xlink:href="#DejaVuSans-30"/>
      </g>
     </g>
    </g>
    <g id="ytick_2">
     <g id="line2d_8">
      <g>
       <use xlink:href="#md6669cc687" x="54.90125" y="138.653629" style="stroke: #000000; stroke-width: 0.8"/>
      </g>
     </g>
     <g id="text_9">
      <!-- 50 -->
      <g transform="translate(35.17625 142.452848)scale(0.1 -0.1)">
       <use xlink:href="#DejaVuSans-35"/>
       <use xlink:href="#DejaVuSans-30" x="63.623047"/>
      </g>
     </g>
    </g>
    <g id="ytick_3">
     <g id="line2d_9">
      <g>
       <use xlink:href="#md6669cc687" x="54.90125" y="114.332884" style="stroke: #000000; stroke-width: 0.8"/>
      </g>
     </g>
     <g id="text_10">
      <!-- 100 -->
      <g transform="translate(28.81375 118.132103)scale(0.1 -0.1)">
       <use xlink:href="#DejaVuSans-31"/>
       <use xlink:href="#DejaVuSans-30" x="63.623047"/>
       <use xlink:href="#DejaVuSans-30" x="127.246094"/>
      </g>
     </g>
    </g>
    <g id="ytick_4">
     <g id="line2d_10">
      <g>
       <use xlink:href="#md6669cc687" x="54.90125" y="90.012138" style="stroke: #000000; stroke-width: 0.8"/>
      </g>
     </g>
     <g id="text_11">
      <!-- 150 -->
      <g transform="translate(28.81375 93.811357)scale(0.1 -0.1)">
       <use xlink:href="#DejaVuSans-31"/>
       <use xlink:href="#DejaVuSans-35" x="63.623047"/>
       <use xlink:href="#DejaVuSans-30" x="127.246094"/>
      </g>
     </g>
    </g>
    <g id="ytick_5">
     <g id="line2d_11">
      <g>
       <use xlink:href="#md6669cc687" x="54.90125" y="65.691393" style="stroke: #000000; stroke-width: 0.8"/>
      </g>
     </g>
     <g id="text_12">
      <!-- 200 -->
      <g transform="translate(28.81375 69.490612)scale(0.1 -0.1)">
       <use xlink:href="#DejaVuSans-32"/>
       <use xlink:href="#DejaVuSans-30" x="63.623047"/>
       <use xlink:href="#DejaVuSans-30" x="127.246094"/>
      </g>
     </g>
    </g>
    <g id="ytick_6">
     <g id="line2d_12">
      <g>
       <use xlink:href="#md6669cc687" x="54.90125" y="41.370647" style="stroke: #000000; stroke-width: 0.8"/>
      </g>
     </g>
     <g id="text_13">
      <!-- 250 -->
      <g transform="translate(28.81375 45.169866)scale(0.1 -0.1)">
       <use xlink:href="#DejaVuSans-32"/>
       <use xlink:href="#DejaVuSans-35" x="63.623047"/>
       <use xlink:href="#DejaVuSans-30" x="127.246094"/>
      </g>
     </g>
    </g>
    <g id="ytick_7">
     <g id="line2d_13">
      <g>
       <use xlink:href="#md6669cc687" x="54.90125" y="17.049902" style="stroke: #000000; stroke-width: 0.8"/>
      </g>
     </g>
     <g id="text_14">
      <!-- 300 -->
      <g transform="translate(28.81375 20.849121)scale(0.1 -0.1)">
       <defs>
        <path id="DejaVuSans-33" d="M 2597 2516 
Q 3050 2419 3304 2112 
Q 3559 1806 3559 1356 
Q 3559 666 3084 287 
Q 2609 -91 1734 -91 
Q 1441 -91 1130 -33 
Q 819 25 488 141 
L 488 750 
Q 750 597 1062 519 
Q 1375 441 1716 441 
Q 2309 441 2620 675 
Q 2931 909 2931 1356 
Q 2931 1769 2642 2001 
Q 2353 2234 1838 2234 
L 1294 2234 
L 1294 2753 
L 1863 2753 
Q 2328 2753 2575 2939 
Q 2822 3125 2822 3475 
Q 2822 3834 2567 4026 
Q 2313 4219 1838 4219 
Q 1578 4219 1281 4162 
Q 984 4106 628 3988 
L 628 4550 
Q 988 4650 1302 4700 
Q 1616 4750 1894 4750 
Q 2613 4750 3031 4423 
Q 3450 4097 3450 3541 
Q 3450 3153 3228 2886 
Q 3006 2619 2597 2516 
z
" transform="scale(0.015625)"/>
       </defs>
       <use xlink:href="#DejaVuSans-33"/>
       <use xlink:href="#DejaVuSans-30" x="63.623047"/>
       <use xlink:href="#DejaVuSans-30" x="127.246094"/>
      </g>
     </g>
    </g>
    <g id="text_15">
     <!-- Count -->
     <g transform="translate(16.318125 102.905312)rotate(-90)scale(0.12 -0.12)">
      <defs>
       <path id="DejaVuSans-43" d="M 4122 4306 
L 4122 3641 
Q 3803 3938 3442 4084 
Q 3081 4231 2675 4231 
Q 1875 4231 1450 3742 
Q 1025 3253 1025 2328 
Q 1025 1406 1450 917 
Q 1875 428 2675 428 
Q 3081 428 3442 575 
Q 3803 722 4122 1019 
L 4122 359 
Q 3791 134 3420 21 
Q 3050 -91 2638 -91 
Q 1578 -91 968 557 
Q 359 1206 359 2328 
Q 359 3453 968 4101 
Q 1578 4750 2638 4750 
Q 3056 4750 3426 4639 
Q 3797 4528 4122 4306 
z
" transform="scale(0.015625)"/>
       <path id="DejaVuSans-6f" d="M 1959 3097 
Q 1497 3097 1228 2736 
Q 959 2375 959 1747 
Q 959 1119 1226 758 
Q 1494 397 1959 397 
Q 2419 397 2687 759 
Q 2956 1122 2956 1747 
Q 2956 2369 2687 2733 
Q 2419 3097 1959 3097 
z
M 1959 3584 
Q 2709 3584 3137 3096 
Q 3566 2609 3566 1747 
Q 3566 888 3137 398 
Q 2709 -91 1959 -91 
Q 1206 -91 779 398 
Q 353 888 353 1747 
Q 353 2609 779 3096 
Q 1206 3584 1959 3584 
z
" transform="scale(0.015625)"/>
       <path id="DejaVuSans-75" d="M 544 1381 
L 544 3500 
L 1119 3500 
L 1119 1403 
Q 1119 906 1312 657 
Q 1506 409 1894 409 
Q 2359 409 2629 706 
Q 2900 1003 2900 1516 
L 2900 3500 
L 3475 3500 
L 3475 0 
L 2900 0 
L 2900 538 
Q 2691 219 2414 64 
Q 2138 -91 1772 -91 
Q 1169 -91 856 284 
Q 544 659 544 1381 
z
M 1991 3584 
L 1991 3584 
z
" transform="scale(0.015625)"/>
       <path id="DejaVuSans-6e" d="M 3513 2113 
L 3513 0 
L 2938 0 
L 2938 2094 
Q 2938 2591 2744 2837 
Q 2550 3084 2163 3084 
Q 1697 3084 1428 2787 
Q 1159 2491 1159 1978 
L 1159 0 
L 581 0 
L 581 3500 
L 1159 3500 
L 1159 2956 
Q 1366 3272 1645 3428 
Q 1925 3584 2291 3584 
Q 2894 3584 3203 3211 
Q 3513 2838 3513 2113 
z
" transform="scale(0.015625)"/>
      </defs>
      <use xlink:href="#DejaVuSans-43"/>
      <use xlink:href="#DejaVuSans-6f" x="69.824219"/>
      <use xlink:href="#DejaVuSans-75" x="131.005859"/>
      <use xlink:href="#DejaVuSans-6e" x="194.384766"/>
      <use xlink:href="#DejaVuSans-74" x="257.763672"/>
     </g>
    </g>
   </g>
   <g id="line2d_14">
    <path d="M 218.065696 162.974375 
L 218.065696 14.617827 
" clip-path="url(#p2016c5d27c)" style="fill: none; stroke-dasharray: 3,4.95; stroke-dashoffset: 0; stroke: #1e90ff; stroke-opacity: 0.6; stroke-width: 3"/>
   </g>
   <g id="patch_38">
    <path d="M 54.90125 162.974375 
L 54.90125 7.2 
" style="fill: none; stroke: #000000; stroke-width: 0.8; stroke-linejoin: miter; stroke-linecap: square"/>
   </g>
   <g id="patch_39">
    <path d="M 54.90125 162.974375 
L 345.6 162.974375 
" style="fill: none; stroke: #000000; stroke-width: 0.8; stroke-linejoin: miter; stroke-linecap: square"/>
   </g>
  </g>
 </g>
 <defs>
  <clipPath id="p2016c5d27c">
   <rect x="54.90125" y="7.2" width="290.69875" height="155.774375"/>
  </clipPath>
 </defs>
</svg>
