<?xml version="1.0" encoding="utf-8" standalone="no"?>
<!DOCTYPE svg PUBLIC "-//W3C//DTD SVG 1.1//EN"
  "http://www.w3.org/Graphics/SVG/1.1/DTD/svg11.dtd">
<svg xmlns:xlink="http://www.w3.org/1999/xlink" width="216pt" height="216pt" viewBox="0 0 216 216" xmlns="http://www.w3.org/2000/svg" version="1.1">
 <metadata>
  <rdf:RDF xmlns:dc="http://purl.org/dc/elements/1.1/" xmlns:cc="http://creativecommons.org/ns#" xmlns:rdf="http://www.w3.org/1999/02/22-rdf-syntax-ns#">
   <cc:Work>
    <dc:type rdf:resource="http://purl.org/dc/dcmitype/StillImage"/>
    <dc:date>2022-06-25T03:19:36.772351</dc:date>
    <dc:format>image/svg+xml</dc:format>
    <dc:creator>
     <cc:Agent>
      <dc:title>Matplotlib v3.5.2, https://matplotlib.org/</dc:title>
     </cc:Agent>
    </dc:creator>
   </cc:Work>
  </rdf:RDF>
 </metadata>
 <defs>
  <style type="text/css">*{stroke-linejoin: round; stroke-linecap: butt}</style>
 </defs>
 <g id="figure_1">
  <g id="patch_1">
   <path d="M 0 216 
L 216 216 
L 216 0 
L 0 0 
z
" style="fill: #ffffff"/>
  </g>
  <g id="axes_1">
   <g id="patch_2">
    <path d="M 52.4725 166.908125 
L 205.2 166.908125 
L 205.2 10.8 
L 52.4725 10.8 
z
" style="fill: #ffffff"/>
   </g>
   <g id="line2d_1">
    <path d="M 59.414659 31.186311 
L 60.334764 40.974863 
L 62.086372 58.411776 
L 63.731754 73.393103 
L 65.283062 86.324354 
L 68.142599 107.230627 
L 70.729364 123.022974 
L 73.090896 134.996771 
L 80.898731 159.518839 
L 86.954958 164.70035 
L 86.954958 164.70035 
L 99.71109 149.550061 
L 108.354082 133.982997 
L 114.899341 124.093069 
L 120.168831 117.514802 
L 124.579676 112.873969 
L 128.372884 109.427138 
L 131.700372 106.768797 
L 134.664096 104.651136 
L 137.335808 102.938984 
L 139.767927 101.5197 
L 141.999909 100.314436 
L 144.062205 99.289397 
L 145.978801 98.410793 
L 147.768933 97.633567 
L 149.448262 96.957717 
L 151.029709 96.360717 
L 152.524059 95.820037 
L 153.940406 95.335679 
L 155.286492 94.907641 
L 156.568958 94.502131 
L 157.79355 94.141678 
L 158.965264 93.815018 
L 160.088479 93.510885 
L 161.167051 93.229282 
L 162.204394 92.970206 
L 163.203544 92.733659 
L 164.167213 92.508376 
L 165.097835 92.305621 
L 165.997603 92.102866 
L 166.868495 91.92264 
L 167.712309 91.753677 
L 168.530678 91.595979 
L 169.325091 91.438281 
L 170.09691 91.303111 
L 170.847387 91.167941 
L 171.577668 91.032771 
L 172.288814 90.908865 
L 172.9818 90.796224 
L 173.657532 90.683582 
L 174.316848 90.582205 
L 174.960526 90.480828 
L 175.589292 90.390714 
L 176.20382 90.300601 
L 176.804741 90.210488 
L 177.392645 90.131639 
L 177.968083 90.05279 
L 178.531574 89.973941 
L 179.083603 89.895091 
L 179.624628 89.827507 
L 180.155078 89.759922 
L 180.675359 89.692337 
L 181.185853 89.636016 
L 181.686923 89.568431 
L 182.178909 89.51211 
L 182.662136 89.455789 
L 183.136909 89.410733 
L 183.603519 89.354412 
L 184.062242 89.298091 
L 184.513341 89.253035 
L 184.957065 89.207978 
L 185.393651 89.162921 
L 185.823325 89.117865 
L 186.246302 89.072808 
L 186.662788 89.027751 
L 187.07298 88.993959 
L 187.477064 88.948902 
L 187.875221 88.91511 
L 188.26762 88.881317 
L 188.654427 88.836261 
L 189.035799 88.802468 
L 189.411886 88.768676 
L 189.782832 88.734883 
L 190.148777 88.712355 
L 190.509853 88.678563 
L 190.866189 88.64477 
L 191.217906 88.610978 
L 191.565124 88.588449 
L 191.907956 88.554657 
L 192.246511 88.532129 
L 192.580895 88.5096 
L 192.91121 88.475808 
L 193.237552 88.453279 
L 193.560018 88.430751 
L 193.878696 88.408223 
L 194.193677 88.37443 
L 194.505043 88.351902 
L 194.812878 88.329374 
L 195.117261 88.306845 
L 195.418268 88.284317 
L 195.715973 88.273053 
L 196.010448 88.250525 
L 196.301762 88.227996 
L 196.589982 88.205468 
L 196.875174 88.18294 
L 197.1574 88.171676 
L 197.436721 88.149147 
L 197.713197 88.126619 
L 197.986885 88.115355 
L 198.257841 88.092827 
" clip-path="url(#p7c6a3fe0ab)" style="fill: none; stroke: #000000; stroke-width: 2; stroke-linecap: square"/>
    <defs>
     <path id="mcc399a191b" d="M 0 2 
C 0.530406 2 1.03916 1.789267 1.414214 1.414214 
C 1.789267 1.03916 2 0.530406 2 0 
C 2 -0.530406 1.789267 -1.03916 1.414214 -1.414214 
C 1.03916 -1.789267 0.530406 -2 0 -2 
C -0.530406 -2 -1.03916 -1.789267 -1.414214 -1.414214 
C -1.789267 -1.03916 -2 -0.530406 -2 0 
C -2 0.530406 -1.789267 1.03916 -1.414214 1.414214 
C -1.03916 1.789267 -0.530406 2 0 2 
z
" style="stroke: #000000"/>
    </defs>
    <g clip-path="url(#p7c6a3fe0ab)">
     <use xlink:href="#mcc399a191b" x="59.414659" y="31.186311" style="fill-opacity: 0; stroke: #000000"/>
     <use xlink:href="#mcc399a191b" x="60.334764" y="40.974863" style="fill-opacity: 0; stroke: #000000"/>
     <use xlink:href="#mcc399a191b" x="62.086372" y="58.411776" style="fill-opacity: 0; stroke: #000000"/>
     <use xlink:href="#mcc399a191b" x="63.731754" y="73.393103" style="fill-opacity: 0; stroke: #000000"/>
     <use xlink:href="#mcc399a191b" x="65.283062" y="86.324354" style="fill-opacity: 0; stroke: #000000"/>
     <use xlink:href="#mcc399a191b" x="68.142599" y="107.230627" style="fill-opacity: 0; stroke: #000000"/>
     <use xlink:href="#mcc399a191b" x="70.729364" y="123.022974" style="fill-opacity: 0; stroke: #000000"/>
     <use xlink:href="#mcc399a191b" x="73.090896" y="134.996771" style="fill-opacity: 0; stroke: #000000"/>
     <use xlink:href="#mcc399a191b" x="80.898731" y="159.518839" style="fill-opacity: 0; stroke: #000000"/>
     <use xlink:href="#mcc399a191b" x="86.954958" y="164.70035" style="fill-opacity: 0; stroke: #000000"/>
     <use xlink:href="#mcc399a191b" x="86.954958" y="164.70035" style="fill-opacity: 0; stroke: #000000"/>
     <use xlink:href="#mcc399a191b" x="99.71109" y="149.550061" style="fill-opacity: 0; stroke: #000000"/>
     <use xlink:href="#mcc399a191b" x="108.354082" y="133.982997" style="fill-opacity: 0; stroke: #000000"/>
     <use xlink:href="#mcc399a191b" x="114.899341" y="124.093069" style="fill-opacity: 0; stroke: #000000"/>
     <use xlink:href="#mcc399a191b" x="120.168831" y="117.514802" style="fill-opacity: 0; stroke: #000000"/>
     <use xlink:href="#mcc399a191b" x="124.579676" y="112.873969" style="fill-opacity: 0; stroke: #000000"/>
     <use xlink:href="#mcc399a191b" x="128.372884" y="109.427138" style="fill-opacity: 0; stroke: #000000"/>
     <use xlink:href="#mcc399a191b" x="131.700372" y="106.768797" style="fill-opacity: 0; stroke: #000000"/>
     <use xlink:href="#mcc399a191b" x="134.664096" y="104.651136" style="fill-opacity: 0; stroke: #000000"/>
     <use xlink:href="#mcc399a191b" x="137.335808" y="102.938984" style="fill-opacity: 0; stroke: #000000"/>
     <use xlink:href="#mcc399a191b" x="139.767927" y="101.5197" style="fill-opacity: 0; stroke: #000000"/>
     <use xlink:href="#mcc399a191b" x="141.999909" y="100.314436" style="fill-opacity: 0; stroke: #000000"/>
     <use xlink:href="#mcc399a191b" x="144.062205" y="99.289397" style="fill-opacity: 0; stroke: #000000"/>
     <use xlink:href="#mcc399a191b" x="145.978801" y="98.410793" style="fill-opacity: 0; stroke: #000000"/>
     <use xlink:href="#mcc399a191b" x="147.768933" y="97.633567" style="fill-opacity: 0; stroke: #000000"/>
     <use xlink:href="#mcc399a191b" x="149.448262" y="96.957717" style="fill-opacity: 0; stroke: #000000"/>
     <use xlink:href="#mcc399a191b" x="151.029709" y="96.360717" style="fill-opacity: 0; stroke: #000000"/>
     <use xlink:href="#mcc399a191b" x="152.524059" y="95.820037" style="fill-opacity: 0; stroke: #000000"/>
     <use xlink:href="#mcc399a191b" x="153.940406" y="95.335679" style="fill-opacity: 0; stroke: #000000"/>
     <use xlink:href="#mcc399a191b" x="155.286492" y="94.907641" style="fill-opacity: 0; stroke: #000000"/>
     <use xlink:href="#mcc399a191b" x="156.568958" y="94.502131" style="fill-opacity: 0; stroke: #000000"/>
     <use xlink:href="#mcc399a191b" x="157.79355" y="94.141678" style="fill-opacity: 0; stroke: #000000"/>
     <use xlink:href="#mcc399a191b" x="158.965264" y="93.815018" style="fill-opacity: 0; stroke: #000000"/>
     <use xlink:href="#mcc399a191b" x="160.088479" y="93.510885" style="fill-opacity: 0; stroke: #000000"/>
     <use xlink:href="#mcc399a191b" x="161.167051" y="93.229282" style="fill-opacity: 0; stroke: #000000"/>
     <use xlink:href="#mcc399a191b" x="162.204394" y="92.970206" style="fill-opacity: 0; stroke: #000000"/>
     <use xlink:href="#mcc399a191b" x="163.203544" y="92.733659" style="fill-opacity: 0; stroke: #000000"/>
     <use xlink:href="#mcc399a191b" x="164.167213" y="92.508376" style="fill-opacity: 0; stroke: #000000"/>
     <use xlink:href="#mcc399a191b" x="165.097835" y="92.305621" style="fill-opacity: 0; stroke: #000000"/>
     <use xlink:href="#mcc399a191b" x="165.997603" y="92.102866" style="fill-opacity: 0; stroke: #000000"/>
     <use xlink:href="#mcc399a191b" x="166.868495" y="91.92264" style="fill-opacity: 0; stroke: #000000"/>
     <use xlink:href="#mcc399a191b" x="167.712309" y="91.753677" style="fill-opacity: 0; stroke: #000000"/>
     <use xlink:href="#mcc399a191b" x="168.530678" y="91.595979" style="fill-opacity: 0; stroke: #000000"/>
     <use xlink:href="#mcc399a191b" x="169.325091" y="91.438281" style="fill-opacity: 0; stroke: #000000"/>
     <use xlink:href="#mcc399a191b" x="170.09691" y="91.303111" style="fill-opacity: 0; stroke: #000000"/>
     <use xlink:href="#mcc399a191b" x="170.847387" y="91.167941" style="fill-opacity: 0; stroke: #000000"/>
     <use xlink:href="#mcc399a191b" x="171.577668" y="91.032771" style="fill-opacity: 0; stroke: #000000"/>
     <use xlink:href="#mcc399a191b" x="172.288814" y="90.908865" style="fill-opacity: 0; stroke: #000000"/>
     <use xlink:href="#mcc399a191b" x="172.9818" y="90.796224" style="fill-opacity: 0; stroke: #000000"/>
     <use xlink:href="#mcc399a191b" x="173.657532" y="90.683582" style="fill-opacity: 0; stroke: #000000"/>
     <use xlink:href="#mcc399a191b" x="174.316848" y="90.582205" style="fill-opacity: 0; stroke: #000000"/>
     <use xlink:href="#mcc399a191b" x="174.960526" y="90.480828" style="fill-opacity: 0; stroke: #000000"/>
     <use xlink:href="#mcc399a191b" x="175.589292" y="90.390714" style="fill-opacity: 0; stroke: #000000"/>
     <use xlink:href="#mcc399a191b" x="176.20382" y="90.300601" style="fill-opacity: 0; stroke: #000000"/>
     <use xlink:href="#mcc399a191b" x="176.804741" y="90.210488" style="fill-opacity: 0; stroke: #000000"/>
     <use xlink:href="#mcc399a191b" x="177.392645" y="90.131639" style="fill-opacity: 0; stroke: #000000"/>
     <use xlink:href="#mcc399a191b" x="177.968083" y="90.05279" style="fill-opacity: 0; stroke: #000000"/>
     <use xlink:href="#mcc399a191b" x="178.531574" y="89.973941" style="fill-opacity: 0; stroke: #000000"/>
     <use xlink:href="#mcc399a191b" x="179.083603" y="89.895091" style="fill-opacity: 0; stroke: #000000"/>
     <use xlink:href="#mcc399a191b" x="179.624628" y="89.827507" style="fill-opacity: 0; stroke: #000000"/>
     <use xlink:href="#mcc399a191b" x="180.155078" y="89.759922" style="fill-opacity: 0; stroke: #000000"/>
     <use xlink:href="#mcc399a191b" x="180.675359" y="89.692337" style="fill-opacity: 0; stroke: #000000"/>
     <use xlink:href="#mcc399a191b" x="181.185853" y="89.636016" style="fill-opacity: 0; stroke: #000000"/>
     <use xlink:href="#mcc399a191b" x="181.686923" y="89.568431" style="fill-opacity: 0; stroke: #000000"/>
     <use xlink:href="#mcc399a191b" x="182.178909" y="89.51211" style="fill-opacity: 0; stroke: #000000"/>
     <use xlink:href="#mcc399a191b" x="182.662136" y="89.455789" style="fill-opacity: 0; stroke: #000000"/>
     <use xlink:href="#mcc399a191b" x="183.136909" y="89.410733" style="fill-opacity: 0; stroke: #000000"/>
     <use xlink:href="#mcc399a191b" x="183.603519" y="89.354412" style="fill-opacity: 0; stroke: #000000"/>
     <use xlink:href="#mcc399a191b" x="184.062242" y="89.298091" style="fill-opacity: 0; stroke: #000000"/>
     <use xlink:href="#mcc399a191b" x="184.513341" y="89.253035" style="fill-opacity: 0; stroke: #000000"/>
     <use xlink:href="#mcc399a191b" x="184.957065" y="89.207978" style="fill-opacity: 0; stroke: #000000"/>
     <use xlink:href="#mcc399a191b" x="185.393651" y="89.162921" style="fill-opacity: 0; stroke: #000000"/>
     <use xlink:href="#mcc399a191b" x="185.823325" y="89.117865" style="fill-opacity: 0; stroke: #000000"/>
     <use xlink:href="#mcc399a191b" x="186.246302" y="89.072808" style="fill-opacity: 0; stroke: #000000"/>
     <use xlink:href="#mcc399a191b" x="186.662788" y="89.027751" style="fill-opacity: 0; stroke: #000000"/>
     <use xlink:href="#mcc399a191b" x="187.07298" y="88.993959" style="fill-opacity: 0; stroke: #000000"/>
     <use xlink:href="#mcc399a191b" x="187.477064" y="88.948902" style="fill-opacity: 0; stroke: #000000"/>
     <use xlink:href="#mcc399a191b" x="187.875221" y="88.91511" style="fill-opacity: 0; stroke: #000000"/>
     <use xlink:href="#mcc399a191b" x="188.26762" y="88.881317" style="fill-opacity: 0; stroke: #000000"/>
     <use xlink:href="#mcc399a191b" x="188.654427" y="88.836261" style="fill-opacity: 0; stroke: #000000"/>
     <use xlink:href="#mcc399a191b" x="189.035799" y="88.802468" style="fill-opacity: 0; stroke: #000000"/>
     <use xlink:href="#mcc399a191b" x="189.411886" y="88.768676" style="fill-opacity: 0; stroke: #000000"/>
     <use xlink:href="#mcc399a191b" x="189.782832" y="88.734883" style="fill-opacity: 0; stroke: #000000"/>
     <use xlink:href="#mcc399a191b" x="190.148777" y="88.712355" style="fill-opacity: 0; stroke: #000000"/>
     <use xlink:href="#mcc399a191b" x="190.509853" y="88.678563" style="fill-opacity: 0; stroke: #000000"/>
     <use xlink:href="#mcc399a191b" x="190.866189" y="88.64477" style="fill-opacity: 0; stroke: #000000"/>
     <use xlink:href="#mcc399a191b" x="191.217906" y="88.610978" style="fill-opacity: 0; stroke: #000000"/>
     <use xlink:href="#mcc399a191b" x="191.565124" y="88.588449" style="fill-opacity: 0; stroke: #000000"/>
     <use xlink:href="#mcc399a191b" x="191.907956" y="88.554657" style="fill-opacity: 0; stroke: #000000"/>
     <use xlink:href="#mcc399a191b" x="192.246511" y="88.532129" style="fill-opacity: 0; stroke: #000000"/>
     <use xlink:href="#mcc399a191b" x="192.580895" y="88.5096" style="fill-opacity: 0; stroke: #000000"/>
     <use xlink:href="#mcc399a191b" x="192.91121" y="88.475808" style="fill-opacity: 0; stroke: #000000"/>
     <use xlink:href="#mcc399a191b" x="193.237552" y="88.453279" style="fill-opacity: 0; stroke: #000000"/>
     <use xlink:href="#mcc399a191b" x="193.560018" y="88.430751" style="fill-opacity: 0; stroke: #000000"/>
     <use xlink:href="#mcc399a191b" x="193.878696" y="88.408223" style="fill-opacity: 0; stroke: #000000"/>
     <use xlink:href="#mcc399a191b" x="194.193677" y="88.37443" style="fill-opacity: 0; stroke: #000000"/>
     <use xlink:href="#mcc399a191b" x="194.505043" y="88.351902" style="fill-opacity: 0; stroke: #000000"/>
     <use xlink:href="#mcc399a191b" x="194.812878" y="88.329374" style="fill-opacity: 0; stroke: #000000"/>
     <use xlink:href="#mcc399a191b" x="195.117261" y="88.306845" style="fill-opacity: 0; stroke: #000000"/>
     <use xlink:href="#mcc399a191b" x="195.418268" y="88.284317" style="fill-opacity: 0; stroke: #000000"/>
     <use xlink:href="#mcc399a191b" x="195.715973" y="88.273053" style="fill-opacity: 0; stroke: #000000"/>
     <use xlink:href="#mcc399a191b" x="196.010448" y="88.250525" style="fill-opacity: 0; stroke: #000000"/>
     <use xlink:href="#mcc399a191b" x="196.301762" y="88.227996" style="fill-opacity: 0; stroke: #000000"/>
     <use xlink:href="#mcc399a191b" x="196.589982" y="88.205468" style="fill-opacity: 0; stroke: #000000"/>
     <use xlink:href="#mcc399a191b" x="196.875174" y="88.18294" style="fill-opacity: 0; stroke: #000000"/>
     <use xlink:href="#mcc399a191b" x="197.1574" y="88.171676" style="fill-opacity: 0; stroke: #000000"/>
     <use xlink:href="#mcc399a191b" x="197.436721" y="88.149147" style="fill-opacity: 0; stroke: #000000"/>
     <use xlink:href="#mcc399a191b" x="197.713197" y="88.126619" style="fill-opacity: 0; stroke: #000000"/>
     <use xlink:href="#mcc399a191b" x="197.986885" y="88.115355" style="fill-opacity: 0; stroke: #000000"/>
     <use xlink:href="#mcc399a191b" x="198.257841" y="88.092827" style="fill-opacity: 0; stroke: #000000"/>
    </g>
   </g>
   <g id="matplotlib.axis_1">
    <g id="xtick_1">
     <g id="line2d_2">
      <defs>
       <path id="m6244181eb3" d="M 0 0 
L 0 3.5 
" style="stroke: #000000; stroke-width: 0.8"/>
      </defs>
      <g>
       <use xlink:href="#m6244181eb3" x="70.246711" y="166.908125" style="stroke: #000000; stroke-width: 0.8"/>
      </g>
     </g>
     <g id="text_1">
      <!-- 2.5 -->
      <g transform="translate(62.295148 181.506563)scale(0.1 -0.1)">
       <defs>
        <path id="DejaVuSans-32" d="M 1228 531 
L 3431 531 
L 3431 0 
L 469 0 
L 469 531 
Q 828 903 1448 1529 
Q 2069 2156 2228 2338 
Q 2531 2678 2651 2914 
Q 2772 3150 2772 3378 
Q 2772 3750 2511 3984 
Q 2250 4219 1831 4219 
Q 1534 4219 1204 4116 
Q 875 4013 500 3803 
L 500 4441 
Q 881 4594 1212 4672 
Q 1544 4750 1819 4750 
Q 2544 4750 2975 4387 
Q 3406 4025 3406 3419 
Q 3406 3131 3298 2873 
Q 3191 2616 2906 2266 
Q 2828 2175 2409 1742 
Q 1991 1309 1228 531 
z
" transform="scale(0.015625)"/>
        <path id="DejaVuSans-2e" d="M 684 794 
L 1344 794 
L 1344 0 
L 684 0 
L 684 794 
z
" transform="scale(0.015625)"/>
        <path id="DejaVuSans-35" d="M 691 4666 
L 3169 4666 
L 3169 4134 
L 1269 4134 
L 1269 2991 
Q 1406 3038 1543 3061 
Q 1681 3084 1819 3084 
Q 2600 3084 3056 2656 
Q 3513 2228 3513 1497 
Q 3513 744 3044 326 
Q 2575 -91 1722 -91 
Q 1428 -91 1123 -41 
Q 819 9 494 109 
L 494 744 
Q 775 591 1075 516 
Q 1375 441 1709 441 
Q 2250 441 2565 725 
Q 2881 1009 2881 1497 
Q 2881 1984 2565 2268 
Q 2250 2553 1709 2553 
Q 1456 2553 1204 2497 
Q 953 2441 691 2322 
L 691 4666 
z
" transform="scale(0.015625)"/>
       </defs>
       <use xlink:href="#DejaVuSans-32"/>
       <use xlink:href="#DejaVuSans-2e" x="63.623047"/>
       <use xlink:href="#DejaVuSans-35" x="95.410156"/>
      </g>
     </g>
    </g>
    <g id="xtick_2">
     <g id="line2d_3">
      <g>
       <use xlink:href="#m6244181eb3" x="101.493363" y="166.908125" style="stroke: #000000; stroke-width: 0.8"/>
      </g>
     </g>
     <g id="text_2">
      <!-- 3.0 -->
      <g transform="translate(93.541801 181.506563)scale(0.1 -0.1)">
       <defs>
        <path id="DejaVuSans-33" d="M 2597 2516 
Q 3050 2419 3304 2112 
Q 3559 1806 3559 1356 
Q 3559 666 3084 287 
Q 2609 -91 1734 -91 
Q 1441 -91 1130 -33 
Q 819 25 488 141 
L 488 750 
Q 750 597 1062 519 
Q 1375 441 1716 441 
Q 2309 441 2620 675 
Q 2931 909 2931 1356 
Q 2931 1769 2642 2001 
Q 2353 2234 1838 2234 
L 1294 2234 
L 1294 2753 
L 1863 2753 
Q 2328 2753 2575 2939 
Q 2822 3125 2822 3475 
Q 2822 3834 2567 4026 
Q 2313 4219 1838 4219 
Q 1578 4219 1281 4162 
Q 984 4106 628 3988 
L 628 4550 
Q 988 4650 1302 4700 
Q 1616 4750 1894 4750 
Q 2613 4750 3031 4423 
Q 3450 4097 3450 3541 
Q 3450 3153 3228 2886 
Q 3006 2619 2597 2516 
z
" transform="scale(0.015625)"/>
        <path id="DejaVuSans-30" d="M 2034 4250 
Q 1547 4250 1301 3770 
Q 1056 3291 1056 2328 
Q 1056 1369 1301 889 
Q 1547 409 2034 409 
Q 2525 409 2770 889 
Q 3016 1369 3016 2328 
Q 3016 3291 2770 3770 
Q 2525 4250 2034 4250 
z
M 2034 4750 
Q 2819 4750 3233 4129 
Q 3647 3509 3647 2328 
Q 3647 1150 3233 529 
Q 2819 -91 2034 -91 
Q 1250 -91 836 529 
Q 422 1150 422 2328 
Q 422 3509 836 4129 
Q 1250 4750 2034 4750 
z
" transform="scale(0.015625)"/>
       </defs>
       <use xlink:href="#DejaVuSans-33"/>
       <use xlink:href="#DejaVuSans-2e" x="63.623047"/>
       <use xlink:href="#DejaVuSans-30" x="95.410156"/>
      </g>
     </g>
    </g>
    <g id="xtick_3">
     <g id="line2d_4">
      <g>
       <use xlink:href="#m6244181eb3" x="132.740015" y="166.908125" style="stroke: #000000; stroke-width: 0.8"/>
      </g>
     </g>
     <g id="text_3">
      <!-- 3.5 -->
      <g transform="translate(124.788453 181.506563)scale(0.1 -0.1)">
       <use xlink:href="#DejaVuSans-33"/>
       <use xlink:href="#DejaVuSans-2e" x="63.623047"/>
       <use xlink:href="#DejaVuSans-35" x="95.410156"/>
      </g>
     </g>
    </g>
    <g id="xtick_4">
     <g id="line2d_5">
      <g>
       <use xlink:href="#m6244181eb3" x="163.986667" y="166.908125" style="stroke: #000000; stroke-width: 0.8"/>
      </g>
     </g>
     <g id="text_4">
      <!-- 4.0 -->
      <g transform="translate(156.035105 181.506563)scale(0.1 -0.1)">
       <defs>
        <path id="DejaVuSans-34" d="M 2419 4116 
L 825 1625 
L 2419 1625 
L 2419 4116 
z
M 2253 4666 
L 3047 4666 
L 3047 1625 
L 3713 1625 
L 3713 1100 
L 3047 1100 
L 3047 0 
L 2419 0 
L 2419 1100 
L 313 1100 
L 313 1709 
L 2253 4666 
z
" transform="scale(0.015625)"/>
       </defs>
       <use xlink:href="#DejaVuSans-34"/>
       <use xlink:href="#DejaVuSans-2e" x="63.623047"/>
       <use xlink:href="#DejaVuSans-30" x="95.410156"/>
      </g>
     </g>
    </g>
    <g id="xtick_5">
     <g id="line2d_6">
      <g>
       <use xlink:href="#m6244181eb3" x="195.233319" y="166.908125" style="stroke: #000000; stroke-width: 0.8"/>
      </g>
     </g>
     <g id="text_5">
      <!-- 4.5 -->
      <g transform="translate(187.281757 181.506563)scale(0.1 -0.1)">
       <use xlink:href="#DejaVuSans-34"/>
       <use xlink:href="#DejaVuSans-2e" x="63.623047"/>
       <use xlink:href="#DejaVuSans-35" x="95.410156"/>
      </g>
     </g>
    </g>
    <g id="text_6">
     <!-- m -->
     <g transform="translate(122.991875 202.704375)scale(0.12 -0.12)">
      <defs>
       <path id="DejaVuSans-6d" d="M 3328 2828 
Q 3544 3216 3844 3400 
Q 4144 3584 4550 3584 
Q 5097 3584 5394 3201 
Q 5691 2819 5691 2113 
L 5691 0 
L 5113 0 
L 5113 2094 
Q 5113 2597 4934 2840 
Q 4756 3084 4391 3084 
Q 3944 3084 3684 2787 
Q 3425 2491 3425 1978 
L 3425 0 
L 2847 0 
L 2847 2094 
Q 2847 2600 2669 2842 
Q 2491 3084 2119 3084 
Q 1678 3084 1418 2786 
Q 1159 2488 1159 1978 
L 1159 0 
L 581 0 
L 581 3500 
L 1159 3500 
L 1159 2956 
Q 1356 3278 1631 3431 
Q 1906 3584 2284 3584 
Q 2666 3584 2933 3390 
Q 3200 3197 3328 2828 
z
" transform="scale(0.015625)"/>
      </defs>
      <use xlink:href="#DejaVuSans-6d"/>
     </g>
    </g>
   </g>
   <g id="matplotlib.axis_2">
    <g id="ytick_1">
     <g id="line2d_7">
      <defs>
       <path id="m434c284edd" d="M 0 0 
L -3.5 0 
" style="stroke: #000000; stroke-width: 0.8"/>
      </defs>
      <g>
       <use xlink:href="#m434c284edd" x="52.4725" y="151.003137" style="stroke: #000000; stroke-width: 0.8"/>
      </g>
     </g>
     <g id="text_7">
      <!-- 2 -->
      <g transform="translate(39.11 154.802356)scale(0.1 -0.1)">
       <use xlink:href="#DejaVuSans-32"/>
      </g>
     </g>
    </g>
    <g id="ytick_2">
     <g id="line2d_8">
      <g>
       <use xlink:href="#m434c284edd" x="52.4725" y="128.474825" style="stroke: #000000; stroke-width: 0.8"/>
      </g>
     </g>
     <g id="text_8">
      <!-- 4 -->
      <g transform="translate(39.11 132.274044)scale(0.1 -0.1)">
       <use xlink:href="#DejaVuSans-34"/>
      </g>
     </g>
    </g>
    <g id="ytick_3">
     <g id="line2d_9">
      <g>
       <use xlink:href="#m434c284edd" x="52.4725" y="105.946514" style="stroke: #000000; stroke-width: 0.8"/>
      </g>
     </g>
     <g id="text_9">
      <!-- 6 -->
      <g transform="translate(39.11 109.745732)scale(0.1 -0.1)">
       <defs>
        <path id="DejaVuSans-36" d="M 2113 2584 
Q 1688 2584 1439 2293 
Q 1191 2003 1191 1497 
Q 1191 994 1439 701 
Q 1688 409 2113 409 
Q 2538 409 2786 701 
Q 3034 994 3034 1497 
Q 3034 2003 2786 2293 
Q 2538 2584 2113 2584 
z
M 3366 4563 
L 3366 3988 
Q 3128 4100 2886 4159 
Q 2644 4219 2406 4219 
Q 1781 4219 1451 3797 
Q 1122 3375 1075 2522 
Q 1259 2794 1537 2939 
Q 1816 3084 2150 3084 
Q 2853 3084 3261 2657 
Q 3669 2231 3669 1497 
Q 3669 778 3244 343 
Q 2819 -91 2113 -91 
Q 1303 -91 875 529 
Q 447 1150 447 2328 
Q 447 3434 972 4092 
Q 1497 4750 2381 4750 
Q 2619 4750 2861 4703 
Q 3103 4656 3366 4563 
z
" transform="scale(0.015625)"/>
       </defs>
       <use xlink:href="#DejaVuSans-36"/>
      </g>
     </g>
    </g>
    <g id="ytick_4">
     <g id="line2d_10">
      <g>
       <use xlink:href="#m434c284edd" x="52.4725" y="83.418202" style="stroke: #000000; stroke-width: 0.8"/>
      </g>
     </g>
     <g id="text_10">
      <!-- 8 -->
      <g transform="translate(39.11 87.217421)scale(0.1 -0.1)">
       <defs>
        <path id="DejaVuSans-38" d="M 2034 2216 
Q 1584 2216 1326 1975 
Q 1069 1734 1069 1313 
Q 1069 891 1326 650 
Q 1584 409 2034 409 
Q 2484 409 2743 651 
Q 3003 894 3003 1313 
Q 3003 1734 2745 1975 
Q 2488 2216 2034 2216 
z
M 1403 2484 
Q 997 2584 770 2862 
Q 544 3141 544 3541 
Q 544 4100 942 4425 
Q 1341 4750 2034 4750 
Q 2731 4750 3128 4425 
Q 3525 4100 3525 3541 
Q 3525 3141 3298 2862 
Q 3072 2584 2669 2484 
Q 3125 2378 3379 2068 
Q 3634 1759 3634 1313 
Q 3634 634 3220 271 
Q 2806 -91 2034 -91 
Q 1263 -91 848 271 
Q 434 634 434 1313 
Q 434 1759 690 2068 
Q 947 2378 1403 2484 
z
M 1172 3481 
Q 1172 3119 1398 2916 
Q 1625 2713 2034 2713 
Q 2441 2713 2670 2916 
Q 2900 3119 2900 3481 
Q 2900 3844 2670 4047 
Q 2441 4250 2034 4250 
Q 1625 4250 1398 4047 
Q 1172 3844 1172 3481 
z
" transform="scale(0.015625)"/>
       </defs>
       <use xlink:href="#DejaVuSans-38"/>
      </g>
     </g>
    </g>
    <g id="ytick_5">
     <g id="line2d_11">
      <g>
       <use xlink:href="#m434c284edd" x="52.4725" y="60.88989" style="stroke: #000000; stroke-width: 0.8"/>
      </g>
     </g>
     <g id="text_11">
      <!-- 10 -->
      <g transform="translate(32.7475 64.689109)scale(0.1 -0.1)">
       <defs>
        <path id="DejaVuSans-31" d="M 794 531 
L 1825 531 
L 1825 4091 
L 703 3866 
L 703 4441 
L 1819 4666 
L 2450 4666 
L 2450 531 
L 3481 531 
L 3481 0 
L 794 0 
L 794 531 
z
" transform="scale(0.015625)"/>
       </defs>
       <use xlink:href="#DejaVuSans-31"/>
       <use xlink:href="#DejaVuSans-30" x="63.623047"/>
      </g>
     </g>
    </g>
    <g id="ytick_6">
     <g id="line2d_12">
      <g>
       <use xlink:href="#m434c284edd" x="52.4725" y="38.361578" style="stroke: #000000; stroke-width: 0.8"/>
      </g>
     </g>
     <g id="text_12">
      <!-- 12 -->
      <g transform="translate(32.7475 42.160797)scale(0.1 -0.1)">
       <use xlink:href="#DejaVuSans-31"/>
       <use xlink:href="#DejaVuSans-32" x="63.623047"/>
      </g>
     </g>
    </g>
    <g id="ytick_7">
     <g id="line2d_13">
      <g>
       <use xlink:href="#m434c284edd" x="52.4725" y="15.833267" style="stroke: #000000; stroke-width: 0.8"/>
      </g>
     </g>
     <g id="text_13">
      <!-- 14 -->
      <g transform="translate(32.7475 19.632485)scale(0.1 -0.1)">
       <use xlink:href="#DejaVuSans-31"/>
       <use xlink:href="#DejaVuSans-34" x="63.623047"/>
      </g>
     </g>
    </g>
    <g id="text_14">
     <!-- chi_sq -->
     <g transform="translate(19.918125 107.557188)rotate(-90)scale(0.12 -0.12)">
      <defs>
       <path id="DejaVuSans-63" d="M 3122 3366 
L 3122 2828 
Q 2878 2963 2633 3030 
Q 2388 3097 2138 3097 
Q 1578 3097 1268 2742 
Q 959 2388 959 1747 
Q 959 1106 1268 751 
Q 1578 397 2138 397 
Q 2388 397 2633 464 
Q 2878 531 3122 666 
L 3122 134 
Q 2881 22 2623 -34 
Q 2366 -91 2075 -91 
Q 1284 -91 818 406 
Q 353 903 353 1747 
Q 353 2603 823 3093 
Q 1294 3584 2113 3584 
Q 2378 3584 2631 3529 
Q 2884 3475 3122 3366 
z
" transform="scale(0.015625)"/>
       <path id="DejaVuSans-68" d="M 3513 2113 
L 3513 0 
L 2938 0 
L 2938 2094 
Q 2938 2591 2744 2837 
Q 2550 3084 2163 3084 
Q 1697 3084 1428 2787 
Q 1159 2491 1159 1978 
L 1159 0 
L 581 0 
L 581 4863 
L 1159 4863 
L 1159 2956 
Q 1366 3272 1645 3428 
Q 1925 3584 2291 3584 
Q 2894 3584 3203 3211 
Q 3513 2838 3513 2113 
z
" transform="scale(0.015625)"/>
       <path id="DejaVuSans-69" d="M 603 3500 
L 1178 3500 
L 1178 0 
L 603 0 
L 603 3500 
z
M 603 4863 
L 1178 4863 
L 1178 4134 
L 603 4134 
L 603 4863 
z
" transform="scale(0.015625)"/>
       <path id="DejaVuSans-5f" d="M 3263 -1063 
L 3263 -1509 
L -63 -1509 
L -63 -1063 
L 3263 -1063 
z
" transform="scale(0.015625)"/>
       <path id="DejaVuSans-73" d="M 2834 3397 
L 2834 2853 
Q 2591 2978 2328 3040 
Q 2066 3103 1784 3103 
Q 1356 3103 1142 2972 
Q 928 2841 928 2578 
Q 928 2378 1081 2264 
Q 1234 2150 1697 2047 
L 1894 2003 
Q 2506 1872 2764 1633 
Q 3022 1394 3022 966 
Q 3022 478 2636 193 
Q 2250 -91 1575 -91 
Q 1294 -91 989 -36 
Q 684 19 347 128 
L 347 722 
Q 666 556 975 473 
Q 1284 391 1588 391 
Q 1994 391 2212 530 
Q 2431 669 2431 922 
Q 2431 1156 2273 1281 
Q 2116 1406 1581 1522 
L 1381 1569 
Q 847 1681 609 1914 
Q 372 2147 372 2553 
Q 372 3047 722 3315 
Q 1072 3584 1716 3584 
Q 2034 3584 2315 3537 
Q 2597 3491 2834 3397 
z
" transform="scale(0.015625)"/>
       <path id="DejaVuSans-71" d="M 947 1747 
Q 947 1113 1208 752 
Q 1469 391 1925 391 
Q 2381 391 2643 752 
Q 2906 1113 2906 1747 
Q 2906 2381 2643 2742 
Q 2381 3103 1925 3103 
Q 1469 3103 1208 2742 
Q 947 2381 947 1747 
z
M 2906 525 
Q 2725 213 2448 61 
Q 2172 -91 1784 -91 
Q 1150 -91 751 415 
Q 353 922 353 1747 
Q 353 2572 751 3078 
Q 1150 3584 1784 3584 
Q 2172 3584 2448 3432 
Q 2725 3281 2906 2969 
L 2906 3500 
L 3481 3500 
L 3481 -1331 
L 2906 -1331 
L 2906 525 
z
" transform="scale(0.015625)"/>
      </defs>
      <use xlink:href="#DejaVuSans-63"/>
      <use xlink:href="#DejaVuSans-68" x="54.980469"/>
      <use xlink:href="#DejaVuSans-69" x="118.359375"/>
      <use xlink:href="#DejaVuSans-5f" x="146.142578"/>
      <use xlink:href="#DejaVuSans-73" x="196.142578"/>
      <use xlink:href="#DejaVuSans-71" x="248.242188"/>
     </g>
    </g>
   </g>
   <g id="PathCollection_1">
    <defs>
     <path id="mcdda03e4a9" d="M 0 2 
C 0.530406 2 1.03916 1.789267 1.414214 1.414214 
C 1.789267 1.03916 2 0.530406 2 0 
C 2 -0.530406 1.789267 -1.03916 1.414214 -1.414214 
C 1.03916 -1.789267 0.530406 -2 0 -2 
C -0.530406 -2 -1.03916 -1.789267 -1.414214 -1.414214 
C -1.789267 -1.03916 -2 -0.530406 -2 0 
C -2 0.530406 -1.789267 1.03916 -1.414214 1.414214 
C -1.03916 1.789267 -0.530406 2 0 2 
z
" style="stroke: #1e90ff"/>
    </defs>
    <g clip-path="url(#p7c6a3fe0ab)">
     <use xlink:href="#mcdda03e4a9" x="86.954958" y="164.70035" style="fill: #1e90ff; stroke: #1e90ff"/>
    </g>
   </g>
   <g id="line2d_14">
    <path d="M 59.414659 37.921908 
L 198.257841 37.921908 
" clip-path="url(#p7c6a3fe0ab)" style="fill: none; stroke-dasharray: 2,3.3; stroke-dashoffset: 0; stroke: #696969; stroke-width: 2"/>
   </g>
   <g id="patch_3">
    <path d="M 52.4725 166.908125 
L 52.4725 10.8 
" style="fill: none; stroke: #000000; stroke-width: 0.8; stroke-linejoin: miter; stroke-linecap: square"/>
   </g>
   <g id="patch_4">
    <path d="M 52.4725 166.908125 
L 205.2 166.908125 
" style="fill: none; stroke: #000000; stroke-width: 0.8; stroke-linejoin: miter; stroke-linecap: square"/>
   </g>
  </g>
 </g>
 <defs>
  <clipPath id="p7c6a3fe0ab">
   <rect x="52.4725" y="10.8" width="152.7275" height="156.108125"/>
  </clipPath>
 </defs>
</svg>
